<?xml version="1.0" encoding="UTF-8" standalone="no"?> <svg xmlns:inkscape="http://www.inkscape.org/namespaces/inkscape" xmlns:sodipodi="http://sodipodi.sourceforge.net/DTD/sodipodi-0.dtd" xmlns="http://www.w3.org/2000/svg" xmlns:svg="http://www.w3.org/2000/svg" viewBox="0 0 251.10001 83.099995" id="svg4" sodipodi:docname="logo-cornershop-by-uber-black-nobg.svg" width="251.10001" height="83.099998" inkscape:version="1.1 (c68e22c387, 2021-05-23)"> <defs id="defs8"></defs> <path d="m 247.7,30.4 c -2.3,2.3 -5.1,3.5 -8.3,3.5 -3.9,0 -6.7,-1.7 -7.5,-3.9 v 12.4 h -5.6 V 9.8 h 5.6 v 3.4 c 0.8,-2.3 3.7,-3.9 7.5,-3.9 3.3,0 6.1,1.2 8.3,3.5 2.3,2.3 3.4,5.3 3.4,8.7 0,3.6 -1.2,6.5 -3.4,8.9 z m -4.1,-14 c -1.3,-1.3 -2.9,-2.1 -4.9,-2.1 -2,0 -3.7,0.7 -5.1,2.1 -1.3,1.3 -2.1,3 -2.1,5.1 0,2.1 0.7,3.8 2.1,5.1 1.4,1.3 3.1,2.1 5.1,2.1 2,0 3.7,-0.7 4.9,-2.1 1.3,-1.3 2,-3 2,-5.1 -0.1,-2 -0.7,-3.7 -2,-5.1 z M 209.5,34 c -3.6,0 -6.6,-1.2 -9.1,-3.6 -2.5,-2.4 -3.7,-5.4 -3.7,-8.9 0,-3.5 1.3,-6.4 3.7,-8.9 2.5,-2.4 5.5,-3.6 9.1,-3.6 3.6,0 6.6,1.2 9.1,3.6 2.5,2.4 3.7,5.4 3.7,8.9 0,3.5 -1.3,6.4 -3.7,8.9 -2.5,2.5 -5.5,3.6 -9.1,3.6 z m 5.2,-17.6 c -1.4,-1.5 -3.1,-2.1 -5.2,-2.1 -2.1,0 -3.8,0.7 -5.3,2.1 -1.3,1.4 -2.1,3.1 -2.1,5.3 0,2.1 0.7,3.9 2.1,5.3 1.4,1.4 3.1,2.1 5.3,2.1 2.1,0 3.8,-0.7 5.2,-2.1 1.4,-1.5 2.1,-3.2 2.1,-5.3 0,-2.2 -0.7,-3.9 -2.1,-5.3 z m -27.9,11 v -7.8 c 0,-3.3 -1.7,-5.3 -4.7,-5.3 -3,0 -5.2,2.3 -5.2,5.5 v 13.6 h -5.5 V 0.8 h 5.5 v 12.3 c 1.1,-2.3 3.7,-3.7 6.9,-3.7 5.4,0 8.6,3.6 8.6,9.4 v 7.4 c 0,1.8 0.3,2.5 1.6,2.5 0.3,0 0.6,-0.1 0.8,-0.1 v 4.7 c -0.6,0.1 -1.4,0.2 -2.4,0.2 -3.8,0.1 -5.6,-2 -5.6,-6.1 z m -15.3,35.8 c 0.8,-1.3 2,-2.1 3.7,-2.1 h 1.1 V 64 H 175 c -2,0 -3.5,1.6 -3.5,4 v 8.9 h -3.1 V 61.2 h 3.1 z M 158.6,18.5 c 0.7,0.2 2,0.7 2.9,1 4.3,1.5 6.3,3.7 6.3,7 0,4.4 -3.3,7.4 -9.6,7.4 -4.7,0 -8.2,-1.8 -9.7,-4.8 l 3.6,-3 c 1.1,1.7 3.3,2.9 6.2,2.9 2.9,0 4.2,-1.1 4.2,-2.6 0,-0.8 -0.6,-1.5 -1.3,-1.9 -0.5,-0.3 -1.5,-0.7 -2.2,-0.9 -0.7,-0.3 -2.1,-0.7 -2.9,-1 -3.8,-1.3 -5.8,-3.3 -5.8,-6.7 0,-2.2 0.8,-3.9 2.4,-5.1 1.7,-1.3 3.6,-1.9 5.9,-1.9 3.3,0 5.8,1.2 7.6,3.5 l -3.1,3.3 c -1,-1.3 -2.6,-1.9 -4.6,-1.9 -1.7,0 -2.8,0.8 -2.8,2.1 0,0.8 0.4,1.2 1.1,1.7 0.2,0.3 1.2,0.7 1.8,0.9 z M 138.7,21 v 12.4 h -5.6 V 9.9 h 5.5 v 3.5 c 1.1,-2.5 3.7,-3.9 7,-3.9 0.7,0 1.2,0.1 1.7,0.1 V 15 c -0.7,-0.1 -1.5,-0.2 -2.4,-0.2 -3.8,-0.1 -6.2,2.3 -6.2,6.2 z m -2.9,42.3 c 1.4,-1.4 3.4,-2.3 5.6,-2.3 4.6,0 8.2,3.7 8.2,8.2 0,4.5 -3.6,8.2 -8.2,8.2 -2.2,0 -4.2,-0.9 -5.6,-2.3 v 2 h -3.1 V 55.6 h 3.1 z m 5.3,11.3 c 2.9,0 5.4,-2.4 5.4,-5.4 0,-3 -2.4,-5.4 -5.4,-5.4 -3,0 -5.4,2.4 -5.4,5.4 0,2.9 2.4,5.4 5.4,5.4 z m -14,0.3 c -1.4,1.5 -3.4,2.4 -5.7,2.4 -4.6,0 -8.1,-3.3 -8.1,-8.4 V 55.5 h 3.2 v 13.3 c 0,3.5 2.3,5.7 5.3,5.7 3,0 5.3,-2.3 5.3,-5.7 V 55.5 h 3.2 V 77 h -3.2 z M 111.1,23 c 0.2,3.7 2.9,6.2 7.1,6.2 2.4,0 4.5,-0.9 6.3,-2.7 l 3.3,3.3 c -2.7,2.8 -5.9,4.2 -9.8,4.2 -3.7,0 -6.7,-1.1 -9,-3.3 -2.3,-2.2 -3.5,-5.1 -3.5,-8.8 v -0.2 c 0,-3.7 1.2,-6.7 3.5,-9 2.3,-2.3 5.3,-3.4 8.8,-3.4 3.4,0 6.2,1.1 8.3,3.4 2.2,2.3 3.3,5.1 3.3,8.5 0,0.7 -0.1,1.3 -0.1,1.9 z m 10.8,-7.5 c -1.2,-1 -2.5,-1.5 -4.2,-1.5 -1.7,0 -3.3,0.5 -4.5,1.5 -1.3,1 -1.9,2.2 -2.1,3.7 h 12.5 c 0.1,-1.5 -0.5,-2.8 -1.7,-3.7 z M 99.5,79.8 c -0.5,1.2 -1.1,2 -1.8,2.5 -0.7,0.5 -1.6,0.8 -2.7,0.8 h -2.1 v -2.6 h 1.4 c 0.6,0 1.1,-0.1 1.4,-0.4 0.4,-0.2 0.7,-0.7 0.9,-1.3 L 97.5,76.7 91,61.4 h 3.3 l 4.8,11.6 4.6,-11.6 h 3.2 z m -4,-52.4 v -7.8 c 0,-3.3 -1.8,-5.3 -4.9,-5.3 -3.1,0 -5.3,2.3 -5.3,5.5 V 33.4 H 79.8 V 9.9 h 5.5 v 3.3 c 1.1,-2.3 3.7,-3.9 7.1,-3.9 5.5,0 8.8,3.6 8.8,9.4 v 7.4 c 0,1.8 0.3,2.5 1.6,2.5 0.3,0 0.6,-0.1 0.8,-0.1 v 4.7 c -0.8,0.2 -1.6,0.3 -2.6,0.3 -3.7,0.1 -5.5,-2 -5.5,-6.1 z M 83.6,60.9 c 1.1,0 2.2,0.2 3.2,0.6 1,0.4 1.9,1 2.6,1.8 0.7,0.7 1.3,1.6 1.8,2.6 0.4,1 0.6,2.1 0.6,3.2 0,1.1 -0.2,2.2 -0.6,3.2 -0.4,1 -1,1.8 -1.8,2.6 -0.7,0.7 -1.6,1.3 -2.6,1.7 -1,0.4 -2.1,0.6 -3.2,0.6 -1.1,0 -2.1,-0.2 -3.1,-0.6 -0.9,-0.4 -1.8,-1 -2.5,-1.7 v 2 H 74.9 V 55.4 H 78 v 7.8 c 0.7,-0.7 1.5,-1.3 2.5,-1.7 0.9,-0.3 2,-0.6 3.1,-0.6 z M 78.4,67 c -0.3,0.7 -0.4,1.4 -0.4,2.1 0,0.8 0.1,1.5 0.4,2.1 0.3,0.7 0.7,1.2 1.2,1.7 0.5,0.5 1.1,0.9 1.7,1.2 0.7,0.3 1.4,0.4 2.1,0.4 0.7,0 1.4,-0.1 2.1,-0.4 0.7,-0.3 1.2,-0.7 1.7,-1.2 0.5,-0.5 0.9,-1.1 1.2,-1.7 0.3,-0.7 0.4,-1.4 0.4,-2.1 0,-0.8 -0.1,-1.5 -0.4,-2.1 -0.3,-0.7 -0.7,-1.3 -1.2,-1.8 -0.5,-0.5 -1,-0.9 -1.7,-1.1 -0.7,-0.3 -1.3,-0.4 -2.1,-0.4 -0.7,0 -1.4,0.1 -2.1,0.4 -0.7,0.3 -1.2,0.6 -1.7,1.1 -0.5,0.6 -0.9,1.1 -1.2,1.8 z M 67.1,21 V 33.4 H 61.6 V 9.9 h 5.5 v 3.5 c 1.1,-2.5 3.7,-3.9 7,-3.9 0.7,0 1.2,0.1 1.7,0.1 V 15 C 75.1,14.9 74.3,14.8 73.4,14.8 69.5,14.7 67.1,17.1 67.1,21 Z M 44.8,34 C 41.2,34 38.2,32.8 35.7,30.4 33.2,28 32,25 32,21.5 32,18 33.3,15.1 35.7,12.6 38.2,10.2 41.2,9 44.8,9 c 3.6,0 6.6,1.2 9.1,3.6 2.5,2.4 3.7,5.4 3.7,8.9 0,3.5 -1.3,6.4 -3.7,8.9 -2.5,2.5 -5.5,3.6 -9.1,3.6 z m 5.1,-17.6 c -1.4,-1.5 -3.1,-2.1 -5.2,-2.1 -2.1,0 -3.8,0.7 -5.3,2.1 -1.3,1.4 -2.1,3.1 -2.1,5.3 0,2.1 0.7,3.9 2.1,5.3 1.4,1.4 3.1,2.1 5.3,2.1 2.1,0 3.8,-0.7 5.2,-2.1 1.4,-1.5 2.1,-3.2 2.1,-5.3 0,-2.2 -0.6,-3.9 -2.1,-5.3 z M 17.3,28.6 c 3.7,0 6.7,-1.3 9,-4.1 l 3.9,3.4 C 27,31.6 22.4,33.8 17.3,33.8 12.5,33.8 8.4,32.2 5,29 1.7,25.7 0,21.8 0,16.9 0,12.1 1.7,8.1 5,4.8 8.3,1.5 12.4,0 17.3,0 c 5.2,0 9.4,1.9 12.9,5.8 l -4,3.5 C 23.9,6.6 20.9,5.4 17.3,5.4 c -3.3,0 -6,1.1 -8.2,3.3 -2.2,2.2 -3.3,4.9 -3.3,8.2 0,3.3 1.1,6 3.3,8.2 2.3,2.5 5,3.5 8.2,3.5 z M 158.9,61 c 4.5,0 7.8,3.5 7.8,8.1 v 1 H 154 c 0.4,2.5 2.5,4.5 5.2,4.5 1.8,0 3.3,-0.7 4.5,-2.3 l 2.2,1.7 c -1.6,2.1 -3.9,3.3 -6.8,3.3 -4.7,0 -8.3,-3.5 -8.3,-8.2 0,-4.4 3.5,-8.1 8.1,-8.1 z m 4.6,6.7 c -0.5,-2.4 -2.5,-4 -4.8,-4 -2.3,0 -4.2,1.6 -4.8,4 z" fill-rule="evenodd" clip-rule="evenodd" id="path2" style="fill:#000000"></path> </svg> 