<?xml version="1.0" encoding="UTF-8"?> <svg xmlns="http://www.w3.org/2000/svg" width="112" height="112" viewBox="0 0 112 112" fill="none"> <path d="M72 0H40C17.9086 0 0 17.9086 0 40V72C0 94.0914 17.9086 112 40 112H72C94.0914 112 112 94.0914 112 72V40C112 17.9086 94.0914 0 72 0Z" fill="url(#paint0_linear_1520_2)"></path> <path d="M72 0H40C17.9086 0 0 17.9086 0 40V72C0 94.0914 17.9086 112 40 112H72C94.0914 112 112 94.0914 112 72V40C112 17.9086 94.0914 0 72 0Z" fill="#0066FF"></path> <path d="M72 0H40C17.9086 0 0 17.9086 0 40V72C0 94.0914 17.9086 112 40 112H72C94.0914 112 112 94.0914 112 72V40C112 17.9086 94.0914 0 72 0Z" fill="url(#paint1_linear_1520_2)"></path> <path d="M72 0H40C17.9086 0 0 17.9086 0 40V72C0 94.0914 17.9086 112 40 112H72C94.0914 112 112 94.0914 112 72V40C112 17.9086 94.0914 0 72 0Z" fill="url(#paint2_linear_1520_2)"></path> <path d="M72 0H40C17.9086 0 0 17.9086 0 40V72C0 94.0914 17.9086 112 40 112H72C94.0914 112 112 94.0914 112 72V40C112 17.9086 94.0914 0 72 0Z" fill="white" fill-opacity="0.2"></path> <path d="M72 0H40C17.9086 0 0 17.9086 0 40V72C0 94.0914 17.9086 112 40 112H72C94.0914 112 112 94.0914 112 72V40C112 17.9086 94.0914 0 72 0Z" fill="url(#paint3_linear_1520_2)"></path> <path d="M72 0H40C17.9086 0 0 17.9086 0 40V72C0 94.0914 17.9086 112 40 112H72C94.0914 112 112 94.0914 112 72V40C112 17.9086 94.0914 0 72 0Z" fill="url(#paint4_linear_1520_2)"></path> <path d="M72 0H40C17.9086 0 0 17.9086 0 40V72C0 94.0914 17.9086 112 40 112H72C94.0914 112 112 94.0914 112 72V40C112 17.9086 94.0914 0 72 0Z" fill="url(#paint5_linear_1520_2)"></path> <path d="M72 0H40C17.9086 0 0 17.9086 0 40V72C0 94.0914 17.9086 112 40 112H72C94.0914 112 112 94.0914 112 72V40C112 17.9086 94.0914 0 72 0Z" fill="url(#paint6_linear_1520_2)"></path> <path d="M72 0H40C17.9086 0 0 17.9086 0 40V72C0 94.0914 17.9086 112 40 112H72C94.0914 112 112 94.0914 112 72V40C112 17.9086 94.0914 0 72 0Z" fill="url(#paint7_linear_1520_2)"></path> <path d="M72 0H40C17.9086 0 0 17.9086 0 40V72C0 94.0914 17.9086 112 40 112H72C94.0914 112 112 94.0914 112 72V40C112 17.9086 94.0914 0 72 0Z" fill="url(#paint8_linear_1520_2)"></path> <path d="M72 0H40C17.9086 0 0 17.9086 0 40V72C0 94.0914 17.9086 112 40 112H72C94.0914 112 112 94.0914 112 72V40C112 17.9086 94.0914 0 72 0Z" fill="url(#paint9_linear_1520_2)"></path> <path d="M72 0H40C17.9086 0 0 17.9086 0 40V72C0 94.0914 17.9086 112 40 112H72C94.0914 112 112 94.0914 112 72V40C112 17.9086 94.0914 0 72 0Z" fill="url(#paint10_linear_1520_2)"></path> <path d="M72 0H40C17.9086 0 0 17.9086 0 40V72C0 94.0914 17.9086 112 40 112H72C94.0914 112 112 94.0914 112 72V40C112 17.9086 94.0914 0 72 0Z" fill="url(#paint11_linear_1520_2)"></path> <path d="M72 0H40C17.9086 0 0 17.9086 0 40V72C0 94.0914 17.9086 112 40 112H72C94.0914 112 112 94.0914 112 72V40C112 17.9086 94.0914 0 72 0Z" fill="url(#paint12_linear_1520_2)"></path> <path d="M72 0H40C17.9086 0 0 17.9086 0 40V72C0 94.0914 17.9086 112 40 112H72C94.0914 112 112 94.0914 112 72V40C112 17.9086 94.0914 0 72 0Z" fill="url(#paint13_linear_1520_2)"></path> <path d="M58.945 55.9989L58.9441 55.9998L58.7182 58.712L55.9994 59.027L53.4369 58.5245L53.0547 55.9998L53.5307 53.8058L55.9994 52.9717L58.2806 53.1808L58.945 55.9989Z" fill="white"></path> <path d="M48.2881 60.8993C47.0103 62.2137 45.2234 63.0312 43.25 63.0312C39.3734 63.0312 36.2188 59.8765 36.2188 55.9999C36.2188 52.1224 39.3734 48.9678 43.25 48.9678C45.2234 48.9678 47.0103 49.7853 48.2881 51.0987L53.0553 55.9999L56 52.9718L51.3144 48.1549C49.2706 46.054 46.4131 44.749 43.25 44.749C37.0372 44.749 32 49.7862 32 55.9999C32 62.2128 37.0372 67.2499 43.25 67.2499C46.4131 67.2499 49.2706 65.9449 51.3144 63.844L56 59.0271L53.0553 55.9999L48.2881 60.8993Z" fill="white"></path> <path d="M56 59.0272L51.3144 63.844C49.2706 65.945 46.4131 67.25 43.25 67.25C37.0372 67.25 32 62.2128 32 56H36.2188C36.2188 59.8765 39.3734 63.0312 43.25 63.0312C45.2234 63.0312 47.0103 62.2137 48.2881 60.8994L53.0553 56L56 59.0272Z" fill="#EBB9F8"></path> <path d="M68.75 44.749C65.5869 44.749 62.7294 46.054 60.6856 48.1549L56 52.9718L58.9456 55.999L63.7119 51.0987C64.9897 49.7853 66.7766 48.9678 68.75 48.9678C72.6266 48.9678 75.7812 52.1224 75.7812 55.9999C75.7812 59.8765 72.6266 63.0312 68.75 63.0312C66.7766 63.0312 64.9897 62.2137 63.7119 60.8993L58.9466 55.9999L58.9456 55.999L58.9447 55.9999L56 59.0271L60.6856 63.844C62.7294 65.9449 65.5869 67.2499 68.75 67.2499C74.9628 67.2499 80 62.2128 80 55.9999C80 49.7862 74.9628 44.749 68.75 44.749Z" fill="#EBB9F8"></path> <path d="M80 56C80 62.2128 74.9628 67.25 68.75 67.25C65.5869 67.25 62.7294 65.945 60.6856 63.844L56 59.0272L58.9447 56H58.9466L63.7119 60.8994C64.9897 62.2137 66.7766 63.0312 68.75 63.0312C72.6266 63.0312 75.7812 59.8765 75.7812 56H80Z" fill="white"></path> <defs> <linearGradient id="paint0_linear_1520_2" x1="-1.12881e-07" y1="112" x2="112" y2="-1.12881e-07" gradientUnits="userSpaceOnUse"> <stop stop-color="#F85C50"></stop> <stop offset="1" stop-color="#FFB494"></stop> </linearGradient> <linearGradient id="paint1_linear_1520_2" x1="112" y1="112" x2="21.9592" y2="-15.5068" gradientUnits="userSpaceOnUse"> <stop stop-color="#0094F0"></stop> <stop offset="1" stop-color="#FF89EC"></stop> </linearGradient> <linearGradient id="paint2_linear_1520_2" x1="0" y1="0" x2="112" y2="112" gradientUnits="userSpaceOnUse"> <stop stop-color="#00DD93"></stop> <stop offset="1" stop-color="#0F46CF"></stop> </linearGradient> <linearGradient id="paint3_linear_1520_2" x1="85.5342" y1="100.11" x2="24.5479" y2="10.3562" gradientUnits="userSpaceOnUse"> <stop stop-color="#5154F8"></stop> <stop offset="1" stop-color="#C72DD3"></stop> </linearGradient> <linearGradient id="paint4_linear_1520_2" x1="112.065" y1="112.189" x2="24.7562" y2="-16.9965" gradientUnits="userSpaceOnUse"> <stop stop-color="#584FFF"></stop> <stop offset="1" stop-color="#281FD2"></stop> </linearGradient> <linearGradient id="paint5_linear_1520_2" x1="112.065" y1="112.189" x2="24.7562" y2="-16.9965" gradientUnits="userSpaceOnUse"> <stop stop-color="#30CEB2"></stop> <stop offset="1" stop-color="#109494"></stop> </linearGradient> <linearGradient id="paint6_linear_1520_2" x1="112" y1="112" x2="21.9592" y2="-15.5068" gradientUnits="userSpaceOnUse"> <stop stop-color="#078FDE"></stop> <stop offset="1" stop-color="#59B9FF"></stop> </linearGradient> <linearGradient id="paint7_linear_1520_2" x1="85.5342" y1="100.11" x2="24.5479" y2="10.3562" gradientUnits="userSpaceOnUse"> <stop stop-color="#FF4130"></stop> <stop offset="1" stop-color="#D32D87"></stop> </linearGradient> <linearGradient id="paint8_linear_1520_2" x1="85.5342" y1="100.11" x2="24.5479" y2="10.3562" gradientUnits="userSpaceOnUse"> <stop stop-color="#7E3EF8"></stop> <stop offset="1" stop-color="#D031CE"></stop> </linearGradient> <linearGradient id="paint9_linear_1520_2" x1="0" y1="0" x2="112" y2="112" gradientUnits="userSpaceOnUse"> <stop stop-color="#6A92FF"></stop> <stop offset="1" stop-color="#2A5BDB"></stop> </linearGradient> <linearGradient id="paint10_linear_1520_2" x1="112" y1="112" x2="21.9592" y2="-15.5068" gradientUnits="userSpaceOnUse"> <stop stop-color="#F7B03E"></stop> <stop offset="1" stop-color="#FFD694"></stop> </linearGradient> <linearGradient id="paint11_linear_1520_2" x1="85.5342" y1="100.11" x2="24.5479" y2="10.3562" gradientUnits="userSpaceOnUse"> <stop stop-color="#428EFF"></stop> <stop offset="1" stop-color="#3178E1"></stop> </linearGradient> <linearGradient id="paint12_linear_1520_2" x1="0" y1="0" x2="112" y2="112" gradientUnits="userSpaceOnUse"> <stop stop-color="#FF5247"></stop> <stop offset="1" stop-color="#FFB247"></stop> </linearGradient> <linearGradient id="paint13_linear_1520_2" x1="0" y1="0" x2="112" y2="112" gradientUnits="userSpaceOnUse"> <stop stop-color="#7D26D3"></stop> <stop offset="1" stop-color="#F31EE2"></stop> </linearGradient> </defs> </svg> 