<?xml version="1.0" encoding="UTF-8"?> <svg xmlns="http://www.w3.org/2000/svg" width="32" height="32" viewBox="0 0 32 32" fill="none"> <g clip-path="url(#clip0_34_121)"> <path d="M31.4546 5.72182C31.3148 4.39644 30.7243 3.15921 29.7818 2.21699C28.8393 1.27478 27.6018 0.684713 26.2764 0.545458C19.4475 -0.186702 12.5598 -0.186702 5.73093 0.545458C4.40419 0.683146 3.16506 1.27252 2.22105 2.21488C1.27704 3.15723 0.68549 4.39533 0.545474 5.72182C-0.183615 12.5539 -0.183615 19.4442 0.545474 26.2764C0.684803 27.6021 1.27513 28.8397 2.21771 29.7823C3.16029 30.7249 4.39795 31.3152 5.72366 31.4545C12.5526 32.1867 19.4402 32.1867 26.2691 31.4545C27.5961 31.3168 28.8355 30.7271 29.7795 29.7844C30.7236 28.8417 31.3149 27.6032 31.4546 26.2764C32.1837 19.4442 32.1837 12.5539 31.4546 5.72182ZM24.7964 13.94H23.2364C22.0829 13.9417 20.951 13.6273 19.9637 13.0309V19.6182C19.964 20.8805 19.59 22.1145 18.889 23.1642C18.188 24.214 17.1914 25.0322 16.0253 25.5155C14.8592 25.9988 13.576 26.1255 12.3379 25.8794C11.0998 25.6334 9.96255 25.0257 9.06985 24.1333C8.17716 23.2408 7.56917 22.1037 7.32278 20.8657C7.07639 19.6277 7.20266 18.3444 7.68563 17.1782C8.1686 16.012 8.98658 15.0152 10.0361 14.3138C11.0856 13.6125 12.3196 13.2382 13.5818 13.2382H15.1455V16.3491H13.5873C12.94 16.3491 12.3073 16.541 11.7691 16.9006C11.2309 17.2603 10.8114 17.7714 10.5637 18.3694C10.316 18.9674 10.2512 19.6255 10.3774 20.2603C10.5037 20.8951 10.8154 21.4783 11.2731 21.936C11.7308 22.3937 12.314 22.7054 12.9488 22.8317C13.5837 22.9579 14.2417 22.8931 14.8397 22.6454C15.4377 22.3977 15.9489 21.9782 16.3085 21.4401C16.6681 20.9019 16.86 20.2691 16.86 19.6218V6H19.9746V7.56C19.9746 8.42798 20.3194 9.26042 20.9331 9.87417C21.5469 10.4879 22.3793 10.8327 23.2473 10.8327H24.8055L24.7964 13.94Z" fill="white"></path> </g> <defs> <clipPath id="clip0_34_121"> <rect width="32" height="32" fill="white"></rect> </clipPath> </defs> </svg> 