<?xml version="1.0" encoding="UTF-8"?> <svg xmlns="http://www.w3.org/2000/svg" width="212" height="220" viewBox="0 0 212 220" fill="none"> <g clip-path="url(#clip0)"> <rect width="44.0557" height="1.00111" transform="matrix(0.869817 0.493374 -0.496748 0.867895 75.7549 134.969)" fill="#1C9309"></rect> <rect width="63.0744" height="1.00077" rx="0.500383" transform="matrix(0.91225 -0.409633 0.412718 0.910859 78.7646 150.878)" fill="#1C9309"></rect> <path d="M171.891 62.045L124.132 34.7174C122.563 33.8187 121.139 33.7975 120.061 34.4689L114.063 37.9001L118.081 38.6402C118.081 38.8464 118.081 39.0473 118.081 39.2641V150.885C118.081 155.315 120.797 160.464 124.153 162.378L171.246 189.341L169.901 193.475L175.77 190.108C177.131 189.415 178 187.676 178 185.175V73.5385C177.968 69.1082 175.247 63.9641 171.891 62.045Z" fill="#1C9309"></path> <path d="M118.06 150.885C118.06 155.315 120.775 160.464 124.132 162.378L171.224 189.341L169.879 193.475L175.749 190.108C177.109 189.415 177.979 187.676 177.979 185.175V73.5385C177.917 71.0997 177.254 68.7129 176.047 66.5864L118.06 99.7506V150.885Z" fill="#38D748"></path> <path d="M165.872 193.169L118.113 165.841C114.757 163.922 112.041 158.773 112.041 154.342V42.7217C112.041 38.2913 114.757 36.2559 118.113 38.175L165.872 65.5026C169.228 67.4217 171.944 72.5658 171.944 77.0014V188.617C171.939 193.047 169.223 195.088 165.872 193.169Z" fill="#1C9309"></path> <path d="M119.932 73.1367L116.235 70.6149L114.789 65.9202L113.343 68.9601L112.03 68.3522V70.9374L112.452 71.593L112.03 73.4592V75.2356L114.789 74.8708L117.969 78.9258L117.126 74.2681L119.932 73.1367Z" fill="#38D748"></path> <path d="M164.977 189.473L119.09 163.214C116.598 161.786 114.576 157.958 114.576 154.665V44.6355C114.576 41.3418 116.598 39.8245 119.09 41.2519L164.977 67.5116C167.474 68.939 169.491 72.7614 169.491 76.0551V186.09C169.491 189.383 167.474 190.895 164.977 189.473Z" fill="white"></path> <path opacity="0.5" d="M146.206 155.68L123.679 142.791V88.5319L134.291 94.6012C137.914 96.6728 140.922 99.6527 143.013 103.241C145.105 106.83 146.206 110.901 146.206 115.045V155.68Z" fill="#EDEDED"></path> <path d="M115.623 83.2821C113.35 81.9393 110.191 82.1032 106.702 84.1016C99.7656 88.0508 94.1738 97.694 94.1738 105.598V111.302L94.4139 111.44L116.978 124.593L117.32 117.768L117.603 115.125L118.798 111.011L118.937 110.382L121.503 105.254L123.525 102.753L125.163 100.819L129.154 97.7046L129.506 97.4455L131.47 96.6102L134.111 95.9282H136.165L138.47 96.33L115.623 83.2821Z" fill="#ECFFDA"></path> <path d="M118.502 136.034L119.233 135.616V109.626C118.873 110.186 118.625 110.809 118.502 111.461V136.034Z" fill="#D4ECFF"></path> <path d="M141.306 149.045L118.502 136.023L118.737 111.429L119.606 108.944L122.248 104.445L125.369 100.776L128.186 98.5452L131.227 96.7106L136.75 96.0868L139.674 97.7257L141.306 100.2L141.819 104.001L141.643 145.117L141.306 149.045Z" fill="#ECFFDA"></path> <path d="M115.627 83.2874C113.722 82.1613 111.204 82.1032 108.387 83.2874L131.623 96.5785L134.115 95.9388H136.169L138.474 96.3406L115.622 83.2821L115.627 83.2874Z" fill="#1C9309"></path> <path d="M108.931 83.0653C108.16 83.3549 107.416 83.7086 106.706 84.1227C106.172 84.4134 105.697 84.7359 105.201 85.0849L128.369 98.3389L129.158 97.7204L129.51 97.4613L131.474 96.626L132.258 96.4251L108.931 83.0653Z" fill="#ECFFDA"></path> <path d="M125.366 100.665L128.514 98.2068L105.357 84.9581C104.281 85.7158 103.274 86.5649 102.348 87.4957L125.366 100.665Z" fill="white"></path> <path d="M142.039 148.627L141.308 149.045V104.71C141.329 97.2658 135.993 94.2681 129.511 97.9689C123.028 101.67 117.713 110.768 117.713 118.207V124.186L116.982 124.604V118.63C116.982 110.726 122.601 101.083 129.511 97.1283C136.42 93.1738 142.039 96.3829 142.039 104.313V148.627Z" fill="#1C9309"></path> <path d="M101.098 101.363L99.8121 106.565L100.452 114.966L98.825 114.014L96.7441 109.452L98.5689 103.679L101.098 101.363Z" fill="#D6F5B7"></path> <path d="M97.7679 183.087C97.2623 183.326 96.8434 183.713 96.5684 184.197C96.2933 184.68 96.1756 185.236 96.2312 185.788C96.239 186.236 96.3145 186.679 96.4553 187.105C96.7701 187.766 97.8052 188.691 99.4593 188.019C101.113 187.348 104.795 183.948 104.928 181.712C105.184 177.562 100.382 181.992 97.7679 183.087Z" fill="black"></path> <path d="M107.49 189.96C107.49 189.96 107.09 192.354 107.282 192.793C107.474 193.232 108.626 194.173 110.328 193.972C112.03 193.771 116.923 192.095 118.017 188.897C119.703 183.943 108.568 189.272 108.568 189.272L107.49 189.96Z" fill="black"></path> <path d="M112.27 151.641L112.649 189.077C112.654 189.677 112.453 190.261 112.078 190.732C111.704 191.204 111.179 191.536 110.589 191.672C110.445 191.699 110.296 191.715 110.13 191.731C109.707 191.794 109.274 191.742 108.878 191.58C108.483 191.417 108.139 191.152 107.884 190.811C107.569 190.367 107.395 189.841 107.382 189.299L106.897 173.317L104.49 159.042L101.156 184.334C101.14 184.662 101.05 184.982 100.892 185.271C100.734 185.559 100.512 185.808 100.243 186C99.7932 186.293 99.2604 186.435 98.7226 186.407C98.3358 186.391 97.9566 186.296 97.6092 186.127C97.2618 185.957 96.9541 185.718 96.7058 185.423C96.382 185.047 96.2092 184.565 96.2202 184.07L97.5435 168.812L98.0343 149.404L112.27 151.641Z" fill="#60B869"></path> <path d="M107.378 118.128L106.78 121.537C106.796 121.892 106.932 122.232 107.166 122.501C107.401 122.77 107.719 122.954 108.071 123.022C109.378 123.345 109.784 122.494 109.784 122.494L110.381 118.651L107.378 118.128Z" fill="#FFC2B0"></path> <path d="M114.607 116.256C113.674 119.18 110.792 120.877 108.167 120.047C105.542 119.217 104.176 116.177 105.104 113.253C106.033 110.329 108.919 108.632 111.539 109.462C114.159 110.292 115.536 113.338 114.607 116.256Z" fill="#FFC2B0"></path> <path d="M107.532 121.601C107.441 121.564 101.967 118.069 99.9448 121.728C96.6474 127.686 99.0591 134.517 97.8799 149.352C97.6825 151.836 101.252 153.348 102.938 154.305C104.43 155.175 106.122 155.652 107.852 155.69C109.56 155.69 112.841 154.194 112.724 151.99C112.19 141.797 113.081 133.211 113.924 124.874C113.924 124.863 112.873 123.742 107.532 121.601Z" fill="#1C9309"></path> <path d="M104.512 159.026L101.178 184.319C101.162 184.646 101.071 184.966 100.913 185.254C100.755 185.543 100.534 185.792 100.265 185.984C100.175 186.044 100.081 186.097 99.9824 186.142C100.671 185.614 102.693 164.403 103.066 162.04C103.44 159.677 104.512 159.026 104.512 159.026Z" fill="#50A759"></path> <path d="M125.285 124.688L129.868 115.674L128.427 114.776L123.679 121.643L125.285 124.688Z" fill="#FFC2B0"></path> <path d="M95.0527 115.119L97.283 105.069L99.0598 105.085L98.3928 113.422L95.0527 115.119Z" fill="#FFC2B0"></path> <path d="M113.925 124.863C113.925 124.863 119.053 126.867 123.455 121.363C123.539 121.251 123.65 121.161 123.777 121.102C123.905 121.044 124.046 121.017 124.187 121.026C124.327 121.035 124.463 121.079 124.583 121.154C124.702 121.228 124.8 121.331 124.869 121.453C125.264 122.357 125.76 123.716 125.162 125C122.495 130.657 113.424 130.462 111.226 133.634C109.027 136.806 113.925 124.863 113.925 124.863Z" fill="#1C9309"></path> <path d="M104.06 120.348C104.06 120.348 99.8284 120.67 99.2202 117.038C98.999 115.84 98.8564 114.628 98.7933 113.412C98.7919 113.309 98.7687 113.208 98.7251 113.116C98.6815 113.023 98.6186 112.94 98.5405 112.873C98.4623 112.806 98.3707 112.757 98.2718 112.727C98.1728 112.698 98.0687 112.69 97.9663 112.703C96.9525 112.825 95.3838 113.126 95.1704 113.798C94.8503 114.802 94.2527 119.735 98.4358 127.295C101.173 132.249 104.06 120.348 104.06 120.348Z" fill="#1C9309"></path> <path d="M97.2715 105.09L97.3142 103.948C97.3291 103.542 97.4485 103.147 97.6609 102.801L98.8346 100.892L99.1387 100.512C99.2739 100.341 99.4686 100.226 99.6847 100.19C99.9008 100.154 100.123 100.199 100.307 100.316L100.579 100.48C100.75 100.584 100.889 100.732 100.983 100.908C101.077 101.083 101.122 101.281 101.113 101.479L100.504 103.113L101.273 102.965C101.308 102.958 101.345 102.958 101.38 102.965C101.415 102.972 101.449 102.986 101.479 103.007C101.508 103.027 101.534 103.053 101.553 103.083C101.573 103.113 101.586 103.146 101.593 103.181C101.603 103.243 101.592 103.305 101.561 103.359C101.53 103.413 101.481 103.455 101.422 103.477L100.174 104.006L99.0373 105.592L97.2715 105.09Z" fill="#FFC2B0"></path> <path d="M129.899 115.732L130.433 114.717C130.621 114.359 130.713 113.958 130.7 113.554L130.636 111.318L130.556 110.837C130.523 110.622 130.411 110.427 130.241 110.29C130.072 110.152 129.857 110.081 129.638 110.092H129.318C129.119 110.1 128.927 110.161 128.76 110.269C128.594 110.377 128.46 110.528 128.374 110.705L128.086 112.418L127.493 111.889C127.466 111.866 127.434 111.849 127.4 111.838C127.366 111.827 127.33 111.823 127.295 111.826C127.259 111.829 127.224 111.839 127.192 111.855C127.161 111.871 127.132 111.893 127.109 111.921C127.069 111.969 127.047 112.03 127.047 112.092C127.047 112.155 127.069 112.216 127.109 112.264L127.947 113.321L128.166 115.505L129.899 115.732Z" fill="#FFC2B0"></path> <path d="M110.58 132.497C110.137 134.511 112.821 149.695 109.838 155.23C111.327 154.628 112.805 153.459 112.724 151.958C112.41 145.321 112.577 138.671 113.226 132.058C115.776 130.779 119.768 130.012 122.585 127.966C119.559 129.092 110.98 130.705 110.58 132.497Z" fill="#38D748"></path> <path d="M105.58 120.639L106.343 119.862C106.343 119.862 107.591 121.13 108.594 121.347C109.184 121.519 109.787 121.642 110.398 121.717L110.883 123.054C110.883 123.054 106.887 122.769 105.58 120.639Z" fill="white"></path> <path d="M111.038 116.351C111.143 116.351 111.245 116.327 111.338 116.28C111.431 116.233 111.511 116.165 111.572 116.082C111.78 115.78 111.647 114.411 112.287 114.184C113.29 113.829 115.664 115.072 115.915 111.493C116.049 109.637 115.136 109.14 115.142 108.12C115.142 108.12 115.216 108.648 110.387 108.315C105.559 107.982 103.985 112.243 103.873 114.268C103.761 116.293 104.748 119.624 108.05 120.084C108.584 120.158 110.894 118.328 110.836 118.085C110.777 117.842 109.907 117.863 110.035 117.16C110.047 117.041 110.082 116.926 110.138 116.821C110.195 116.716 110.272 116.623 110.366 116.547C110.459 116.472 110.567 116.416 110.682 116.382C110.798 116.349 110.919 116.338 111.038 116.351Z" fill="black"></path> <path d="M135.812 73.1209L121.219 64.7836C120.861 64.5306 120.568 64.1979 120.364 63.8121C120.161 63.4264 120.051 62.9985 120.045 62.5631V51.8097C120.045 50.9533 120.578 50.562 121.219 50.9321L135.812 59.28C136.169 59.5335 136.461 59.8664 136.665 60.252C136.869 60.6376 136.979 61.0652 136.986 61.5005V72.2539C136.986 73.1209 136.457 73.5015 135.812 73.1209Z" fill="#EDEDED"></path> <path d="M134.392 56.0761L119.773 47.7441C119.664 47.6691 119.537 47.6242 119.405 47.614C119.272 47.6038 119.14 47.6286 119.02 47.686L117.606 48.4949L118.599 48.8544V59.3751C118.606 59.8104 118.716 60.2379 118.92 60.6235C119.123 61.0091 119.416 61.3421 119.773 61.5956L133.72 69.5787V70.7947L135.15 69.9805C135.29 69.8728 135.4 69.7311 135.47 69.5691C135.539 69.407 135.565 69.2301 135.545 69.0553V58.3178C135.545 57.8806 135.44 57.4497 135.24 57.0601C135.039 56.6706 134.749 56.3335 134.392 56.0761Z" fill="#38D748"></path> <path d="M132.926 70.7524L118.333 62.4045C117.976 62.151 117.684 61.818 117.48 61.4324C117.276 61.0468 117.166 60.6193 117.159 60.184V49.4306C117.159 48.5742 117.693 48.1829 118.333 48.553L132.926 56.9009C133.284 57.1538 133.576 57.4866 133.78 57.8724C133.984 58.2581 134.094 58.686 134.1 59.1214V69.8748C134.1 70.7312 133.577 71.1224 132.926 70.7524Z" fill="#1C9309"></path> <path d="M132.925 56.9009L118.332 48.5531C118.199 48.4519 118.034 48.402 117.867 48.4127C117.7 48.4234 117.543 48.494 117.425 48.6112C117.612 48.5998 117.798 48.646 117.958 48.7434L132.551 57.0913C132.908 57.3448 133.201 57.6777 133.405 58.0633C133.608 58.4489 133.718 58.8765 133.725 59.3117V70.0651C133.745 70.362 133.649 70.655 133.458 70.8846C133.848 70.8529 134.115 70.4828 134.115 69.8748V59.1214C134.107 58.6846 133.995 58.2559 133.788 57.87C133.581 57.4842 133.286 57.1522 132.925 56.9009Z" fill="white"></path> <path d="M123.241 58.6982C123.241 59.3219 122.798 59.5757 122.254 59.2638C121.968 59.0781 121.73 58.8282 121.559 58.5343C121.389 58.2404 121.29 57.9108 121.272 57.5722C121.272 56.9537 121.71 56.7 122.254 57.0119C122.541 57.1964 122.779 57.4453 122.951 57.7382C123.122 58.0312 123.222 58.36 123.241 58.6982Z" fill="white"></path> <path d="M126.224 60.4323C126.224 61.056 125.782 61.3045 125.237 60.9979C124.951 60.8122 124.713 60.5623 124.543 60.2684C124.372 59.9745 124.274 59.6449 124.256 59.3063C124.256 58.6826 124.693 58.4341 125.237 58.7407C125.524 58.9261 125.763 59.1758 125.935 59.4697C126.106 59.7636 126.205 60.0933 126.224 60.4323Z" fill="white"></path> <path d="M129.205 62.1135C129.205 62.7319 128.762 62.9857 128.218 62.6738C127.932 62.4893 127.694 62.2403 127.523 61.9473C127.352 61.6542 127.254 61.3254 127.236 60.9875C127.236 60.3638 127.674 60.11 128.218 60.4219C128.505 60.6073 128.744 60.857 128.915 61.1509C129.087 61.4448 129.186 61.7745 129.205 62.1135Z" fill="white"></path> <path opacity="0.5" d="M164.848 129.885L150.255 121.538C149.898 121.282 149.607 120.948 149.403 120.562C149.199 120.176 149.089 119.748 149.081 119.312V95.1193C149.081 94.2629 149.615 93.8664 150.255 94.2364L164.848 102.584C165.206 102.838 165.498 103.172 165.702 103.559C165.906 103.945 166.016 104.374 166.022 104.81V129.003C166.022 129.859 165.499 130.256 164.848 129.885Z" fill="#EDEDED"></path> <path d="M163.402 99.3805L148.798 91.0379C148.689 90.9611 148.562 90.9147 148.428 90.9035C148.295 90.8923 148.161 90.9168 148.041 90.9745L146.664 91.7781L147.662 92.1376V116.108C147.667 116.544 147.776 116.973 147.98 117.36C148.184 117.747 148.477 118.08 148.836 118.334L162.783 126.312V127.575L164.213 126.756C164.352 126.647 164.461 126.505 164.531 126.343C164.601 126.182 164.629 126.005 164.613 125.83V101.606C164.602 101.167 164.486 100.737 164.276 100.35C164.066 99.9633 163.766 99.6312 163.402 99.3805Z" fill="#1C9309"></path> <path d="M161.962 127.506L147.369 119.158C147.013 118.903 146.721 118.569 146.517 118.183C146.313 117.797 146.203 117.368 146.195 116.933V92.7402C146.195 91.8837 146.729 91.4872 147.369 91.8573L161.962 100.205C162.32 100.459 162.613 100.793 162.817 101.18C163.02 101.566 163.13 101.995 163.136 102.431V126.623C163.136 127.48 162.613 127.876 161.962 127.506Z" fill="#ECFFDA"></path> <path d="M161.962 100.205L147.369 91.8573C147.236 91.7568 147.07 91.7078 146.903 91.7195C146.736 91.7311 146.579 91.8027 146.462 91.9207C146.649 91.9045 146.836 91.949 146.995 92.0476L161.588 100.396C161.946 100.65 162.238 100.984 162.442 101.37C162.646 101.757 162.756 102.185 162.762 102.621V126.814C162.783 127.111 162.687 127.404 162.496 127.633C162.885 127.601 163.152 127.237 163.152 126.623V102.431C163.144 101.993 163.032 101.564 162.825 101.177C162.618 100.791 162.323 100.458 161.962 100.205Z" fill="white"></path> <path d="M164.848 162.574L150.255 154.226C149.898 153.972 149.606 153.639 149.402 153.254C149.198 152.868 149.088 152.441 149.081 152.005V127.808C149.081 126.951 149.615 126.555 150.255 126.93L164.848 135.278C165.206 135.531 165.498 135.864 165.702 136.249C165.906 136.635 166.016 137.063 166.022 137.498V161.696C166.022 162.553 165.499 162.944 164.848 162.574Z" fill="#EDEDED"></path> <path d="M163.402 132.074L148.798 123.726C148.689 123.65 148.561 123.604 148.428 123.594C148.294 123.584 148.161 123.609 148.041 123.668L146.664 124.466L147.662 124.826V148.802C147.668 149.237 147.777 149.665 147.981 150.051C148.185 150.436 148.478 150.769 148.836 151.022L162.783 159V160.237L164.213 159.423C164.352 159.314 164.461 159.172 164.531 159.01C164.601 158.849 164.629 158.673 164.613 158.498V134.295C164.603 133.856 164.488 133.426 164.277 133.04C164.066 132.654 163.767 132.323 163.402 132.074Z" fill="#38D748"></path> <path d="M161.962 160.195L147.369 151.847C147.012 151.593 146.72 151.26 146.516 150.875C146.312 150.489 146.202 150.062 146.195 149.626V125.429C146.195 124.572 146.729 124.176 147.369 124.551L161.962 132.899C162.32 133.152 162.613 133.485 162.816 133.87C163.02 134.256 163.13 134.684 163.136 135.119V159.296C163.136 160.174 162.613 160.565 161.962 160.195Z" fill="#1C9309"></path> <path d="M161.962 132.899L147.369 124.551C147.236 124.45 147.071 124.4 146.904 124.411C146.737 124.421 146.58 124.492 146.462 124.609C146.649 124.595 146.837 124.642 146.995 124.741L161.588 133.089C161.946 133.342 162.239 133.675 162.443 134.061C162.647 134.446 162.756 134.874 162.762 135.31V159.507C162.782 159.804 162.686 160.097 162.496 160.327C162.885 160.295 163.152 159.925 163.152 159.317V135.119C163.144 134.683 163.032 134.254 162.825 133.868C162.618 133.482 162.323 133.15 161.962 132.899Z" fill="white"></path> <path d="M156.801 140.177C156.801 141.519 155.846 142.064 154.667 141.393C154.047 140.993 153.53 140.454 153.159 139.819C152.788 139.185 152.574 138.472 152.533 137.74C152.533 136.397 153.488 135.853 154.667 136.524C155.288 136.924 155.804 137.463 156.175 138.097C156.546 138.732 156.76 139.445 156.801 140.177Z" fill="#38D748"></path> <path d="M157.681 143.979C157.684 143.957 157.684 143.936 157.681 143.915C157.591 143.349 157.052 142.858 156.694 142.979C156.354 143.072 155.996 143.09 155.648 143.031C155.3 142.973 154.968 142.84 154.677 142.641C153.864 142.143 153.174 141.469 152.661 140.669C152.303 140.14 151.759 140.013 151.668 140.473C151.668 140.473 151.668 140.51 151.668 140.526L150.654 146.87L158.706 151.475L157.681 143.979Z" fill="#38D748"></path> <path d="M156.801 140.177C156.801 141.519 155.846 142.064 154.667 141.393C154.047 140.993 153.53 140.454 153.159 139.819C152.788 139.185 152.574 138.472 152.533 137.74C152.533 136.397 153.488 135.853 154.667 136.524C155.288 136.924 155.804 137.463 156.175 138.097C156.546 138.732 156.76 139.445 156.801 140.177Z" fill="white"></path> <path d="M157.681 143.979C157.684 143.957 157.684 143.936 157.681 143.915C157.591 143.349 157.052 142.858 156.694 142.979C156.354 143.072 155.996 143.09 155.648 143.031C155.3 142.973 154.968 142.84 154.677 142.641C153.864 142.143 153.174 141.469 152.661 140.669C152.303 140.14 151.759 140.013 151.668 140.473C151.668 140.473 151.668 140.51 151.668 140.526L150.654 146.87L158.706 151.475L157.681 143.979Z" fill="white"></path> <path d="M159.288 105.672L149.508 100.078V99.3804L159.288 104.974V105.672Z" fill="#1C9309"></path> <path d="M156.331 107.03L149.508 103.129V102.431L156.331 106.332V107.03Z" fill="#1C9309"></path> <path d="M155.414 104.979L149.508 101.601V100.903L155.414 104.281V104.979Z" fill="#1C9309"></path> <path d="M159.289 107.194L156.333 105.508V104.81L159.289 106.496V107.194Z" fill="#1C9309"></path> <path d="M159.288 111.561L149.508 105.968V105.27L159.288 110.863V111.561Z" fill="#1C9309"></path> <path d="M156.331 112.925L149.508 109.018V108.32L156.331 112.227V112.925Z" fill="#1C9309"></path> <path d="M155.414 110.873L149.508 107.496V106.798L155.414 110.176V110.873Z" fill="#1C9309"></path> <path d="M159.289 113.084L156.333 111.397V110.7L159.289 112.391V113.084Z" fill="#1C9309"></path> <path d="M159.288 117.451L149.508 111.863V111.165L159.288 116.753V117.451Z" fill="#1C9309"></path> <path d="M156.331 118.814L149.508 114.908V114.21L156.331 118.116V118.814Z" fill="#1C9309"></path> <path d="M155.414 116.763L149.508 113.385V112.687L155.414 116.065V116.763Z" fill="#1C9309"></path> <path d="M159.289 118.978L156.333 117.287V116.589L159.289 118.281V118.978Z" fill="#1C9309"></path> <path d="M79.342 151.635C79.4584 151.634 79.5713 151.595 79.6633 151.525C79.7554 151.454 79.8216 151.355 79.8518 151.244C79.8821 151.133 79.8747 151.014 79.8308 150.908C79.7869 150.801 79.7089 150.711 79.6088 150.652L71.6427 146.026C71.1198 145.717 70.5225 145.555 69.9139 145.555C69.3053 145.555 68.708 145.717 68.1852 146.026L61.601 149.922C61.4942 149.999 61.42 150.113 61.3927 150.241C61.3655 150.369 61.3872 150.503 61.4536 150.616C61.5199 150.729 61.6263 150.814 61.7521 150.854C61.8779 150.893 62.0142 150.886 62.1346 150.832L68.7187 146.93C69.0778 146.721 69.4867 146.611 69.9033 146.611C70.3198 146.611 70.7287 146.721 71.0878 146.93L79.0539 151.561C79.1409 151.613 79.2408 151.638 79.342 151.635Z" fill="#1C9309"></path> <path d="M52.8184 93.993C53.0927 94.1314 53.3962 94.2035 53.704 94.2035C54.0118 94.2035 54.3153 94.1314 54.5896 93.993C54.6983 93.9596 54.7934 93.8925 54.8609 93.8017C54.9284 93.7109 54.9648 93.601 54.9648 93.4882C54.9648 93.3754 54.9284 93.2656 54.8609 93.1747C54.7934 93.0839 54.6983 93.0168 54.5896 92.9834C54.3153 92.8451 54.0118 92.7729 53.704 92.7729C53.3962 92.7729 53.0927 92.8451 52.8184 92.9834C52.7097 93.0168 52.6146 93.0839 52.5471 93.1747C52.4796 93.2656 52.4431 93.3754 52.4431 93.4882C52.4431 93.601 52.4796 93.7109 52.5471 93.8017C52.6146 93.8925 52.7097 93.9596 52.8184 93.993Z" fill="#5793CE"></path> <path d="M66.2647 82.8377L62.2209 80.5118L64.4829 79.4968L66.4248 80.8606L66.2647 82.8377Z" fill="url(#paint0_radial)"></path> <path d="M47.1525 83.9431V83.8109C47.1752 83.6163 47.2693 83.4369 47.4169 83.3066C47.5644 83.1763 47.7552 83.1043 47.9528 83.1043C48.1505 83.1043 48.3413 83.1763 48.4888 83.3066C48.6364 83.4369 48.7305 83.6163 48.7532 83.8109V83.9431C48.7532 85.0004 49.0893 85.7829 49.6869 86.0578C50.2845 86.3327 51.373 86.1424 52.4134 85.3916L61.0305 79.1321C62.3591 78.1699 63.6983 77.8209 64.8562 78.1223L57.7384 74.0303L65.9873 78.7884L64.9202 79.1426L60.753 81.0142L55.0813 85.0004L50.6047 87.3531L50.4019 87.4006C49.3348 86.5283 48.1876 85.7776 47.5473 84.5087C47.4362 84.3197 47.3057 84.1425 47.1578 83.9801C47.1578 83.9801 47.1525 83.9589 47.1525 83.9431Z" fill="#5793CE"></path> <path d="M54.8292 73.4592L55.5708 73.0363H63.6864L67.6881 75.3202L68.6592 75.1933V76.1555C68.6584 76.2272 68.6368 76.2972 68.5971 76.3571C68.5574 76.4171 68.5011 76.4645 68.4351 76.4938L56.6593 83.2557C56.4519 83.3603 56.2187 83.4043 55.987 83.3826L54.8292 73.4592Z" fill="#396CAA"></path> <path d="M68.227 75.2514L68.6592 75.1933V76.1554C68.6584 76.2271 68.6368 76.2971 68.5971 76.357C68.5574 76.417 68.5012 76.4644 68.4351 76.4937L68.227 76.61V75.2514Z" fill="#5793CE"></path> <path d="M56.542 83.2872C56.1781 83.4015 55.7843 83.377 55.4377 83.2185V81.5851H56.542V83.2872Z" fill="#274F89"></path> <path d="M57.0591 82.9174L58.0462 81.6697L68.4294 75.7115C68.6126 75.5807 68.7625 75.4094 68.8672 75.2112C68.9718 75.0129 69.0284 74.7932 69.0323 74.5695V66.1423L69.6299 65.3704L69.0696 65.0479C69.0082 65.0094 68.9369 64.989 68.8642 64.989C68.7915 64.989 68.7203 65.0094 68.6588 65.0479L56.8937 71.7992C56.7096 71.9291 56.559 72.1002 56.4542 72.2986C56.3494 72.4971 56.2934 72.7172 56.2908 72.9412V82.1138C56.2796 82.2076 56.294 82.3028 56.3324 82.3892C56.3709 82.4757 56.432 82.5504 56.5095 82.6055L57.0591 82.9174Z" fill="#173D7A"></path> <path d="M69.3534 65.6876L69.6201 65.344L69.0599 65.0215C68.9985 64.983 68.9273 64.9625 68.8545 64.9625C68.7818 64.9625 68.7106 64.983 68.6491 65.0215L68.4464 65.1378L69.3534 65.6876Z" fill="#5793CE"></path> <path d="M53.682 110.007C54.0075 110.007 54.3196 109.879 54.5497 109.651C54.7799 109.423 54.9092 109.114 54.9092 108.791V93.4593H52.4548V108.791C52.4548 109.114 52.5841 109.423 52.8142 109.651C53.0444 109.879 53.3565 110.007 53.682 110.007Z" fill="#494949"></path> <path d="M53.6824 93.9668C53.9461 93.9654 54.1985 93.8606 54.3845 93.6754C54.5704 93.4901 54.6748 93.2395 54.6748 92.9782V78.5452H52.69V92.9782C52.69 93.2395 52.7943 93.4901 52.9803 93.6754C53.1663 93.8606 53.4187 93.9654 53.6824 93.9668Z" fill="#DCDCDC"></path> <path d="M40.2909 79.3805C40.5258 79.2562 40.7522 79.1167 40.9685 78.9628L49.5856 72.6821C51.1436 71.5507 52.7443 71.2599 53.9875 71.8838L54.0782 71.9366L65.9873 78.7778L64.9202 79.132L60.753 81.0035L55.0813 84.9898L50.6047 87.3477L50.4019 87.39C49.3348 86.5177 48.1876 85.767 47.5473 84.4981C46.4375 82.579 43.3535 82.0292 41.5394 80.4696C41.358 80.5859 41.1712 80.6916 41.0058 80.7868C40.6758 80.3696 40.4327 79.8916 40.2909 79.3805Z" fill="#616161"></path> <path d="M36.5059 76.5573C36.6824 76.5576 36.8536 76.6172 36.9914 76.7265L48.6391 83.409L48.2123 85.1325L47.7747 84.9263C48.4417 85.9837 49.4661 86.634 50.3945 87.4112L49.0766 87.6861L37.669 81.1093L37.509 81.0405C37.3562 80.9602 37.21 80.8683 37.0715 80.7656C36.2018 80.1048 35.7109 78.947 35.7109 77.5037V77.3662C35.7088 77.2612 35.7277 77.1568 35.7666 77.0591C35.8056 76.9614 35.8637 76.8723 35.9377 76.797C36.0117 76.7218 36.1 76.6618 36.1975 76.6207C36.2951 76.5795 36.3999 76.558 36.5059 76.5573Z" fill="#494949"></path> <path d="M50.6092 88.0721C51.7019 88.0202 52.7507 87.63 53.6078 86.9565L62.2303 80.6969C63.2654 79.9409 64.2845 79.6977 64.9568 80.0308C65.6291 80.3639 65.8905 81.0882 65.8905 82.1455C65.8905 82.3558 65.9748 82.5576 66.1249 82.7063C66.275 82.855 66.4786 82.9385 66.6909 82.9385C66.9031 82.9385 67.1067 82.855 67.2568 82.7063C67.4069 82.5576 67.4912 82.3558 67.4912 82.1455C67.4912 80.4696 66.8296 79.1743 65.6771 78.5981C64.4392 77.9742 62.8385 78.265 61.2805 79.3964L52.6634 85.656C51.623 86.4067 50.6039 86.6552 49.9369 86.3168C49.27 85.9785 49.0032 85.2595 49.0032 84.2021V84.0646C49.0032 83.8543 48.9189 83.6526 48.7688 83.5039C48.6187 83.3552 48.4151 83.2716 48.2029 83.2716C47.9906 83.2716 47.787 83.3552 47.6369 83.5039C47.4868 83.6526 47.4025 83.8543 47.4025 84.0646V84.2021C47.4025 85.8833 48.0588 87.1733 49.2113 87.7548C49.6458 87.9676 50.1246 88.0762 50.6092 88.0721Z" fill="#DCDCDC"></path> <path d="M57.3792 102.066C57.3792 102.066 59.0066 101.257 59.999 102.463C60.9915 103.668 62.4214 106.518 62.4854 108.447C62.5495 110.377 60.9434 110.245 60.0044 109.79C59.0653 109.336 56.3121 105.381 56.1467 104.609C56.0843 104.258 56.0932 103.898 56.1729 103.55C56.2526 103.203 56.4015 102.874 56.6109 102.584C56.8563 102.378 57.3792 102.066 57.3792 102.066Z" fill="black"></path> <path d="M57.0287 101.68L56.954 103.345C56.945 103.519 56.9846 103.692 57.0684 103.845C57.1521 103.998 57.2768 104.125 57.4288 104.212C57.8116 104.418 58.255 104.486 58.6825 104.403C59.9042 104.212 60.0109 103.874 60.1016 102.198C60.1923 100.523 57.0287 101.68 57.0287 101.68Z" fill="#FFC2B0"></path> <path d="M63.324 98.8624C63.324 98.8624 64.9247 98.0535 65.9438 99.2589C66.9629 100.464 68.3555 103.346 68.4088 105.244C68.4622 107.142 66.8722 107.041 65.9331 106.586C64.994 106.132 62.2408 102.177 62.0754 101.405C62.0131 101.055 62.0216 100.695 62.1004 100.347C62.1791 99.9999 62.3266 99.6713 62.5343 99.3805C62.8011 99.1743 63.324 98.8624 63.324 98.8624Z" fill="black"></path> <path d="M62.9727 98.4764L62.898 100.142C62.8878 100.316 62.9269 100.489 63.0108 100.642C63.0947 100.795 63.22 100.922 63.3728 101.008C63.7539 101.214 64.1954 101.281 64.6212 101.199C65.8482 101.003 65.9549 100.67 66.0403 98.9944C66.1256 97.3188 62.9727 98.4764 62.9727 98.4764Z" fill="#FFC2B0"></path> <path d="M48.4859 67.8763C48.9661 60.1311 56.9536 69.0183 56.9536 69.0183L62.4173 74.3051L67.3367 79.6606C67.8123 80.1778 68.1685 80.7915 68.3804 81.4589C68.5923 82.1263 68.655 82.8315 68.5639 83.5253L66.5684 98.5875C66.5225 98.9462 66.3447 99.2756 66.0691 99.5126C65.7935 99.7496 65.4393 99.8776 65.0744 99.8722C64.8277 99.8692 64.5816 99.8479 64.3381 99.8087C63.8634 99.7579 63.4271 99.5269 63.1207 99.1641C62.8143 98.8013 62.6616 98.3351 62.6947 97.8632L63.0575 83.7844L52.7224 77.6094C52.7224 77.6094 48.0057 75.6268 48.4859 67.8763Z" fill="#60B869"></path> <path d="M42.5411 70.8317C43.0213 63.0813 51.0088 71.9684 51.0088 71.9684L56.4725 77.2552L61.4186 82.6372C61.8931 83.1538 62.2483 83.7668 62.4593 84.4333C62.6703 85.0998 62.7321 85.8039 62.6405 86.4966L60.6503 101.522C60.601 101.879 60.422 102.205 60.147 102.441C59.872 102.676 59.5198 102.804 59.1563 102.801C58.9078 102.798 58.6599 102.777 58.4146 102.738C57.9405 102.686 57.505 102.454 57.1988 102.092C56.8927 101.729 56.7395 101.264 56.7713 100.792L57.1341 86.7398L46.799 80.5648C46.799 80.5648 42.0609 78.5769 42.5411 70.8317Z" fill="#60B869"></path> <path d="M47.2689 45.9625C41.213 48.4526 41.3357 51.9948 41.3357 51.9948C41.3357 51.9948 42.5202 65.0003 42.1147 73.6707C41.944 77.2975 61.5791 77.5777 58.6552 67.8922C55.203 56.478 56.4942 47.2313 54.8829 45.8356C53.2715 44.4399 48.8323 45.3228 47.2689 45.9625Z" fill="#1C9309"></path> <path d="M45.3331 49.0989C45.0165 47.8803 46.1129 46.5473 47.7821 46.1214C49.4513 45.6955 51.0611 46.3381 51.3778 47.5566C51.6945 48.7751 50.598 50.1082 48.9288 50.5341C47.2596 50.96 45.6498 50.3174 45.3331 49.0989Z" fill="#FFC2B0"></path> <path d="M47.8838 50.9578C48.2563 50.9587 48.6274 50.9125 48.9882 50.8204C49.8192 50.6249 50.5664 50.1733 51.1221 49.5306C51.3688 49.2572 51.5459 48.9294 51.6387 48.5745C51.7315 48.2195 51.7373 47.8477 51.6556 47.4901C51.2982 46.121 49.5216 45.3757 47.7024 45.8514C46.8719 46.0483 46.1252 46.4996 45.5685 47.1412C45.312 47.4073 45.128 47.7335 45.0336 48.0892C44.9391 48.445 44.9374 48.8187 45.0286 49.1753C45.1198 49.5319 45.3009 49.8597 45.5548 50.128C45.8088 50.3964 46.1274 50.5964 46.4807 50.7094C46.9285 50.879 47.4045 50.9633 47.8838 50.9578ZM48.8068 46.2849C49.9324 46.2849 50.8714 46.8135 51.0848 47.6381C51.1443 47.9076 51.137 48.1873 51.0636 48.4533C50.9902 48.7194 50.8529 48.9638 50.6633 49.1658C50.181 49.7021 49.5488 50.0844 48.8469 50.2641C48.145 50.4439 47.405 50.413 46.7208 50.1755C46.4564 50.0878 46.2168 49.939 46.022 49.7414C45.8272 49.5437 45.6827 49.3029 45.6005 49.0389C45.543 48.7691 45.5518 48.4894 45.6261 48.2236C45.7003 47.9578 45.8379 47.7135 46.0273 47.5113C46.4984 46.9628 47.1338 46.5776 47.8411 46.4118C48.1568 46.3319 48.481 46.2893 48.8068 46.2849Z" fill="white"></path> <path d="M49.6805 45.7191C49.651 46.4243 49.6689 47.1307 49.7339 47.8336C49.7712 48.4309 47.6586 48.9912 47.1091 48.4468C46.5596 47.9023 46.7837 47.3472 46.6503 45.3121C46.5169 43.2769 49.6805 45.7191 49.6805 45.7191Z" fill="#FFC2B0"></path> <path d="M46.6605 45.3123C46.6605 45.3123 47.194 47.1994 49.7441 47.9236L49.7068 46.2056L46.6605 45.3123Z" fill="#EA9C92"></path> <path d="M45.0378 40.5224C44.8076 41.4062 44.8471 42.3377 45.1511 43.1993C45.4552 44.0608 46.0102 44.8137 46.746 45.3628C47.4819 45.9118 48.3655 46.2323 49.2852 46.2839C50.2048 46.3354 51.1193 46.1155 51.9129 45.6522C52.7065 45.1888 53.3436 44.5027 53.7437 43.6805C54.1438 42.8584 54.2889 41.9372 54.1607 41.0334C54.0325 40.1296 53.6367 39.2837 53.0234 38.6027C52.41 37.9217 51.6067 37.4362 50.7149 37.2076C50.1225 37.0557 49.5057 37.021 48.8997 37.1054C48.2937 37.1898 47.7104 37.3916 47.1832 37.6995C46.656 38.0073 46.1952 38.4151 45.827 38.8994C45.4589 39.3838 45.1907 39.9353 45.0378 40.5224Z" fill="#FFC2B0"></path> <path d="M48.4812 41.8439C48.4812 41.8439 51.0473 42.9329 52.8238 42.9487C54.6003 42.9646 54.2109 41.4845 54.2109 41.4845L48.9346 40.7286L48.4812 41.8439Z" fill="#EA9C92"></path> <path d="M53.3508 42.1348C53.3508 42.1348 51.1152 41.1938 49.157 41.6061C48.6922 41.695 48.2733 41.9418 47.9725 42.304C47.8831 42.4271 47.7558 42.518 47.6096 42.5631C47.2628 42.6371 46.6972 41.2096 46.0089 41.1779C45.3206 41.1462 44.8831 41.6167 45.438 42.4996C45.9929 43.3825 45.8009 44.3606 45.5501 44.5033C45.2993 44.6461 42.5888 42.5895 44.9738 37.9054C47.3589 33.2212 53.4148 35.7272 54.3752 36.6735C54.3752 36.6735 55.3677 37.53 56.1734 36.7687C56.1734 36.7687 57.0804 43.4882 53.3508 42.1348Z" fill="black"></path> <path d="M44.7287 61.4952V65.0109C44.7293 65.2097 44.7713 65.4062 44.8521 65.5882C44.9329 65.7701 45.0508 65.9336 45.1983 66.0683L52.4814 72.6451L51.6544 73.8981L42.0503 66.9882C41.8281 66.8288 41.6421 66.6251 41.5043 66.3902C41.3664 66.1553 41.2798 65.8943 41.2499 65.6242L40.6096 59.4968L44.7287 61.4952Z" fill="#FFC2B0"></path> <path d="M41.8488 50.2395C41.8488 50.2395 39.6345 53.5332 38.8128 62.1983C38.8128 62.1983 42.5904 63.409 44.73 62.727C46.8696 62.045 41.8488 50.2395 41.8488 50.2395Z" fill="#1C9309"></path> <path d="M45.1351 54.4055C45.5659 56.6338 45.8705 58.8842 46.0474 61.1462C46.0544 61.4348 45.9703 61.7183 45.8067 61.9572C45.6431 62.1961 45.4083 62.3783 45.1351 62.4785V54.4055Z" fill="#38D748"></path> <path d="M47.0133 77.2129L48.614 77.0014L59.0025 71.059C59.2085 70.9663 59.4337 70.9227 59.6598 70.9319C59.8859 70.9411 60.1067 71.0028 60.3044 71.1119L67.6676 75.3414L68.6387 75.2145V76.1767C68.6378 76.2484 68.6163 76.3184 68.5766 76.3783C68.5369 76.4383 68.4806 76.4857 68.4146 76.515L56.6601 83.2557C56.4541 83.3485 56.229 83.392 56.0028 83.3828C55.7767 83.3736 55.556 83.312 55.3583 83.2028L47.3548 78.6192C47.2682 78.5811 47.1934 78.5209 47.1381 78.4447C47.0828 78.3685 47.0489 78.2791 47.04 78.1857L47.0133 77.2129Z" fill="black"></path> <path d="M56.6593 82.2724L68.435 75.5317C68.7712 75.3413 68.7285 75.003 68.3443 74.7915L60.3409 70.2026C60.1428 70.0946 59.9221 70.0336 59.6962 70.0245C59.4703 70.0153 59.2453 70.0582 59.039 70.1497L47.2472 76.9115C46.9164 77.1019 46.9537 77.4402 47.3379 77.6517L55.3414 82.2406C55.5432 82.3478 55.7676 82.4065 55.9965 82.412C56.2254 82.4176 56.4524 82.3697 56.6593 82.2724Z" fill="white"></path> <path d="M56.8576 81.252L66.6538 75.648C66.9259 75.4894 66.8939 75.2145 66.5738 75.0294L62.2786 72.6345C62.1157 72.5475 61.9349 72.4985 61.75 72.4911C61.5651 72.4838 61.3809 72.5184 61.2115 72.5922L51.4206 78.191C51.1431 78.3496 51.1752 78.6298 51.4953 78.8095L55.7958 81.2044C55.957 81.2934 56.1368 81.344 56.3211 81.3522C56.5053 81.3605 56.689 81.3262 56.8576 81.252Z" fill="#DCDCDC"></path> <path d="M59.8666 69.9857L59.9893 70.7892C60.0944 71.4742 60.0763 72.1721 59.936 72.8508L59.7919 73.5644C59.7516 73.7596 59.6534 73.9383 59.5099 74.0777C59.3663 74.2171 59.184 74.3108 58.9864 74.3468C58.9111 74.3638 58.833 74.3644 58.7575 74.3486C58.6819 74.3327 58.6108 74.3008 58.5489 74.2551C58.487 74.2094 58.4359 74.1509 58.399 74.0837C58.3622 74.0164 58.3405 73.9421 58.3355 73.8658L58.1381 72.1425C58.1381 72.1425 57.6953 72.724 57.4819 72.724C57.2685 72.724 57.722 71.0007 58.2075 70.0227C58.6929 69.0448 59.8666 69.9857 59.8666 69.9857Z" fill="#FFC2B0"></path> <path d="M55.8761 57.1864L57.1513 59.6659C57.4556 60.2512 57.6371 60.8914 57.6849 61.5481L58.2185 70.007L59.8778 69.97L60.6355 60.4537C60.656 60.1605 60.6416 59.8659 60.5928 59.5761L59.7284 54.7492L55.8761 57.1864Z" fill="#FFC2B0"></path> <path d="M64.2413 78.0905L64.9777 77.6623L69.0274 70.6943V66.1159L69.625 65.344L69.0647 65.0215C69.0033 64.983 68.9321 64.9625 68.8593 64.9625C68.7866 64.9625 68.7154 64.983 68.6539 65.0215L56.8888 71.7728C56.6915 71.9015 56.5373 72.0856 56.446 72.3015L64.2413 78.0905Z" fill="black"></path> <path d="M57.444 72.1217L69.2091 65.3704C69.5453 65.1801 69.812 65.3704 69.8174 65.8198V74.9924C69.8162 75.216 69.7614 75.4362 69.6575 75.6347C69.5536 75.8333 69.4036 76.0045 69.2198 76.1343L57.4494 82.8856C57.1186 83.0812 56.8464 82.8856 56.8464 82.4362V73.2636C56.8485 73.0401 56.9037 72.8203 57.0075 72.6219C57.1113 72.4235 57.2609 72.2521 57.444 72.1217Z" fill="#494949"></path> <path d="M51.6548 73.8979L51.8469 74.289C52.0652 74.7273 52.4059 75.0942 52.8285 75.3463L53.9969 76.0599C54.1776 76.1665 54.384 76.2227 54.5944 76.2227C54.8047 76.2227 55.0111 76.1665 55.1919 76.0599H55.2292C55.3127 76.0019 55.3825 75.9267 55.4337 75.8395C55.485 75.7522 55.5165 75.655 55.5261 75.5545C55.5358 75.4539 55.5233 75.3525 55.4895 75.2573C55.4558 75.162 55.4015 75.0751 55.3306 75.0027L54.1089 73.7604C54.1089 73.7604 54.7971 74.289 54.9892 74.0723C55.1812 73.8556 54.3223 73.1684 53.7034 73.142C53.2552 73.0795 52.8327 72.8967 52.4817 72.6133L51.6548 73.8979Z" fill="#FFC2B0"></path> <path d="M54.7556 45.8304C54.7556 45.8304 59.2322 50.6572 61.041 55.0876C59.8132 56.9574 57.9323 58.3128 55.7587 58.8941C52.0131 59.9938 54.7556 45.8304 54.7556 45.8304Z" fill="#1C9309"></path> <path d="M56.6175 58.6077L55.892 51.6617L57.6045 58.1689C57.2838 58.3328 56.9543 58.4792 56.6175 58.6077Z" fill="#38D748"></path> <path d="M51.3998 44.8575L52.6055 44.5298C52.2666 45.0429 51.7713 45.4355 51.1917 45.6504C50.3541 45.883 50.2207 45.1747 50.2207 45.1747L51.3998 44.8575Z" fill="white"></path> <path d="M44.8887 138.159V133.533L36.3196 128.633V133.258L44.8887 138.159Z" fill="#38D748"></path> <path d="M44.89 133.533L53.459 128.633V133.258L44.89 138.159V133.533Z" fill="#26C836"></path> <path d="M36.3209 128.632L44.8899 123.732L53.459 128.632L44.8899 133.533L36.3209 128.632Z" fill="#1C9309"></path> <path d="M66.0502 75.2407C66.0502 75.9701 66.5837 76.2662 67.2026 75.9014C67.5371 75.6844 67.8153 75.3922 68.0146 75.0488C68.2138 74.7053 68.3286 74.3201 68.3496 73.9244C68.3496 73.2002 67.8161 72.9042 67.2026 73.269C66.8681 73.4852 66.5896 73.7763 66.3894 74.1188C66.1892 74.4613 66.0731 74.8456 66.0502 75.2407Z" fill="white"></path> <path d="M78.1411 137.403C78.2342 137.403 78.3256 137.378 78.4061 137.332C78.4866 137.285 78.5534 137.219 78.6 137.139C78.67 137.018 78.6891 136.875 78.6531 136.74C78.6172 136.606 78.529 136.491 78.4079 136.42L58.2658 124.926C58.2041 124.894 58.1527 124.845 58.1169 124.785C58.0812 124.726 58.0626 124.657 58.0631 124.588C58.0628 124.518 58.0814 124.449 58.1171 124.389C58.1527 124.328 58.2041 124.279 58.2658 124.244L68.9371 118.18C69.6955 117.746 70.3254 117.122 70.7636 116.37C71.2019 115.619 71.4331 114.766 71.4342 113.898V79.1479C71.435 78.3964 71.2502 77.6561 70.8958 76.9917C70.5415 76.3273 70.0284 75.7589 69.4013 75.3361L67.8006 74.2787C67.6839 74.2016 67.5411 74.1731 67.4033 74.1995C67.2654 74.2259 67.1437 74.3051 67.0644 74.4198C66.985 74.5346 66.9546 74.6757 66.9795 74.8126C67.0045 74.9495 67.0829 75.0711 67.1977 75.1511L68.7984 76.2084C69.2817 76.5348 69.6772 76.9731 69.9506 77.4854C70.224 77.9977 70.367 78.5684 70.3671 79.1479V113.919C70.3663 114.601 70.1845 115.271 69.8398 115.861C69.4952 116.451 68.9998 116.941 68.4036 117.282L57.7323 123.346C57.5084 123.473 57.3223 123.657 57.193 123.878C57.0636 124.099 56.9955 124.351 56.9955 124.607C56.9955 124.862 57.0636 125.114 57.193 125.335C57.3223 125.557 57.5084 125.74 57.7323 125.868L77.8743 137.356C77.9577 137.394 78.0495 137.411 78.1411 137.403Z" fill="#1C9309"></path> <path d="M55.6346 151.07C55.7515 151.07 55.8651 151.032 55.958 150.961C56.051 150.891 56.1181 150.793 56.149 150.681C56.1799 150.569 56.1729 150.451 56.1291 150.343C56.0854 150.236 56.0072 150.146 55.9067 150.086L35.2418 137.985C35.1854 137.951 35.1386 137.904 35.1059 137.848C35.0732 137.791 35.0557 137.728 35.055 137.662C35.0541 137.598 35.0704 137.534 35.1022 137.477C35.1341 137.421 35.1803 137.373 35.2364 137.34L40.8762 134.009C40.9467 133.98 41.0102 133.937 41.0623 133.882C41.1145 133.827 41.1541 133.761 41.1784 133.689C41.2028 133.618 41.2114 133.542 41.2036 133.467C41.1959 133.391 41.1719 133.319 41.1334 133.254C41.0949 133.188 41.0428 133.132 40.9804 133.088C40.9181 133.045 40.8471 133.015 40.7721 133.001C40.6972 132.987 40.6201 132.989 40.546 133.007C40.4719 133.025 40.4025 133.058 40.3426 133.105L34.7028 136.457C34.4884 136.584 34.311 136.764 34.1878 136.98C34.0645 137.195 33.9998 137.439 33.9998 137.686C33.9998 137.934 34.0645 138.177 34.1878 138.393C34.311 138.608 34.4884 138.788 34.7028 138.915L55.3678 151.017C55.451 151.056 55.5426 151.074 55.6346 151.07Z" fill="#1C9309"></path> <path d="M58.7676 160.634V156.013L50.1985 151.107V155.733L58.7676 160.634Z" fill="#38D748"></path> <path d="M58.7674 156.013L67.3418 151.107V155.733L58.7674 160.634V156.013Z" fill="#26C836"></path> <path d="M50.1984 151.107L58.7674 146.206L67.3418 151.107L58.7674 156.013L50.1984 151.107Z" fill="#1C9309"></path> <path d="M126.57 72.6028L128.016 77.2975L131.713 79.8193L128.907 80.9507L129.75 85.6084L126.57 81.5534L123.395 81.971L124.238 78.2755L121.432 73.9351L125.129 75.6427L126.57 72.6028Z" fill="#EDEDED"></path> <path d="M138.356 79.2853L139.802 83.98L143.495 86.5018L140.693 87.6332L141.531 92.2908L138.356 88.2359L135.176 88.6588L136.019 84.958L133.213 80.6176L136.91 82.3252L138.356 79.2853Z" fill="#EDEDED"></path> <path d="M119.933 73.1367L116.235 70.6149L114.789 65.9202L114.57 66.3802V74.9025L114.789 74.8708L117.969 78.9258L117.126 74.2681L119.933 73.1367Z" fill="#EDEDED"></path> <path d="M88.7398 49.4677L90.1857 54.1623L93.8834 56.6842L91.0768 57.8155L91.9198 62.4732L88.7398 58.4235L85.5651 58.8412L86.4028 55.1404L83.6016 50.7999L87.2992 52.5076L88.7398 49.4677Z" fill="#FF0000"></path> <path d="M81.8789 51.7831L83.6021 50.7999L86.2696 52.0316C86.2696 52.0316 86.2696 53.8077 86.2696 53.85C85.8807 53.9062 85.4887 53.938 85.0959 53.9452C85.0158 53.9452 81.8789 51.7831 81.8789 51.7831Z" fill="#E4BA25"></path> <path d="M91.9206 62.4725L90.1974 63.4558L89.3545 58.7987C89.3545 58.7987 90.1921 57.9212 90.1867 57.9212L91.1257 58.0798L91.9206 62.4725Z" fill="#FFD954"></path> <path d="M87.0171 50.451L88.4631 55.1457L92.1607 57.6622L89.3541 58.7989L90.1972 63.4566L87.0171 59.4016L83.8424 59.8192L84.6801 56.1237L81.8789 51.7833L85.5712 53.4909L87.0171 50.451Z" fill="#FED33D"></path> <path d="M90.1972 63.4566L89.3541 58.7989L92.1607 57.6622L88.4631 55.1457L87.0171 50.451L85.5712 53.4909L81.8789 51.7833L82.135 52.1798L85.6992 53.8293L86.9691 51.1541L88.2443 55.3043L91.6218 57.6093L89.066 58.6667L89.8557 63.0495L90.1972 63.4566Z" fill="white"></path> <path d="M87.0176 50.4509L88.7408 49.4677L90.1865 54.1617L88.4633 55.1449L87.0176 50.4509Z" fill="#F1C734"></path> <path d="M93.8832 56.6838L92.16 57.6618L88.4629 55.1456L90.1861 54.1624L93.8832 56.6838Z" fill="#E4BA25"></path> <path d="M88.5495 55.2618L88.2881 55.1138L90.15 54.0355L90.1873 54.1623L90.31 54.2469L88.5495 55.2618Z" fill="white"></path> <path d="M100.527 56.1502L101.968 60.8449L105.666 63.3667L102.864 64.4981L103.702 69.1558L100.527 65.1061L97.3473 65.5237L98.1903 61.823L95.3838 57.4825L99.0814 59.1954L100.527 56.1502Z" fill="#FF0000"></path> <path d="M93.6611 58.4656L95.3843 57.4824L98.0518 58.7141C98.0518 58.7141 98.0518 60.4902 98.0518 60.5325C97.6629 60.5885 97.2709 60.6202 96.8781 60.6277C96.8034 60.6277 93.6611 58.4656 93.6611 58.4656Z" fill="#E4BA25"></path> <path d="M103.702 69.1552L101.979 70.1384L101.142 65.4813L101.974 64.6038L102.913 64.7624L103.702 69.1552Z" fill="#FFD954"></path> <path d="M98.8047 57.1335L100.245 61.8282L103.943 64.3501L101.136 65.4814L101.979 70.1391L98.8047 66.0841L95.6246 66.5018L96.4677 62.8063L93.6611 58.4658L97.3587 60.1735L98.8047 57.1335Z" fill="#FED33D"></path> <path d="M101.979 70.1391L101.142 65.4814L103.943 64.3501L100.245 61.8282L98.8047 57.1335L97.3587 60.1735L93.6611 58.4658L93.9172 58.8623L97.4815 60.5118L98.7513 57.8367L100.027 61.9868L103.409 64.2919L100.848 65.3493L101.643 69.7373L101.979 70.1391Z" fill="white"></path> <path d="M98.8037 57.1334L100.527 56.1502L101.967 60.8443L100.244 61.8275L98.8037 57.1334Z" fill="#F1C734"></path> <path d="M105.664 63.3664L103.941 64.3496L100.244 61.8281L101.967 60.8449L105.664 63.3664Z" fill="#E4BA25"></path> <path d="M100.33 61.9444L100.068 61.7964L101.93 60.718L101.968 60.8449L102.096 60.9295L100.33 61.9444Z" fill="white"></path> <path d="M112.307 62.8327L113.753 67.5274L117.451 70.0492L114.644 71.1806L115.487 75.8383L112.307 71.7886L109.132 72.2062L109.97 68.5107L107.169 64.165L110.867 65.8779L112.307 62.8327Z" fill="#FF0000"></path> <path d="M105.441 65.1482L107.181 64.165L109.848 65.3966C109.848 65.3966 109.848 67.1728 109.848 67.2151C109.459 67.2712 109.067 67.303 108.674 67.3102C108.584 67.3049 105.441 65.1482 105.441 65.1482Z" fill="#E4BA25"></path> <path d="M115.487 75.8377L113.758 76.8209L112.921 72.1638C112.921 72.1638 113.758 71.2916 113.753 71.2916L114.692 71.4449L115.487 75.8377Z" fill="#FFD954"></path> <path d="M110.585 63.816L112.031 68.5107L115.723 71.0325L112.922 72.1639L113.765 76.8216L110.585 72.7666L107.405 73.1843L108.248 69.4888L105.441 65.1483L109.139 66.856L110.585 63.816Z" fill="#FED33D"></path> <path d="M113.76 76.8216L112.922 72.1639L115.718 71.0325L112.02 68.5107L110.574 63.816L109.128 66.856L105.431 65.1483L105.692 65.5448L109.251 67.1943L110.521 64.5192L111.801 68.6693L115.184 70.9744L112.628 72.0318L113.418 76.4198L113.76 76.8216Z" fill="white"></path> <path d="M110.585 63.8159L112.308 62.8327L113.754 67.5268L112.031 68.51L110.585 63.8159Z" fill="#F1C734"></path> <path d="M117.451 70.0489L115.722 71.0321L112.03 68.5106L113.753 67.5274L117.451 70.0489Z" fill="#E4BA25"></path> <path d="M112.115 68.6269L111.849 68.4789L113.716 67.4058L113.753 67.5274L113.876 67.612L112.115 68.6269Z" fill="white"></path> <path d="M124.095 69.5206L125.535 74.21L129.233 76.7318L126.432 77.8632L127.269 82.5261L124.095 78.4712L120.915 78.8888L121.758 75.1933L118.951 70.8476L122.649 72.5605L124.095 69.5206Z" fill="#FF0000"></path> <path d="M117.228 71.8308L118.951 70.8528L121.618 72.0792C121.618 72.0792 121.618 73.8554 121.618 73.8976C121.231 73.9538 120.841 73.9856 120.45 73.9928C120.37 73.9928 117.228 71.8308 117.228 71.8308Z" fill="#E4BA25"></path> <path d="M127.269 82.5255L125.546 83.5034L124.703 78.8463C124.703 78.8463 125.541 77.9741 125.535 77.9741L126.48 78.1327L127.269 82.5255Z" fill="#FFD954"></path> <path d="M122.366 70.4986L123.812 75.1933L127.509 77.7151L124.703 78.8465L125.546 83.5042L122.366 79.4545L119.191 79.8721L120.029 76.1714L117.228 71.8309L120.925 73.5385L122.366 70.4986Z" fill="#FED33D"></path> <path d="M125.546 83.5042L124.703 78.8465L127.509 77.7151L123.812 75.1933L122.366 70.4775L120.925 73.5174L117.228 71.8098L117.484 72.2116L121.053 73.8769L122.323 71.2018L123.598 75.3519L126.981 77.657L124.42 78.7143L125.215 83.1024L125.546 83.5042Z" fill="white"></path> <path d="M122.365 70.4985L124.094 69.5206L125.534 74.2093L123.811 75.1926L122.365 70.4985Z" fill="#F1C734"></path> <path d="M129.233 76.7314L127.51 77.7147L123.812 75.1932L125.536 74.21L129.233 76.7314Z" fill="#E4BA25"></path> <path d="M123.898 75.3095L123.637 75.1615L125.499 74.0884L125.536 74.21L125.659 74.2945L123.898 75.3095Z" fill="white"></path> <path d="M135.877 76.2031L137.323 80.8925L141.021 83.4143L138.214 84.5457L139.058 89.2086L135.877 85.1536L132.703 85.5713L133.54 81.8758L130.739 77.5353L134.432 79.243L135.877 76.2031Z" fill="#FF0000"></path> <path d="M129.009 78.5133L130.737 77.5353L133.405 78.767C133.405 78.767 133.405 80.5378 133.405 80.5801C133.016 80.6363 132.624 80.6681 132.231 80.6753C132.151 80.6753 129.009 78.5133 129.009 78.5133Z" fill="#E4BA25"></path> <path d="M139.055 89.208L137.327 90.186L136.489 85.5289L137.322 84.6567L138.26 84.8153L139.055 89.208Z" fill="#FFD954"></path> <path d="M134.152 77.1812L135.593 81.8758L139.291 84.3977L136.489 85.529L137.327 90.1867L134.152 86.137L130.972 86.5547L131.815 82.8539L129.009 78.5134L132.706 80.2264L134.152 77.1812Z" fill="#FED33D"></path> <path d="M137.327 90.1867L136.489 85.529L139.291 84.3977L135.593 81.8758L134.152 77.1812L132.706 80.2211L129.009 78.5134L129.27 78.9152L132.829 80.5594L134.099 77.879L135.374 82.0292L138.757 84.3342L136.201 85.3916L136.991 89.7796L137.327 90.1867Z" fill="white"></path> <path d="M134.152 77.181L135.876 76.2031L137.321 80.8918L135.593 81.8751L134.152 77.181Z" fill="#F1C734"></path> <path d="M141.018 83.414L139.29 84.3972L135.593 81.8757L137.321 80.8925L141.018 83.414Z" fill="#E4BA25"></path> <path d="M135.683 81.992L135.416 81.844L137.283 80.7709L137.321 80.8925L137.443 80.977L135.683 81.992Z" fill="white"></path> </g> <defs> <radialGradient id="paint0_radial" cx="0" cy="0" r="1" gradientUnits="userSpaceOnUse" gradientTransform="translate(93.0088 79.8563) rotate(180) scale(24.9675 24.739)"> <stop stop-color="#01C8EF"></stop> <stop offset="0.09" stop-color="#03BEE9"></stop> <stop offset="0.24" stop-color="#08A5D7"></stop> <stop offset="0.43" stop-color="#107BBB"></stop> <stop offset="0.45" stop-color="#1177B8"></stop> <stop offset="1" stop-color="#112564"></stop> </radialGradient> <clipPath id="clip0"> <path d="M0 0H200C206.627 0 212 5.37258 212 12V208C212 214.627 206.627 220 200 220H0V0Z" fill="white"></path> </clipPath> </defs> </svg> 