<?xml version="1.0" encoding="UTF-8"?> <svg xmlns="http://www.w3.org/2000/svg" width="493" height="512" viewBox="0 0 493 512" fill="none"><g clip-path="url(#clip0_117_2)"><path d="M493 150V482H340.43C298.505 482 276.456 510.428 274.21 512H199.79C197.512 510.406 175.778 482 133.57 482H-19V120H11V452H133.7C180.582 452 206.678 478.451 213.18 482H260.82C267.319 478.452 293.422 452 340.3 452H463V150H493Z" fill="url(#paint0_linear_117_2)"></path><path d="M191.93 433.97C173.71 426.09 154 422 133.7 422H41V60H71V362H116C156.88 362 190.32 394.01 191.93 433.97ZM340.3 90C308.526 90 277.923 98.324 250.946 114.241C251.65 121.138 252.002 128.067 252 135V451.371C254.27 449.72 256.578 448.123 258.923 446.581C305.239 415.691 337.152 422 433 422V90H340.3Z" fill="url(#paint1_linear_117_2)"></path><path d="M222 437C222 379.103 174.449 332 116 332H101V0C175.991 0 222 60.561 222 135V437Z" fill="url(#paint2_linear_117_2)"></path></g><defs><linearGradient id="paint0_linear_117_2" x1="42" y1="155.219" x2="386.289" y2="600.062" gradientUnits="userSpaceOnUse"><stop stop-color="#F4C427"></stop><stop offset="1" stop-color="#F08E35"></stop></linearGradient><linearGradient id="paint1_linear_117_2" x1="87.7031" y1="95.1622" x2="442.771" y2="446.973" gradientUnits="userSpaceOnUse"><stop stop-color="#F4C427"></stop><stop offset="1" stop-color="#F08E35"></stop></linearGradient><linearGradient id="paint2_linear_117_2" x1="115.416" y1="39.2617" x2="317.456" y2="94.602" gradientUnits="userSpaceOnUse"><stop stop-color="#F4C427"></stop><stop offset="1" stop-color="#F08E35"></stop></linearGradient><clipPath id="clip0_117_2"><rect width="512" height="512" fill="white" transform="translate(-19)"></rect></clipPath></defs></svg> 