<?xml version="1.0" encoding="UTF-8"?> <svg xmlns="http://www.w3.org/2000/svg" width="16" height="16" viewBox="0 0 16 16" fill="none"> <path fill-rule="evenodd" clip-rule="evenodd" d="M8 16C12.4183 16 16 12.4183 16 8C16 3.58172 12.4183 0 8 0C3.58172 0 0 3.58172 0 8C0 12.4183 3.58172 16 8 16Z" fill="#FB9C7D"></path> <path fill-rule="evenodd" clip-rule="evenodd" d="M8 3C7.44772 3 7 3.44772 7 4V8C7 8.55228 7.44772 9 8 9C8.55228 9 9 8.55228 9 8V4C9 3.44772 8.55228 3 8 3ZM8 10.5C7.44772 10.5 7 10.9477 7 11.5V11.6053C7 12.1575 7.44772 12.6053 8 12.6053C8.55228 12.6053 9 12.1575 9 11.6053V11.5C9 10.9477 8.55228 10.5 8 10.5Z" fill="#22053D"></path> </svg> 