<?xml version="1.0" encoding="UTF-8"?> <svg xmlns="http://www.w3.org/2000/svg" width="136" height="48" viewBox="0 0 136 48" fill="none"> <g clip-path="url(#clip0_3557_210)"> <g clip-path="url(#clip1_3557_210)"> <path d="M1.68828 0.570656L3.42207 2.01479V8.52376H12.7945L14.069 10.1293L12.7903 11.6562H3.42207V17.8796L1.68828 19.3238L0 17.8796V2.01479L1.68828 0.570656ZM6.75724 16.9734H13.9034L15.0993 18.4962L13.8248 20.1058H6.75724L5.60276 18.6203L6.75724 16.9734ZM7.00552 0.198242H13.8207L15.0952 1.80376L13.8207 3.33066H7.08828L5.7269 1.84928L7.00552 0.198242ZM44.9876 3.28928L46.5145 4.93617L44.9876 6.58721H21.9103L20.4248 4.93617L21.9103 3.28928H44.9876V3.28928ZM19.1876 10.1334L20.6276 8.89617L22.0717 10.1334V11.95C22.0717 14.9996 22.8952 17.5113 26.5655 17.5113H27.3062C30.6041 17.5113 32.4165 15.2851 32.4165 11.8217V10.092L33.8193 8.85479L35.2634 10.0507V11.9458C35.2634 15.0369 36.1697 17.3458 39.7159 17.3458H40.3324C43.7959 17.3458 44.4124 14.7058 44.4538 11.8217V9.9679L45.8565 8.81341L47.3379 10.0093V11.8631C47.2966 15.8603 46.2248 20.4369 40.4565 20.4369H39.84C36.4179 20.4369 34.5641 18.91 33.8234 17.0148C32.9586 18.9513 30.6497 20.6438 27.5172 20.6438H26.7724C20.8386 20.6438 19.2331 17.0603 19.1917 12.0286V10.1334H19.1876ZM30.9766 39.9679L30.1531 37.7417L32.2966 37.1251L39.84 40.5431V33.4962L41.3669 32.2175L42.931 33.4962V42.0286L45.7324 43.3072L46.5145 45.3679L44.3297 46.15L30.9766 39.9679ZM44.4124 24.9224L46.4731 25.87L45.8152 27.972L27.2648 36.5872L25.0386 35.7224L25.9448 33.5789L44.4124 24.9224ZM17.6483 36.67L19.4607 38.1555C19.2952 43.39 14.8014 46.15 9.48828 46.15H8.95034C6.31034 46.15 3.22345 45.161 1.24552 43.2658L1.45241 41.1638L3.38897 40.9155C4.8331 42.1527 6.85241 43.0175 8.74759 43.0175H9.3269C12.9145 43.0175 15.6745 41.5362 15.9641 38.0313L17.6483 36.67ZM15.9559 33.2479C15.7903 29.6189 13.0717 28.1789 9.31862 28.1789H8.73931C6.5131 28.1789 4.82483 29.0438 3.38069 30.281L1.44414 30.0327L1.23724 27.9307C3.21517 25.9941 5.97517 25.0879 8.86345 25.0879H9.43862C14.7972 25.0879 19.291 27.8107 19.4524 33.1238L17.64 34.5679L15.9559 33.2479Z" fill="white"></path> <path d="M64.5841 5.9919H60.3717C60.4669 6.81121 61.0379 7.41534 61.8779 7.41534C62.3869 7.41534 62.8627 7.21259 63.1358 6.79879L64.4765 6.83603C64.0007 7.89121 63.0158 8.44983 61.8779 8.44983C60.2889 8.44983 59.1138 7.26224 59.1138 5.62776C59.1138 3.98914 60.2641 2.81396 61.8448 2.81396C63.2807 2.81396 64.5841 3.77396 64.5841 5.98362V5.9919V5.9919ZM60.3717 5.12707H63.2558C63.1979 4.44017 62.6393 3.84431 61.8572 3.84431C61.0586 3.84431 60.5124 4.36569 60.3717 5.12707Z" fill="white"></path> <path d="M68.7021 4.40293C68.2966 4.00983 67.7048 3.82362 67.3034 3.82362C66.84 3.82362 66.6041 4.0719 66.6041 4.32017C66.6041 4.6181 66.7365 4.75879 67.1007 4.89121L68.0276 5.20983C69.0248 5.55328 69.4386 6.09948 69.4386 6.76569C69.4386 7.62224 68.7848 8.44983 67.4441 8.44983C66.5669 8.44983 65.6979 8.09396 65.189 7.60569L65.8883 6.69121C66.2938 7.09259 66.9186 7.39052 67.4193 7.39052C67.8952 7.39052 68.2014 7.18776 68.2014 6.86914C68.2014 6.52569 68.0359 6.385 67.44 6.18224L66.5503 5.8719C65.8014 5.61121 65.3876 5.05259 65.3876 4.39052C65.3876 3.60845 66.0621 2.81396 67.3448 2.81396C67.9738 2.81396 68.8179 3.06224 69.3724 3.58362L68.7021 4.40293Z" fill="white"></path> <path d="M73.0303 7.41509C73.6468 7.41509 74.1227 7.11716 74.3958 6.63302L75.4179 7.1544C74.9917 7.94888 74.0524 8.44957 73.0344 8.44957C71.4455 8.44957 70.2 7.2744 70.2 5.63578C70.2 3.98474 71.4455 2.80957 73.0344 2.80957C74.0565 2.80957 74.9917 3.30612 75.4179 4.10474L74.3958 4.62612C74.1227 4.13785 73.6468 3.84405 73.0303 3.84405C72.0579 3.84405 71.3917 4.61371 71.3917 5.63578C71.3917 6.65785 72.0579 7.41509 73.0303 7.41509Z" fill="white"></path> <path d="M76.3892 6.36011V2.95459H77.5768V6.207C77.5768 7.05114 78.1354 7.42769 78.8347 7.42769C79.534 7.42769 80.0926 7.047 80.0926 6.207V2.95459H81.2678V6.36011C81.2678 7.48562 80.3781 8.44976 78.8347 8.44976C77.2912 8.44976 76.3892 7.48562 76.3892 6.36011Z" fill="white"></path> <path d="M87.7909 5.9919H83.5785C83.6737 6.81121 84.2447 7.41534 85.0847 7.41534C85.5937 7.41534 86.0695 7.21259 86.3426 6.79879L87.6833 6.83603C87.2075 7.89121 86.2226 8.44983 85.0847 8.44983C83.4957 8.44983 82.3206 7.26224 82.3206 5.62776C82.3206 3.98914 83.4709 2.81396 85.0516 2.81396C86.4875 2.81396 87.7909 3.77396 87.7909 5.98362V5.9919V5.9919ZM83.5785 5.12707H86.4626C86.4047 4.44017 85.8461 3.84431 85.064 3.84431C84.2654 3.84431 83.7192 4.36569 83.5785 5.12707Z" fill="white"></path> <path d="M90.0648 8.30483H88.8896V0H90.0648V8.30483Z" fill="white"></path> <path d="M94.6326 4.70914C94.6326 4.1381 94.2064 3.84431 93.5154 3.84431C92.9361 3.84431 92.4106 4.09259 92.0092 4.41534L91.4506 3.5381C91.9016 3.145 92.6588 2.81396 93.5981 2.81396C95.0092 2.81396 95.8161 3.59603 95.8161 4.7381V8.30914H94.6285V7.75052C94.3181 8.24707 93.6561 8.44983 93.0975 8.44983C91.8768 8.44983 91.165 7.75052 91.165 6.76569C91.165 5.72293 91.9016 5.12707 93.0975 5.12707H94.2478C94.5209 5.12707 94.6285 5.00707 94.6285 4.79603V4.70914H94.6326ZM94.6326 6.34776V5.88431C94.525 5.96707 94.3347 6.00431 94.0616 6.00431H93.3499C92.7209 6.00431 92.4023 6.27741 92.4023 6.72845C92.4023 7.14224 92.7126 7.52293 93.3499 7.52293C94.0161 7.52293 94.6326 7.17948 94.6326 6.34776Z" fill="white"></path> <path d="M60.6437 20.8468H59.4685V12.542H60.6437V16.291C60.9292 15.7572 61.674 15.3516 62.4602 15.3516C64.0161 15.3516 65.1416 16.5268 65.1416 18.1654C65.1416 19.8041 63.9913 20.9875 62.4354 20.9875C61.6657 20.9875 60.9416 20.6068 60.6437 20.073V20.8468V20.8468ZM60.6064 18.1654C60.6064 19.1875 61.2809 19.9696 62.2657 19.9696C63.2382 19.9696 63.9251 19.1875 63.9251 18.1654C63.9251 17.1434 63.2382 16.3737 62.2657 16.3737C61.2809 16.3737 60.6064 17.1475 60.6064 18.1654Z" fill="white"></path> <path d="M69.3319 16.5396H68.7153C67.954 16.5396 67.4574 16.9782 67.4574 18.1906V20.8471H66.2822V15.4968H67.4326V16.3533C67.6353 15.7616 68.1691 15.4058 68.914 15.4058C69.0464 15.4058 69.1871 15.4182 69.3277 15.443V16.5396H69.3319Z" fill="white"></path> <path d="M71.7301 20.8464H70.5425V16.4685H69.7356V15.4961H71.7301V20.8464ZM71.0639 12.7319C71.5273 12.7319 71.908 13.1126 71.908 13.5761C71.908 14.0395 71.5273 14.4078 71.0639 14.4078C70.6004 14.4078 70.2322 14.0395 70.2322 13.5761C70.2322 13.1126 70.6004 12.7319 71.0639 12.7319Z" fill="white"></path> <path d="M74.7304 13.3364V15.4964H75.9883V16.4688H74.7304V19.4688C74.7304 19.8371 75.0035 19.9075 75.2766 19.9075C75.6904 19.9075 76.0007 19.8578 76.0007 19.8578V20.8426C76.0007 20.8426 75.4172 20.9006 74.9786 20.9006C74.3372 20.9006 73.5428 20.7681 73.5428 19.7254V16.4688H72.6655V15.4964H73.5428V13.3364H74.7304Z" fill="white"></path> <path d="M80.1185 17.2551C80.1185 16.6841 79.6923 16.3903 79.0012 16.3903C78.4178 16.3903 77.8964 16.6385 77.495 16.9613L76.9364 16.0841C77.3874 15.691 78.1447 15.3599 79.084 15.3599C80.495 15.3599 81.3019 16.142 81.3019 17.2841V20.8551H80.1143V20.2965C79.804 20.793 79.1419 20.9958 78.5833 20.9958C77.3626 20.9958 76.6509 20.2965 76.6509 19.3116C76.6509 18.2689 77.3874 17.673 78.5833 17.673H79.7336C80.0067 17.673 80.1143 17.553 80.1143 17.342V17.2551H80.1185ZM80.1185 18.8896V18.4261C80.0109 18.5089 79.8205 18.5461 79.5474 18.5461H78.8357C78.2067 18.5461 77.8881 18.8192 77.8881 19.2703C77.8881 19.6841 78.1985 20.0648 78.8357 20.0648C79.5019 20.0648 80.1185 19.7213 80.1185 18.8896ZM78.7529 12.542H80.2261L79.204 14.5489H78.0661L78.7529 12.542Z" fill="white"></path> <path d="M83.8889 15.807C83.8889 15.9601 83.8889 16.0553 83.8765 16.1629C84.3275 15.6415 84.944 15.356 85.6227 15.356C86.8806 15.356 87.6171 16.138 87.6171 17.3629V20.8511H86.4296V17.5284C86.4296 16.767 85.9661 16.4111 85.3744 16.4111C84.8654 16.4111 84.3647 16.6718 83.9137 17.1932V20.847H82.7385V15.4966H83.8889V15.807V15.807Z" fill="white"></path> <path d="M90.4745 20.8464H89.2869V16.4685H88.48V15.4961H90.4745V20.8464ZM89.8083 12.7319C90.2717 12.7319 90.6524 13.1126 90.6524 13.5761C90.6524 14.0395 90.2717 14.4078 89.8083 14.4078C89.3448 14.4078 88.9765 14.0395 88.9765 13.5761C88.9807 13.1126 89.3448 12.7319 89.8083 12.7319Z" fill="white"></path> <path d="M94.4346 19.9571C95.0511 19.9571 95.527 19.6591 95.8001 19.175L96.8222 19.6964C96.396 20.4909 95.4567 20.9916 94.4387 20.9916C92.8498 20.9916 91.6042 19.8164 91.6042 18.1778C91.6042 16.5267 92.8498 15.3516 94.4387 15.3516C95.4608 15.3516 96.396 15.8481 96.8222 16.6467L95.8001 17.1681C95.527 16.6798 95.0511 16.386 94.4346 16.386C93.4622 16.386 92.796 17.1557 92.796 18.1778C92.796 19.1998 93.458 19.9571 94.4346 19.9571Z" fill="white"></path> <path d="M100.91 17.2555C100.91 16.6845 100.484 16.3907 99.7932 16.3907C99.2139 16.3907 98.6884 16.639 98.287 16.9617L97.7284 16.0845C98.1794 15.6914 98.9367 15.3604 99.876 15.3604C101.287 15.3604 102.094 16.1424 102.094 17.2845V20.8555H100.906V20.2969C100.596 20.7935 99.9339 20.9962 99.3753 20.9962C98.1546 20.9962 97.4429 20.2969 97.4429 19.3121C97.4429 18.2693 98.1794 17.6735 99.3753 17.6735H100.526C100.799 17.6735 100.906 17.5535 100.906 17.3424V17.2555H100.91ZM100.91 18.89V18.4266C100.803 18.5093 100.613 18.5466 100.339 18.5466H99.6277C98.9987 18.5466 98.6801 18.8197 98.6801 19.2707C98.6801 19.6845 98.9905 20.0652 99.6277 20.0652C100.294 20.0652 100.91 19.7217 100.91 18.89Z" fill="white"></path> <path d="M110.211 20.065C109.926 20.5988 109.202 20.9919 108.42 20.9919C106.864 20.9919 105.726 19.8043 105.726 18.1698C105.726 16.5312 106.843 15.356 108.395 15.356C109.189 15.356 109.926 15.7616 110.224 16.2954C110.211 15.9271 110.211 15.4885 110.211 15.0747V12.5464H111.399V20.8512H110.211V20.065V20.065ZM106.938 18.1657C106.938 19.1878 107.613 19.9698 108.598 19.9698C109.57 19.9698 110.257 19.1878 110.257 18.1657C110.257 17.1436 109.57 16.374 108.598 16.374C107.613 16.374 106.938 17.1478 106.938 18.1657Z" fill="white"></path> <path d="M118.01 18.5339H113.797C113.893 19.3532 114.464 19.9573 115.304 19.9573C115.813 19.9573 116.289 19.7546 116.562 19.3408L117.902 19.378C117.426 20.4332 116.442 20.9918 115.304 20.9918C113.715 20.9918 112.54 19.8042 112.54 18.1697C112.54 16.5311 113.69 15.356 115.271 15.356C116.706 15.356 118.01 16.316 118.01 18.5256V18.5339V18.5339ZM113.797 17.6691H116.682C116.624 16.9822 116.065 16.3863 115.283 16.3863C114.484 16.3863 113.938 16.9077 113.797 17.6691Z" fill="white"></path> <path d="M62.5054 29.797C62.5054 29.226 62.0792 28.9322 61.3882 28.9322C60.8047 28.9322 60.2834 29.1805 59.882 29.5032L59.3234 28.626C59.7744 28.2329 60.5316 27.9019 61.4709 27.9019C62.882 27.9019 63.6889 28.6839 63.6889 29.826V33.397H62.5013V32.8384C62.1909 33.335 61.5289 33.5377 60.9703 33.5377C59.7496 33.5377 59.0378 32.8384 59.0378 31.8536C59.0378 30.8108 59.7744 30.215 60.9703 30.215H62.1206C62.3937 30.215 62.5013 30.095 62.5013 29.8839V29.797H62.5054ZM62.5054 31.4315V30.9681C62.3978 31.0508 62.2075 31.0881 61.9344 31.0881H61.2227C60.5937 31.0881 60.2751 31.3612 60.2751 31.8122C60.2751 32.226 60.5854 32.6067 61.2227 32.6067C61.8889 32.6067 62.5054 32.2632 62.5054 31.4315Z" fill="white"></path> <path d="M68.1751 29.0857H67.5586C66.7972 29.0857 66.3007 29.5243 66.3007 30.7367V33.3933H65.1255V28.0388H66.2758V28.8953C66.4786 28.3036 67.0124 27.9478 67.7572 27.9478C67.8896 27.9478 68.0303 27.9602 68.171 27.985V29.0857H68.1751Z" fill="white"></path> <path d="M70.6605 25.8787V28.0387H71.9185V29.0111H70.6605V32.0111C70.6605 32.3793 70.9336 32.4497 71.2067 32.4497C71.6205 32.4497 71.9309 32.4 71.9309 32.4V33.3849C71.9309 33.3849 71.3474 33.4428 70.9088 33.4428C70.2674 33.4428 69.4729 33.3104 69.4729 32.2676V29.0069H68.5957V28.0345H69.4729V25.8745H70.6605V25.8787Z" fill="white"></path> <path d="M78.119 31.0759H73.9066C74.0018 31.8952 74.5728 32.4993 75.4128 32.4993C75.9218 32.4993 76.3976 32.2966 76.6708 31.8828L78.0114 31.92C77.5356 32.9752 76.5508 33.5338 75.4128 33.5338C73.8239 33.5338 72.6487 32.3462 72.6487 30.7117C72.6487 29.0731 73.799 27.8979 75.3797 27.8979C76.8156 27.8979 78.119 28.858 78.119 31.0676V31.0759V31.0759ZM73.9066 30.2111H76.7908C76.7328 29.5242 76.1742 28.9283 75.3921 28.9283C74.5976 28.9283 74.0514 29.4538 73.9066 30.2111Z" fill="white"></path> <path d="M82.2367 29.4869C81.8312 29.0938 81.2395 28.9076 80.8381 28.9076C80.3747 28.9076 80.1388 29.1559 80.1388 29.4042C80.1388 29.7021 80.2712 29.8428 80.6354 29.9752L81.5623 30.2938C82.5595 30.6373 82.9733 31.1835 82.9733 31.8497C82.9733 32.7062 82.3195 33.5338 80.9788 33.5338C80.1016 33.5338 79.2326 33.178 78.7236 32.6897L79.4229 31.7752C79.8285 32.1766 80.4533 32.4745 80.954 32.4745C81.4298 32.4745 81.736 32.2717 81.736 31.9531C81.736 31.6097 81.5705 31.469 80.9747 31.2662L80.085 30.9559C79.336 30.6952 78.9223 30.1366 78.9223 29.4745C78.9223 28.6924 79.5967 27.8979 80.8795 27.8979C81.5085 27.8979 82.3526 28.1462 82.9071 28.6676L82.2367 29.4869Z" fill="white"></path> <path d="M88.6424 32.4996C89.2589 32.4996 89.7348 32.2016 90.0079 31.7175L91.0299 32.2389C90.6037 33.0334 89.6644 33.534 88.6465 33.534C87.0575 33.534 85.812 32.3589 85.812 30.7202C85.812 29.0692 87.0575 27.894 88.6465 27.894C89.6686 27.894 90.6037 28.3906 91.0299 29.1892L90.0079 29.7106C89.7348 29.2223 89.2589 28.9285 88.6424 28.9285C87.6699 28.9285 87.0037 29.6982 87.0037 30.7202C87.0079 31.7423 87.6699 32.4996 88.6424 32.4996Z" fill="white"></path> <path d="M95.1351 29.0857H94.5186C93.7572 29.0857 93.2606 29.5243 93.2606 30.7367V33.3933H92.0854V28.0388H93.2358V28.8953C93.4386 28.3036 93.9723 27.9478 94.7172 27.9478C94.8496 27.9478 94.9903 27.9602 95.131 27.985V29.0857H95.1351Z" fill="white"></path> <path d="M101.102 31.0759H96.8895C96.9847 31.8952 97.5557 32.4993 98.3957 32.4993C98.9047 32.4993 99.3806 32.2966 99.6537 31.8828L100.994 31.92C100.518 32.9752 99.5337 33.5338 98.3957 33.5338C96.8068 33.5338 95.6316 32.3462 95.6316 30.7117C95.6316 29.0731 96.7819 27.8979 98.3626 27.8979C99.7985 27.8979 101.102 28.858 101.102 31.0676V31.0759V31.0759ZM96.8895 30.2111H99.7737C99.7157 29.5242 99.1571 28.9283 98.375 28.9283C97.5764 28.9283 97.0343 29.4538 96.8895 30.2111Z" fill="white"></path> <path d="M105.208 29.797C105.208 29.226 104.782 28.9322 104.091 28.9322C103.512 28.9322 102.986 29.1805 102.585 29.5032L102.026 28.626C102.477 28.2329 103.234 27.9019 104.174 27.9019C105.585 27.9019 106.392 28.6839 106.392 29.826V33.397H105.204V32.8384C104.894 33.335 104.232 33.5377 103.673 33.5377C102.452 33.5377 101.74 32.8384 101.74 31.8536C101.74 30.8108 102.477 30.215 103.673 30.215H104.823C105.096 30.215 105.204 30.095 105.204 29.8839V29.797H105.208ZM105.208 31.4315V30.9681C105.1 31.0508 104.91 31.0881 104.637 31.0881H103.925C103.296 31.0881 102.978 31.3612 102.978 31.8122C102.978 32.226 103.288 32.6067 103.925 32.6067C104.592 32.6067 105.208 32.2632 105.208 31.4315Z" fill="white"></path> <path d="M109.336 25.8787V28.0387H110.594V29.0111H109.336V32.0111C109.336 32.3793 109.609 32.4497 109.882 32.4497C110.296 32.4497 110.606 32.4 110.606 32.4V33.3849C110.606 33.3849 110.023 33.4428 109.584 33.4428C108.943 33.4428 108.148 33.3104 108.148 32.2676V29.0069H107.271V28.0345H108.148V25.8745H109.336V25.8787Z" fill="white"></path> <path d="M113.111 33.393H111.924V29.011H111.117V28.0386H113.111V33.393ZM112.445 25.2744C112.909 25.2744 113.289 25.6551 113.289 26.1186C113.289 26.582 112.909 26.9503 112.445 26.9503C111.982 26.9503 111.614 26.582 111.614 26.1186C111.614 25.6551 111.982 25.2744 112.445 25.2744Z" fill="white"></path> <path d="M116.75 32.2634L118.185 28.0386H119.443L117.474 33.3889H115.98L114.081 28.0386H115.396L116.75 32.2634Z" fill="white"></path> <path d="M123.29 29.797C123.29 29.226 122.863 28.9322 122.172 28.9322C121.589 28.9322 121.068 29.1805 120.666 29.5032L120.108 28.626C120.559 28.2329 121.316 27.9019 122.255 27.9019C123.666 27.9019 124.473 28.6839 124.473 29.826V33.397H123.285V32.8384C122.975 33.335 122.313 33.5377 121.754 33.5377C120.534 33.5377 119.822 32.8384 119.822 31.8536C119.822 30.8108 120.559 30.215 121.754 30.215H122.905C123.178 30.215 123.285 30.095 123.285 29.8839V29.797H123.29ZM123.29 31.4315V30.9681C123.182 31.0508 122.992 31.0881 122.719 31.0881H122.007C121.378 31.0881 121.059 31.3612 121.059 31.8122C121.059 32.226 121.37 32.6067 122.007 32.6067C122.673 32.6067 123.29 32.2632 123.29 31.4315Z" fill="white"></path> <path d="M128.958 29.4869C128.553 29.0938 127.961 28.9076 127.56 28.9076C127.096 28.9076 126.86 29.1559 126.86 29.4042C126.86 29.7021 126.993 29.8428 127.357 29.9752L128.284 30.2938C129.281 30.6373 129.695 31.1835 129.695 31.8497C129.695 32.7062 129.041 33.5338 127.7 33.5338C126.823 33.5338 125.954 33.178 125.445 32.6897L126.145 31.7752C126.55 32.1766 127.175 32.4745 127.676 32.4745C128.152 32.4745 128.458 32.2717 128.458 31.9531C128.458 31.6097 128.292 31.469 127.696 31.2662L126.807 30.9559C126.058 30.6952 125.644 30.1366 125.644 29.4745C125.644 28.6924 126.318 27.8979 127.601 27.8979C128.23 27.8979 129.074 28.1462 129.629 28.6676L128.958 29.4869Z" fill="white"></path> <path d="M61.0841 45.9353H60.8482L58.9365 40.585H60.2648L61.6055 44.7974L63.0041 40.585H64.2745L62.0069 46.8043C61.7214 47.5739 61.2703 48.0043 60.3227 48.0043H59.491V47.0319H60.1448C60.571 47.0319 60.7738 46.8912 60.9269 46.4277L61.0841 45.9353Z" fill="white"></path> <path d="M68.9804 38.425V40.585H70.2383V41.5575H68.9804V44.5575C68.9804 44.9257 69.2535 44.9961 69.5266 44.9961C69.9404 44.9961 70.2507 44.9464 70.2507 44.9464V45.9312C70.2507 45.9312 69.6672 45.9892 69.2286 45.9892C68.5872 45.9892 67.7928 45.8568 67.7928 44.814V41.5533H66.9155V40.5809H67.7928V38.4209H68.9804V38.425Z" fill="white"></path> <path d="M76.4472 43.6179H72.2347C72.3299 44.4372 72.9009 45.0413 73.7409 45.0413C74.2499 45.0413 74.7258 44.8386 74.9989 44.4248L76.3396 44.462C75.8637 45.5172 74.8789 46.0758 73.7409 46.0758C72.152 46.0758 70.9768 44.8882 70.9768 43.2537C70.9768 41.6151 72.1271 40.4399 73.7078 40.4399C75.1437 40.4399 76.4472 41.3999 76.4472 43.6096V43.6179V43.6179ZM72.2347 42.753H75.1189C75.0609 42.0661 74.5023 41.4703 73.7203 41.4703C72.9216 41.4703 72.3754 41.9958 72.2347 42.753Z" fill="white"></path> <path d="M79.9837 45.0455C80.6002 45.0455 81.0761 44.7475 81.3492 44.2634L82.3713 44.7848C81.945 45.5793 81.0057 46.0799 79.9878 46.0799C78.3988 46.0799 77.1533 44.9048 77.1533 43.2661C77.1533 41.6151 78.3988 40.4399 79.9878 40.4399C81.0099 40.4399 81.945 40.9365 82.3713 41.7351L81.3492 42.2565C81.0761 41.7682 80.6002 41.4744 79.9837 41.4744C79.0112 41.4744 78.345 42.2441 78.345 43.2661C78.3492 44.2841 79.0112 45.0455 79.9837 45.0455Z" fill="white"></path> <path d="M84.5727 40.891C84.5727 41.0441 84.5727 41.1393 84.5603 41.2468C85.0113 40.7255 85.6279 40.4399 86.3065 40.4399C87.5644 40.4399 88.301 41.222 88.301 42.4468V45.9351H87.1134V42.6124C87.1134 41.851 86.6499 41.4951 86.0582 41.4951C85.5493 41.4951 85.0486 41.7558 84.5975 42.2772V45.931H83.4224V40.5806H84.5727V40.891V40.891Z" fill="white"></path> <path d="M92.2178 40.4399C93.7943 40.4399 95.0771 41.6151 95.0771 43.2537C95.0771 44.8924 93.7943 46.0758 92.2178 46.0758C90.6412 46.0758 89.3709 44.8882 89.3709 43.2537C89.3667 41.6151 90.6371 40.4399 92.2178 40.4399ZM92.2178 41.4703C91.2453 41.4703 90.5667 42.2317 90.5667 43.2496C90.5667 44.2717 91.2412 45.0413 92.2178 45.0413C93.1902 45.0413 93.8688 44.2717 93.8688 43.2496C93.8647 42.2317 93.1902 41.4703 92.2178 41.4703Z" fill="white"></path> <path d="M97.4105 45.9349H96.2354V37.626H97.4105V45.9349Z" fill="white"></path> <path d="M101.425 40.4399C103.002 40.4399 104.285 41.6151 104.285 43.2537C104.285 44.8924 103.002 46.0758 101.425 46.0758C99.8487 46.0758 98.5784 44.8882 98.5784 43.2537C98.5742 41.6151 99.8446 40.4399 101.425 40.4399ZM101.425 41.4703C100.453 41.4703 99.7742 42.2317 99.7742 43.2496C99.7742 44.2717 100.449 45.0413 101.425 45.0413C102.398 45.0413 103.076 44.2717 103.076 43.2496C103.072 42.2317 102.398 41.4703 101.425 41.4703Z" fill="white"></path> <path d="M110.715 40.5804V46.3569C110.715 47.1886 110.301 47.9955 109.031 47.9955H106.788V47.0231H108.853C109.172 47.0231 109.528 46.9404 109.528 46.4521V45.1362C109.242 45.6576 108.518 46.0507 107.736 46.0507C106.192 46.0507 105.054 44.888 105.054 43.2493C105.054 41.5983 106.172 40.4355 107.723 40.4355C108.505 40.4355 109.242 40.8411 109.54 41.3749C109.54 41.2549 109.528 41.1266 109.528 40.9611V40.5804H110.715ZM107.914 45.0452C108.899 45.0452 109.573 44.2755 109.573 43.2535C109.573 42.219 108.899 41.4493 107.914 41.4493C106.941 41.4493 106.263 42.219 106.263 43.2535C106.263 44.2714 106.941 45.0452 107.914 45.0452Z" fill="white"></path> <path d="M113.635 45.9349H112.46V41.557H111.64V40.5846H113.635V45.9349ZM112.567 37.626H114.04L113.018 39.6329H111.88L112.567 37.626Z" fill="white"></path> <path d="M118.16 42.339C118.16 41.768 117.734 41.4742 117.043 41.4742C116.46 41.4742 115.938 41.7225 115.537 42.0452L114.978 41.168C115.429 40.7749 116.186 40.4438 117.126 40.4438C118.537 40.4438 119.344 41.2259 119.344 42.368V45.939H118.156V45.3804C117.846 45.877 117.184 46.0797 116.625 46.0797C115.404 46.0797 114.693 45.3804 114.693 44.3956C114.693 43.3528 115.429 42.757 116.625 42.757H117.775C118.048 42.757 118.156 42.637 118.156 42.4259V42.339H118.16ZM118.16 43.9776V43.5142C118.053 43.597 117.862 43.6342 117.589 43.6342H116.877C116.248 43.6342 115.93 43.9073 115.93 44.3583C115.93 44.7721 116.24 45.1528 116.877 45.1528C117.544 45.1487 118.16 44.8052 118.16 43.9776Z" fill="white"></path> </g> </g> <defs> <clipPath id="clip0_3557_210"> <rect width="135.184" height="48" fill="white"></rect> </clipPath> <clipPath id="clip1_3557_210"> <rect width="129.691" height="48" fill="white"></rect> </clipPath> </defs> </svg> 