<?xml version="1.0" encoding="UTF-8"?> <svg xmlns="http://www.w3.org/2000/svg" width="512" height="512" viewBox="0 0 512 512" fill="none"> <g clip-path="url(#clip0_3639_145)"> <path d="M37.3333 490.667H90.6667C111.253 490.667 128 473.92 128 453.334V208C128 187.414 111.253 170.667 90.6667 170.667H37.3333C16.7467 170.667 0 187.414 0 208V453.334C0 473.92 16.7467 490.667 37.3333 490.667Z" fill="white"></path> <path d="M272.661 16C251.328 16 240.661 26.6667 240.661 80C240.661 130.688 191.573 171.477 160 192.491V456.768C194.155 472.576 262.528 496 368.661 496H402.795C444.395 496 479.808 466.133 486.848 425.173L510.741 286.507C519.701 234.24 479.595 186.667 426.688 186.667H325.995C325.995 186.667 341.995 154.667 341.995 101.333C341.995 37.3333 293.995 16 272.661 16Z" fill="white"></path> </g> <defs> <clipPath id="clip0_3639_145"> <rect width="512" height="512" fill="white"></rect> </clipPath> </defs> </svg> 