<?xml version="1.0" encoding="UTF-8"?> <svg xmlns="http://www.w3.org/2000/svg" viewBox="0 0 252.26 104.7"> <defs> <style>.cls-1{fill:#231f20;}</style> </defs> <g id="Capa_2" data-name="Capa 2"> <g id="Layer_1" data-name="Layer 1"> <path class="cls-1" d="M22.56,6.61H12.14v6h10v6.06h-10v6.08H22.56v6.06H5.24V.55H22.56Z"></path> <path class="cls-1" d="M48.57,22.71l2.93,5.87s-3.37,2.79-9.94,2.79c-8.55,0-16.4-7-16.4-15.63S33,0,41.56,0c6.57,0,9.94,2.79,9.94,2.79L48.57,8.66a10.52,10.52,0,0,0-6-1.87c-6.93,0-10,4.84-10,8.88s3,8.91,10,8.91A10.52,10.52,0,0,0,48.57,22.71Z"></path> <path class="cls-1" d="M68,0A15.34,15.34,0,0,1,83.27,15.67c0,8.84-6.53,15.7-15.23,15.7-9,0-15.26-6.86-15.26-15.7A15.41,15.41,0,0,1,68,0Zm0,24.69c5.5,0,7.78-4.51,7.78-9s-2.42-9-7.78-9-7.81,4.51-7.81,9S62.39,24.69,68,24.69Z"></path> <path class="cls-1" d="M106.85,2.86l-2.79,5.51a12.46,12.46,0,0,0-6.13-2.1c-2.34,0-3.59,1.07-3.59,2.72s2.86,2.9,6.31,4.36,7.08,4.3,7.08,8.26c0,7.23-5.51,9.76-11.41,9.76a17.67,17.67,0,0,1-11.37-4l3.45-5.8s4,3.41,7.41,3.41c1.5,0,4.36-.14,4.36-3,0-2.2-3.23-3.19-6.82-5s-5.76-4.62-5.76-7.77c0-5.65,5-9.25,9.87-9.25A17.22,17.22,0,0,1,106.85,2.86Z"></path> <path class="cls-1" d="M117.85,30.82H111V.55h6.9Z"></path> <path class="cls-1" d="M142.06,2.86l-2.79,5.51a12.46,12.46,0,0,0-6.12-2.1c-2.35,0-3.6,1.07-3.6,2.72s2.86,2.9,6.31,4.36,7.08,4.3,7.08,8.26c0,7.23-5.5,9.76-11.41,9.76a17.67,17.67,0,0,1-11.37-4l3.45-5.8S127.64,25,131,25c1.5,0,4.36-.14,4.36-3,0-2.2-3.22-3.19-6.82-5s-5.76-4.62-5.76-7.77c0-5.65,5-9.25,9.87-9.25A17.22,17.22,0,0,1,142.06,2.86Z"></path> <path class="cls-1" d="M142.5.55h21.28V6.61h-7.2V30.82h-6.89V6.61H142.5Z"></path> <path class="cls-1" d="M183.58,6.61H173.16v6h10v6.06h-10v6.08h10.42v6.06H166.26V.55h17.32Z"></path> <path class="cls-1" d="M211.13,12.88H211l-6.21,17.75h-4.1l-6.2-17.75h-.19l-1.43,17.94h-6.9L188.64.55H196L202.69,18,209.4.55h7.34l2.72,30.27h-6.9Z"></path> <path class="cls-1" d="M249.83,30.82h-7.42l-2.23-6.06H228.66l-2.24,6.06H219L231.22.55h6.39ZM234.45,9.91h-.07L231,18.71h6.83Z"></path> <path class="cls-1" d="M6.64,67.61H4.76V43.68l4.32-4.33H21.17l4.33,4.33V67.61H23.6V57.24h-17Zm17-12.27V44.45l-3.2-3.22H9.86L6.64,44.45V55.34Z"></path> <path class="cls-1" d="M33.87,54.42q2.85,2,8.33,6.51,5.89,4.86,8.41,6.68h-3L31.79,55.29V67.61H29.91V39.35H46.33l4.32,4.33V50.1l-4.32,4.32ZM31.79,41.23V52.54H45.55l3.2-3.21V44.45l-3.2-3.22Z"></path> <path class="cls-1" d="M66.38,67.61H64.5V41.23H60.18L56,45.39l-1.32-1.33,4.71-4.71H71.48l4.71,4.71-1.32,1.33-4.16-4.16H66.38Z"></path> <path class="cls-1" d="M89.64,65.74V41.23H80.22V39.35H101v1.88H91.52V65.74H101v1.87H80.22V65.74Z"></path> <path class="cls-1" d="M122.34,52.54v1.88H107.25V67.61h-1.88V39.35h16.42l4.71,4.71-1.35,1.33L121,41.23H107.25V52.54Z"></path> <path class="cls-1" d="M140,65.74V41.23h-9.42V39.35h20.73v1.88h-9.44V65.74h9.44v1.87H130.53V65.74Z"></path> <path class="cls-1" d="M176.8,62.9l-4.71,4.71H160l-4.32-4.32V43.68L160,39.35h12.09l4.71,4.71-1.32,1.33-4.16-4.16H160.77l-3.21,3.22V62.52l3.21,3.22h10.55l4.16-4.16Z"></path> <path class="cls-1" d="M190.25,65.74V41.23h-9.42V39.35h20.74v1.88h-9.44V65.74h9.44v1.87H180.83V65.74Z"></path> <path class="cls-1" d="M207.86,67.61H206V43.68l4.33-4.33H222.4l4.32,4.33V67.61h-1.89V57.24h-17Zm17-12.27V44.45l-3.21-3.22H211.08l-3.22,3.22V55.34Z"></path> <path class="cls-1" d="M252.26,62.9l-4.71,4.71H231.14V39.35H233V65.74h13.77l4.16-4.16Z"></path> <path class="cls-1" d="M20.71,77.75,18.07,83a11.81,11.81,0,0,0-5.79-2c-2.22,0-3.4,1-3.4,2.56s2.71,2.74,6,4.13,6.69,4.06,6.69,7.81c0,6.83-5.2,9.22-10.79,9.22A16.72,16.72,0,0,1,0,100.92l3.26-5.48s3.82,3.23,7,3.23c1.42,0,4.13-.14,4.13-2.81,0-2.09-3.06-3-6.46-4.72S2.5,86.77,2.5,83.78C2.5,78.44,7.21,75,11.83,75A16.27,16.27,0,0,1,20.71,77.75Z"></path> <path class="cls-1" d="M37.73,75a14.51,14.51,0,0,1,14.4,14.82c0,8.35-6.17,14.84-14.4,14.84-8.46,0-14.43-6.49-14.43-14.84A14.58,14.58,0,0,1,37.73,75Zm0,23.35c5.21,0,7.36-4.27,7.36-8.53s-2.29-8.54-7.36-8.54-7.38,4.27-7.38,8.54S32.39,98.39,37.73,98.39Z"></path> <path class="cls-1" d="M61.52,104.18H55V75.56h6.52L72.9,93.32H73V75.56h6.52v28.62H73L61.59,86.42h-.07Z"></path> <path class="cls-1" d="M96.79,75a14.51,14.51,0,0,1,14.4,14.82c0,8.35-6.18,14.84-14.4,14.84-8.46,0-14.43-6.49-14.43-14.84A14.58,14.58,0,0,1,96.79,75Zm0,23.35c5.21,0,7.36-4.27,7.36-8.53s-2.29-8.54-7.36-8.54-7.39,4.27-7.39,8.54S91.45,98.39,96.79,98.39Z"></path> <path class="cls-1" d="M124.29,75.56c5.31,0,9.33,2.88,9.33,8.5a8.18,8.18,0,0,1-5.86,8.29l9.85,11.83h-8.29l-8.74-11.31v11.31h-6.52V75.56Zm-3,12.7c2.47,0,5.41-.17,5.41-3.75s-2.94-3.74-5.41-3.74h-.76v7.49Z"></path> <path class="cls-1" d="M152,75a14.5,14.5,0,0,1,14.39,14.82c0,8.35-6.17,14.84-14.39,14.84-8.47,0-14.43-6.49-14.43-14.84A14.57,14.57,0,0,1,152,75Zm0,23.35c5.2,0,7.35-4.27,7.35-8.53s-2.29-8.54-7.35-8.54-7.39,4.27-7.39,8.54S146.69,98.39,152,98.39Z"></path> </g> </g> </svg> 