<?xml version="1.0" encoding="UTF-8"?> <svg xmlns="http://www.w3.org/2000/svg" width="530" height="154" viewBox="0 0 530 154" fill="none"> <g clip-path="url(#clip0_3574_156)"> <mask id="mask0_3574_156" style="mask-type:luminance" maskUnits="userSpaceOnUse" x="-16" y="-5" width="564" height="163"> <path d="M547.376 -4.78418H-15.1084V157.806H547.376V-4.78418Z" fill="white"></path> </mask> <g mask="url(#mask0_3574_156)"> <path d="M464.656 48.9367C464.656 46.4901 462.678 44.5088 460.226 44.5088H453.665C451.217 44.5088 449.238 46.4986 449.238 48.9462L449.243 117.414C449.243 119.86 451.221 121.844 453.668 121.844H460.226C462.678 121.844 464.656 119.851 464.656 117.406V48.9367Z" fill="#232E69"></path> </g> <mask id="mask1_3574_156" style="mask-type:luminance" maskUnits="userSpaceOnUse" x="-16" y="-5" width="564" height="163"> <path d="M547.376 -4.78418H-15.1084V157.806H547.376V-4.78418Z" fill="white"></path> </mask> <g mask="url(#mask1_3574_156)"> <path d="M473.02 50.7574V54.0113C473.02 55.3595 474.121 56.4463 475.471 56.4463H520.728C522.794 56.4463 524.467 54.7826 524.467 52.7216V47.2102C524.467 45.1503 522.772 43.2858 520.721 43.4877C520.721 43.4877 476.975 47.77 475.567 47.9304C473.936 48.1132 473.02 49.4082 473.02 50.7574Z" fill="#232E69"></path> </g> <mask id="mask2_3574_156" style="mask-type:luminance" maskUnits="userSpaceOnUse" x="-16" y="-5" width="564" height="163"> <path d="M547.376 -4.78418H-15.1084V157.806H547.376V-4.78418Z" fill="white"></path> </mask> <g mask="url(#mask2_3574_156)"> <path d="M436.379 121.847C425.123 121.847 418.037 113.326 418.037 103.843L418.026 76.4468H414.804C413.087 76.4468 411.693 75.0646 411.693 73.3489V68.7649C411.693 67.0503 413.094 65.6713 414.811 65.6713L418.026 65.6766L418.022 48.8341C418.022 46.448 419.949 44.5156 422.339 44.5156H428.736C431.122 44.5156 433.053 46.4619 433.053 48.8468V65.6777L443.03 65.6745C444.75 65.6745 446.147 67.0545 446.147 68.7681V73.3543C446.147 75.0689 444.754 76.45 443.037 76.45L433.056 76.4489L433.064 101.788C433.064 106.764 436.087 110.161 441.484 110.161L442.39 110.155C444.257 110.155 445.773 111.652 445.773 113.51V118.489C445.773 120.352 444.26 121.85 442.397 121.85H436.379V121.847Z" fill="#232E69"></path> </g> <mask id="mask3_3574_156" style="mask-type:luminance" maskUnits="userSpaceOnUse" x="-16" y="-5" width="564" height="163"> <path d="M547.376 -4.78418H-15.1084V157.806H547.376V-4.78418Z" fill="white"></path> </mask> <g mask="url(#mask3_3574_156)"> <path d="M330.948 75.4222C337.67 75.4222 343.47 80.1943 344.057 86.6492H317.946C318.531 80.1954 324.231 75.4233 330.948 75.4222V63.7013C312.752 63.7013 302.543 77.9145 302.543 92.8958C302.543 108.854 313.476 122.908 331.069 122.908C343.111 122.908 354.983 116.577 357.223 106.179C357.528 104.776 356.58 102.935 354.6 102.928H345.994C344.434 102.928 343.158 103.677 342.387 104.803C339.928 108.404 336.319 110.32 330.984 110.32C323.452 110.32 318.225 104.394 317.832 97.8251L354.421 97.823C357.793 97.823 359.298 95.9979 359.298 92.8915C359.298 78.2863 350.636 63.7002 330.947 63.7002V75.4222H330.948Z" fill="#232E69"></path> </g> <mask id="mask4_3574_156" style="mask-type:luminance" maskUnits="userSpaceOnUse" x="-16" y="-5" width="564" height="163"> <path d="M547.376 -4.78418H-15.1084V157.806H547.376V-4.78418Z" fill="white"></path> </mask> <g mask="url(#mask4_3574_156)"> <path d="M497.685 75.4222C504.402 75.4222 510.199 80.1943 510.789 86.6492H484.675C485.265 80.1954 490.968 75.4233 497.685 75.4222V63.7013C479.485 63.7013 469.276 77.9145 469.276 92.8958C469.276 108.854 480.209 122.908 497.802 122.908C509.844 122.908 521.716 116.577 523.956 106.179C524.262 104.776 523.313 102.935 521.334 102.928H512.728C511.167 102.928 509.891 103.677 509.12 104.803C506.662 108.404 503.05 110.32 497.719 110.32C490.186 110.32 484.96 104.394 484.567 97.8251L521.155 97.823C524.523 97.823 526.033 95.9979 526.033 92.8915C526.033 78.2863 517.369 63.7002 497.685 63.7002V75.4222Z" fill="#232E69"></path> </g> <mask id="mask5_3574_156" style="mask-type:luminance" maskUnits="userSpaceOnUse" x="-16" y="-5" width="564" height="163"> <path d="M547.376 -4.78418H-15.1084V157.806H547.376V-4.78418Z" fill="white"></path> </mask> <g mask="url(#mask5_3574_156)"> <path d="M405.719 45.2785H287.198C284.5 45.2785 282.328 47.4573 282.328 50.1483L282.735 96.6039C282.735 96.6039 257.193 50.5647 255.862 48.2148C254.611 46.003 251.923 43.9707 248.202 43.9707H238.455C235.76 43.9707 233.578 46.1507 233.578 48.8427L233.581 116.97C233.581 119.66 235.763 121.842 238.459 121.842H244.706C247.406 121.842 249.58 119.65 249.58 116.961L249.187 69.1995C249.187 69.1995 274.974 115.7 276.075 117.532C277.563 120.005 280.084 121.842 283.732 121.842L292.683 121.843C295.378 121.843 297.556 119.659 297.556 116.97L297.553 56.822L405.726 56.8252C407.566 56.8252 409.059 55.3443 409.059 53.5074V48.5919C409.059 46.7573 407.559 45.2785 405.719 45.2785Z" fill="#232E69"></path> </g> <mask id="mask6_3574_156" style="mask-type:luminance" maskUnits="userSpaceOnUse" x="-16" y="-5" width="564" height="163"> <path d="M547.376 -4.78418H-15.1084V157.806H547.376V-4.78418Z" fill="white"></path> </mask> <g mask="url(#mask6_3574_156)"> <path d="M386.536 74.8574C391.687 74.8574 395.545 76.7229 396.93 79.946C397.596 81.4939 398.888 81.7935 400.667 81.7935H407.751C408.923 81.7935 410.268 80.7885 410.268 79.2608C410.268 71.0371 400.445 63.6963 386.529 63.6963C372.137 63.6963 362.684 70.541 362.684 81.4376C362.684 89.7792 369.286 94.7425 377.403 96.8587C381.106 97.8244 387.42 99.385 390.497 100.188C393.813 101.056 396.777 102.068 396.777 104.902C396.777 109.377 392.053 110.9 386.892 110.9C382.003 110.9 377.13 108.72 375.736 105.239C374.929 103.225 373.511 102.931 371.365 102.931H364.157C362.902 102.931 361.454 104.009 361.454 105.646V106.572C361.454 114.532 372.151 122.864 386.907 122.864C397.371 122.864 411.951 118.521 411.951 104.518C411.951 96.4083 406.511 90.7905 397.661 88.5479C394.202 87.6715 385.885 85.5585 384.077 85.0931C380.852 84.2624 377.84 83.2128 377.84 80.4538C377.841 76.2756 381.71 74.8574 386.536 74.8574Z" fill="#232E69"></path> </g> <mask id="mask7_3574_156" style="mask-type:luminance" maskUnits="userSpaceOnUse" x="-16" y="-5" width="564" height="163"> <path d="M547.376 -4.78418H-15.1084V157.806H547.376V-4.78418Z" fill="white"></path> </mask> <g mask="url(#mask7_3574_156)"> <path d="M124.166 29.5353C125.476 29.5353 126.537 28.4737 126.537 27.1641C126.537 25.8546 125.476 24.793 124.166 24.793C122.857 24.793 121.795 25.8546 121.795 27.1641C121.795 28.4737 122.857 29.5353 124.166 29.5353Z" fill="#232E69"></path> </g> <mask id="mask8_3574_156" style="mask-type:luminance" maskUnits="userSpaceOnUse" x="-16" y="-5" width="564" height="163"> <path d="M547.376 -4.78418H-15.1084V157.806H547.376V-4.78418Z" fill="white"></path> </mask> <g mask="url(#mask8_3574_156)"> <path d="M92.2615 25.3362C93.3686 25.3362 94.2662 24.4421 94.2662 23.339C94.2662 22.236 93.3686 21.3418 92.2615 21.3418C91.1544 21.3418 90.2568 22.236 90.2568 23.339C90.2568 24.4421 91.1544 25.3362 92.2615 25.3362Z" fill="#232E69"></path> </g> <mask id="mask9_3574_156" style="mask-type:luminance" maskUnits="userSpaceOnUse" x="-16" y="-5" width="564" height="163"> <path d="M547.376 -4.78418H-15.1084V157.806H547.376V-4.78418Z" fill="white"></path> </mask> <g mask="url(#mask9_3574_156)"> <path d="M68.3479 74.1111L67.377 73.0689C70.0902 70.5543 72.9639 66.5418 73.426 64.1908C73.8584 61.9992 77.0157 62.3487 76.4155 64.7305C75.6474 67.7731 71.9121 71.452 68.3479 74.1111Z" fill="#232E69"></path> </g> <mask id="mask10_3574_156" style="mask-type:luminance" maskUnits="userSpaceOnUse" x="-16" y="-5" width="564" height="163"> <path d="M547.376 -4.78418H-15.1084V157.806H547.376V-4.78418Z" fill="white"></path> </mask> <g mask="url(#mask10_3574_156)"> <path d="M48.1072 26.1654C43.1131 28.322 42.379 33.4319 45.8848 36.5C50.1076 40.1938 57.0724 36.978 56.4 31.3242C62.0665 31.6121 65.7179 25.7702 64.8191 21.6738C67.3401 19.5151 67.5908 14.9162 64.5641 13.107C61.3272 11.1703 58.2718 11.9139 56.3298 15.6471C51.1445 15.271 46.1727 19.344 48.1072 26.1654L45.7031 25.1179C42.5352 18.5037 48.0817 11.7482 54.8872 13.3046C56.2587 10.0219 61.325 6.6128 66.7983 9.91991C71.1698 12.5577 72.093 19.3727 67.4452 22.6788C69.6347 29.0359 65.2706 34.235 58.6213 33.6412C57.8394 41.8192 50.1108 42.872 45.1167 38.9912C42.2983 36.7996 41.1414 33.7612 40.6028 31.4676C40.0323 29.0401 40.0248 26.8666 37.6282 24.3679C35.8201 22.4822 32.5873 22.546 32.5873 22.546C32.5873 16.6053 27.0153 11.166 20.1015 13.8007C17.6538 11.693 14.624 11.4837 12.4525 14.0886C11.1936 15.6014 10.4957 19.5767 14.3871 21.3965C14.1842 26.8124 18.3231 30.2693 24.3711 29.7891C24.6112 32.6659 27.8078 35.341 30.6411 35.7245L30.6156 37.1703C27.5889 36.8824 25.9561 37.9352 23.9376 40.4286C16.8305 40.0918 11.8512 43.2491 12.0584 48.341C7.06109 49.2865 6.12622 54.51 8.95952 57.2902C11.7928 60.0693 15.9466 58.9794 17.3617 55.6595C22.4068 56.6199 26.858 53.0132 27.062 48.8562C31.7682 48.8562 33.8303 46.9939 34.6015 42.6733L36.3799 42.8167C36.9037 47.472 34.7471 51.8882 29.1272 51.3602C28.9817 56.9142 23.5807 60.0215 18.5398 58.1051C16.1867 62.5128 10.7931 64.2773 6.27176 59.9727C1.90018 55.8157 3.4969 48.7 9.21023 46.9737C9.3409 41.5302 13.3747 36.3555 21.2053 38.3485C21.2053 38.3485 22.2124 35.9167 24.66 35.7723C23.0272 35.103 21.7906 34.2042 21.456 32.5257C15.5493 33.7846 10.5297 28.357 11.8757 22.8934C6.54373 20.0909 6.4598 14.8386 9.10506 11.7163C11.8576 8.46342 16.448 7.74527 20.554 11.2489C27.504 7.40319 35.3675 12.1115 34.8873 20.0176C39.7508 19.6957 42.703 23.9366 42.1612 28.357C42.9654 26.4108 43.9003 25.5078 45.701 25.1169L48.1072 26.1654Z" fill="#232E69"></path> </g> <mask id="mask11_3574_156" style="mask-type:luminance" maskUnits="userSpaceOnUse" x="-16" y="-5" width="564" height="163"> <path d="M547.376 -4.78418H-15.1084V157.806H547.376V-4.78418Z" fill="white"></path> </mask> <g mask="url(#mask11_3574_156)"> <path d="M60.0517 16.6768L61.2298 17.515C58.9458 22.3157 54.912 27.4182 51.453 30.2228L50.1367 29.2338C52.5844 25.2542 57.843 18.6899 60.0517 16.6768Z" fill="#232E69"></path> </g> <mask id="mask12_3574_156" style="mask-type:luminance" maskUnits="userSpaceOnUse" x="-16" y="-5" width="564" height="163"> <path d="M547.376 -4.78418H-15.1084V157.806H547.376V-4.78418Z" fill="white"></path> </mask> <g mask="url(#mask12_3574_156)"> <path d="M26.0302 43.0576L26.8238 44.2315C23.9438 47.1774 18.615 51.1081 15.7817 52.4733L14.6758 51.277C17.4145 48.3301 22.6487 44.4705 26.0302 43.0576Z" fill="#232E69"></path> </g> <mask id="mask13_3574_156" style="mask-type:luminance" maskUnits="userSpaceOnUse" x="-16" y="-5" width="564" height="163"> <path d="M547.376 -4.78418H-15.1084V157.806H547.376V-4.78418Z" fill="white"></path> </mask> <g mask="url(#mask13_3574_156)"> <path d="M32.9181 28.7837L31.5285 30.5026C27.7604 28.0347 20.3154 21.3971 18.6348 19.0005L19.8097 17.8096C23.4111 19.6304 30.4449 25.8856 32.9181 28.7837Z" fill="#232E69"></path> </g> <mask id="mask14_3574_156" style="mask-type:luminance" maskUnits="userSpaceOnUse" x="-16" y="-5" width="564" height="163"> <path d="M547.376 -4.78418H-15.1084V157.806H547.376V-4.78418Z" fill="white"></path> </mask> <g mask="url(#mask14_3574_156)"> <path d="M25.9246 91.7582C26.357 93.9126 25.9936 96.2966 27.9388 98.6231C28.623 99.4401 32.4017 104.404 35.1405 106.968C31.4201 108.429 23.9752 111.449 18.6209 112.118C17.5479 112.252 16.3411 113.005 15.3329 113.58C14.6605 114.726 13.9689 116.765 13.6778 119.072C13.4706 120.72 13.4961 122.555 13.4961 124.428C13.4961 126.073 14.3726 131.264 16.22 134.742C18.0717 138.222 19.8469 139.781 22.0321 140.8C22.4613 140.608 23.4142 140.465 24.9015 140.434C28.9459 140.345 32.1138 142.573 33.5066 144.489C34.041 145.222 35.1139 145.37 36.5215 145.37C39.7872 145.37 43.3737 144.299 46.7818 143.003C47.5158 142.405 49.5683 141.039 51.5857 139.457C53.601 137.875 64.8396 128.363 69.8072 125.967C72.4259 127.38 76.721 129.202 81.1616 129.202C81.4198 129.202 82.275 129.215 83.1801 129.01C84.5665 128.698 86.3406 128.08 88.5811 127.646C92.5883 126.864 97.2881 126.178 98.6554 126.2C102.34 126.26 113.142 126.536 115.702 126.536C118.39 126.536 122.219 126.304 123.681 126.16C125.94 125.417 130.981 124.027 135.807 121.799C140.623 119.668 150.763 112.645 152.421 111.041C153.221 110.321 153.941 109.536 154.468 108.829C154.668 108.558 154.737 108.451 154.737 108.234C154.737 108.02 154.686 101.137 154.686 101.137C154.686 101.137 157.105 98.451 158.032 97.5246C158.123 97.4343 158.13 97.3143 158.116 97.2261C157.698 95.8461 157.283 91.5627 157.519 87.2241L155.067 86.082C154.973 91.483 152.998 96.0788 151.147 98.9397C147.499 99.5144 140.534 101.671 138.028 104.515L139.407 104.906C141.76 103.611 144.28 102.701 147.161 102.701C149.707 102.701 150.832 103.371 150.832 104.084C150.832 104.585 150.355 105.791 150.167 106.167C149.948 106.606 149.803 107.156 149.373 107.623C145.94 111.344 142.045 114.521 137.306 117.156C134.105 118.936 131.09 120.142 126.369 121.473C124.958 121.872 123.024 122.443 121.762 122.876C119.986 122.827 110.694 122.552 105.267 122.552C99.841 122.552 88.6533 123.341 85.1008 124.241C83.485 124.648 83.0855 125.293 81.2126 125.293C77.7069 125.293 73.1101 123.52 70.2874 122.154C69.8794 122.274 68.8617 122.726 67.8397 123.233C65.8351 124.227 61.3795 130.398 58.7874 128.528C57.4669 131.236 51.7536 133.8 49.801 136.608C50.0156 135.134 52.3219 125.61 52.5355 123.704C52.5758 123.364 52.6088 123.093 52.3942 122.733C50.3066 119.259 44.4796 117.051 41.1917 116.408C40.2281 116.219 39.7522 116.084 39.1041 115.939L33.9177 114.377L29.1095 115.939L34.6603 117.002L27.6148 121.655C28.8407 121.187 36.427 119.086 36.9879 118.918C37.6094 118.735 38.4391 118.557 39.341 118.872C40.3736 119.232 43.3015 119.901 45.048 120.507C46.07 120.86 47.7464 122.734 48.1798 123.741C48.3572 124.155 48.4231 125.029 48.5399 126.975C48.6122 128.197 48.2967 129.893 48.0013 131.218C47.2226 134.675 45.6482 137.371 45.1532 138.332C44.469 139.663 43.5161 140.096 42.5823 140.532C41.0472 141.25 39.1742 141.707 37.0867 141.73C35.6536 141.746 34.6975 141.668 34.0824 140.844C32.1617 138.256 27.4087 135.74 22.5601 136.674C19.5813 134.878 16.6322 129.079 16.6322 124.457C16.6322 121.691 18.0355 117.327 18.7888 115.132C23.6341 114.487 33.326 110.802 38.0471 108.663C39.0287 108.617 41.743 107.656 44.3352 107.656C50.6742 107.656 56.9633 113.192 60.7814 116.931C61.4072 115.9 62.5821 114.343 65.8223 114.343C70.315 114.343 72.8827 118.416 74.1692 122.6L76.5075 120.907C76.1006 118.51 74.8459 115.886 72.9539 113.999C71.4082 112.455 68.4548 111.173 66.1485 111.173C64.7557 111.173 63.3152 111.484 62.4026 111.484C59.1975 111.484 57.8918 110.058 55.5249 108.429C52.9678 106.666 48.2106 104.111 44.8132 104.111C42.6311 104.111 41.6453 104.964 39.8446 104.974C37.1898 104.984 36.2082 103.888 34.9344 102.308C34.3809 101.619 31.6932 99.2403 30.9729 98.2821C30.5617 97.7329 29.8308 95.4849 29.5653 94.3599L25.9246 91.7582Z" fill="#232E69"></path> </g> <mask id="mask15_3574_156" style="mask-type:luminance" maskUnits="userSpaceOnUse" x="-16" y="-5" width="564" height="163"> <path d="M547.376 -4.78418H-15.1084V157.806H547.376V-4.78418Z" fill="white"></path> </mask> <g mask="url(#mask15_3574_156)"> <path d="M29.5697 94.3646C30.3409 95.1858 31.0825 96.0952 32.046 96.825C32.9766 97.5304 34.1484 98.1455 35.2511 98.7659C36.8107 99.6455 38.5784 100.652 40.3281 101.211C41.8622 101.674 43.8594 101.865 45.7291 101.865C48.3946 101.865 51.5413 101.313 54.1451 102.529C55.8916 103.34 56.0074 105.183 57.3969 105.722C59.5578 106.563 65.5622 106.754 68.8895 106.754C75.4803 106.754 82.6087 105.919 86.8241 104.914L84.7695 102.657C81.8523 103.125 73.3014 104.052 69.3739 104.052C63.8454 104.052 58.6229 103.169 58.6229 100.887C58.6229 99.3067 60.328 97.0247 63.5692 97.0247C67.0495 97.0247 72.3092 99.1271 73.2844 99.415C74.2554 99.7029 74.6517 99.6296 75.2625 99.3438L77.3033 98.2964C74.6007 97.0375 65.1808 93.8079 61.9034 93.8079C60.3545 93.8079 59.51 94.031 58.5029 95.3239C57.2408 96.9408 53.8806 98.4153 48.5157 98.4153C45.573 98.4153 41.3618 97.8874 40.4375 97.5092C38.8228 96.8452 35.658 95.0126 33.6321 93.5561C31.024 91.679 28.7474 89.5946 27.1836 87.1586C26.696 86.3969 26.4963 85.5768 26.5037 84.8225C26.5112 84.1872 26.6854 83.6008 26.7512 83.1334C27.2166 83.7804 27.7222 84.2478 28.3692 84.8533C31.2025 87.608 35.385 89.6743 39.6843 90.4976C40.9135 90.7324 42.0013 90.9141 43.2082 90.9141C45.045 90.9141 46.7362 89.9325 47.8156 88.9731L46.1286 87.0131C45.5825 87.1767 44.4554 87.1767 43.7096 87.1767C37.4683 87.1767 29.5463 83.1036 27.7254 78.3879C27.5438 77.9236 27.3281 77.6697 27.5066 77.2384C27.6882 76.8081 27.9135 75.8913 28.0484 75.0457C28.4117 75.4664 29.1681 76.0985 30.1285 76.7136C32.4455 78.2009 36.868 80.2544 37.737 80.7962C39.9669 80.1556 41.6433 79.4045 42.967 78.7193C44.262 78.0479 46.0404 77.4424 48.095 77.4424C52.6557 77.4424 57.9005 80.0377 62.8213 82.4556L66.1826 81.1394C61.8142 78.0713 52.3072 73.7836 47.0263 73.7836C43.9019 73.7836 40.974 76.0602 38.8865 76.0602C36.3262 76.0602 28.9833 72.4886 28.9833 69.5108C28.9833 67.2215 33.733 65.9254 41.3745 64.9852C40.0583 66.9325 38.7994 68.9446 37.6287 71.0204L39.5707 72.0977C51.5402 54.8036 63.9867 43.5714 74.4583 36.7298C78.2626 34.246 79.1284 32.7927 80.4596 30.0774C83.6997 23.4631 86.7625 18.3766 92.0796 18.3766C94.5676 18.3766 96.5935 19.7662 97.9863 21.4904L101.842 22.6409L97.9385 25.2755L101.924 26.8574C96.7231 28.3139 89.6202 33.3643 86.7402 40.7689C81.1968 41.0632 78.5208 45.541 76.7126 49.2921C75.4909 51.8216 73.5447 52.8308 70.7114 54.7473L48.0493 70.5158L51.1705 70.9471L72.1052 56.9538C76.2367 54.1747 78.1978 52.1254 79.1869 50.1495C81.1331 46.2761 83.2206 43.3939 87.3266 43.3939C89.3451 43.3939 91.5059 44.2555 93.2333 45.8852L96.9069 47.0814L92.8987 49.528L96.2599 51.5879C86.6541 54.5901 80.7007 61.4593 77.2459 74.5899L79.7882 75.1647C81.0651 70.8165 82.3229 66.8284 84.5741 63.3078C90.1355 63.244 95.7723 63.0411 101.301 63.0411C116.057 63.0411 128.306 63.6626 134.918 65.6078L132.58 61.5559C125.505 60.3555 115.245 59.7361 101.301 59.7361C96.6275 59.7361 91.8915 59.9082 87.1885 59.9571C90.2215 56.753 94.5942 54.0525 101.326 51.9703L96.5468 49.3484L101.853 46.4132L94.626 43.7297C93.364 42.5982 91.7896 41.555 89.8104 41.06C92.1274 33.9624 100.009 29.816 107.567 26.9572L102.275 24.8006L107.614 21.8856L99.3907 19.2658C97.2447 16.7501 95.1785 15.5996 92.0105 15.5996C84.3839 15.5996 81.1798 22.2085 78.1543 28.0674C76.5607 31.1514 75.5568 32.4496 72.851 34.2173C66.9847 38.0461 59.51 43.8975 52.3741 51.3956C48.6463 48.711 41.0261 40.8698 38.9609 36.5906C38.146 37.5967 37.3429 39.7873 37.3429 39.7873C38.1174 40.6095 47.0942 49.6555 50.429 53.4895C50.1783 53.7678 49.9265 54.0494 49.6758 54.3309C46.119 55.0352 36.884 55.9191 33.7383 55.4931L31.9738 58.6207C34.3237 58.3901 43.5003 57.3118 47.3078 57.0898C46.1509 58.4847 45.0195 59.9263 43.9178 61.4083C32.1161 62.749 24.2303 65.1616 24.2303 69.5108C24.2303 70.229 24.5214 71.0417 24.5214 71.8098C24.5214 73.6317 23.834 74.3031 22.539 75.1179C21.6923 75.6491 21.6371 76.0167 21.9972 76.5202C22.3605 77.028 24.1825 79.7169 24.1825 80.2449C24.1825 81.1213 23.3135 81.9892 22.6113 82.7722C21.9972 83.4563 22.0227 83.6359 22.5018 84.4985L25.9247 91.7597L29.5697 94.3646Z" fill="#232E69"></path> </g> <mask id="mask16_3574_156" style="mask-type:luminance" maskUnits="userSpaceOnUse" x="-16" y="-5" width="564" height="163"> <path d="M547.376 -4.78418H-15.1084V157.806H547.376V-4.78418Z" fill="white"></path> </mask> <g mask="url(#mask16_3574_156)"> <path d="M175.685 53.9595C174.929 54.751 174.267 55.5945 173.71 56.4943L171.807 53.8278C178.158 45.3863 194.921 41.4269 204.756 40.7311V36.2023C203.509 36.5858 202.163 37.0192 200.916 37.3135C199.151 37.7352 197.533 38.1304 196.162 38.0954C194.783 38.0603 193.674 37.51 193.158 36.777C191.837 34.8966 193.063 32.0559 197.384 29.3979L193.976 26.5699C191.345 29.9726 188.752 33.7302 186.116 35.976C183.723 38.0146 181.213 39.0313 179.184 37.5206C178.097 36.709 177.685 36.3351 177.577 34.2146C177.726 31.0955 179.621 26.333 181.297 23.2649L177.265 22.7922C176.544 27.4899 174.616 31.4939 172.551 34.8C169.976 38.9208 166.655 41.8147 163.24 44.1805L160.999 41.9783C163.756 40.3529 167.207 37.7119 169.583 34.0712C172.34 29.843 174.573 24.6152 174.577 19.8633L186.245 20.9649C184.605 23.044 181.899 27.7842 180.872 31.1901C180.338 32.9653 180.367 34.3782 181.011 34.8616C182.247 35.7858 184.414 34.3102 186.517 32.0591C189.481 28.8816 192.387 24.0883 193.664 22.3768L202.101 29.3618C198.356 31.3441 194.718 33.6133 195.438 34.885C196.1 36.045 198.504 35.6977 201.138 34.8903C203.294 34.2284 205.583 33.2341 207.397 32.177V43.5591C203.327 43.5049 196.439 44.2634 189.805 46.2691C191.383 48.4926 195.915 49.3096 198.789 49.7037L197.348 58.9419C190.087 55.9004 184.487 54.1274 175.685 53.9595L178.595 51.4662C185.083 51.599 191.586 53.4793 195.271 55.331L195.797 51.8337C192.481 51.3939 188.298 49.5157 186.526 47.3772C183.639 48.4639 180.903 49.8142 178.594 51.4672L175.685 53.9595Z" fill="#232E69"></path> </g> <mask id="mask17_3574_156" style="mask-type:luminance" maskUnits="userSpaceOnUse" x="-16" y="-5" width="564" height="163"> <path d="M547.376 -4.78418H-15.1084V157.806H547.376V-4.78418Z" fill="white"></path> </mask> <g mask="url(#mask17_3574_156)"> <path d="M140.914 83.3092L143.617 77.4885C140.787 74.1474 137.601 69.9214 134.917 65.6061L132.579 61.5543C127.175 51.3079 129.142 46.4147 126.258 41.9061C123.875 38.1804 112.296 40.4985 110.375 40.899L113.725 35.3652L107.123 35.891L112.717 29.2556C113.328 28.3919 113.619 27.6026 114.266 25.3015C115.248 21.8064 118.264 15.8359 127.076 15.8359C136.856 15.8359 139.889 23.7356 144.156 27.1659C148.993 31.0563 155.339 36.5189 160.998 41.9773L163.239 44.1795C166.13 47.1286 169.084 50.1584 171.808 53.8289L173.71 56.4954C185.488 73.6513 200.112 106.445 206.586 121.458C207.212 122.914 207.659 124.388 208.044 125.507C203.651 123.09 198.81 120.089 193.834 116.654L190.932 114.614C189.136 113.326 187.328 111.984 185.528 110.6L182.542 108.26C180.756 106.832 178.985 105.367 177.235 103.863L183.123 138.085C183.556 140.098 185.284 139.764 186.676 137.99C188.069 136.216 188.597 135.737 188.069 133.391L182.542 108.26L185.527 110.6L190.823 131.951C191.335 133.88 192.151 134.492 194.408 134.588C196.663 134.682 197.144 133.82 196.663 132.335L190.931 114.612L193.833 116.653L199.256 132.575C200.649 136.648 199.256 137.127 196.808 137.127C194.356 137.127 192.148 136.552 190.807 137.415C189.461 138.278 187.777 140.634 185.762 142.694C183.979 144.513 181.39 144.035 180.866 140.626L174.359 101.337C170.118 97.5309 166.085 93.5375 162.477 89.4581C160.891 88.7856 159.105 87.9633 157.523 87.2271L155.071 86.0851C154.202 85.6857 153.559 85.3988 153.3 85.3255C151.5 87.48 149.772 89.8894 147.757 91.6136C146.684 92.5293 145.953 93.052 144.37 93.052C143.879 93.052 143.276 93.0424 142.712 92.728C142.108 92.3891 141.54 91.7113 140.911 90.751C140.435 90.0211 139.73 89.0894 139.112 88.0558C137.828 85.8992 136.438 83.1987 135.187 81.0113C133.784 78.5562 132.579 76.7162 132.412 76.4102C132.162 75.9428 131.477 75.3691 131.477 75.3691C130.793 76.4835 130.288 78.6412 130.288 79.8257L127.84 78.9981C128.164 77.3823 128.811 75.298 129.171 74.2898C129.171 73.4272 128.2 72.2766 127.408 72.2766C126.291 72.2766 125.137 73.4983 124.564 75.8355L122.08 76.9138C122.368 73.1403 123.662 69.0067 127.409 69.0067C130.434 69.0067 132.307 71.3078 133.748 73.4622C135.19 75.6188 139.907 82.0524 140.914 83.3092L142.787 85.6825C143.111 87.157 143.743 88.0143 144.049 88.4871C144.696 89.4931 145.418 89.4219 146.389 88.5232C146.832 88.1142 148.258 86.9552 149.641 85.5135C150.841 84.2642 152.009 82.7493 152.477 81.9823C153.849 82.5974 156.409 83.817 158.471 84.7253C149.626 73.8521 141.165 60.6566 137.496 51.6819C135.975 47.9753 138.943 46.7313 140.376 50.389C144.264 60.3092 155.644 77.8487 163.998 87.0487C173.654 97.6839 191.371 113.072 202.893 119.253C201.22 116.001 199.017 111.328 196.47 105.917C182.452 98.0047 168.286 83.4749 161.681 70.9933L164.587 71.3301C170.73 82.1756 185.413 96.6459 194.084 100.851C186.151 84.0549 175.833 62.7781 167.781 53.6228C157.794 42.2683 146.883 33.488 141.671 28.9178C136.535 24.4134 134.422 18.7585 127.024 18.7585C120.928 18.7585 117.721 23.1449 116.498 27.5654C116.248 28.428 116.102 28.9677 115.487 29.8664L112.607 33.3159L118.837 32.5616L115.236 37.594C115.236 37.594 125.001 35.4077 128.417 40.0385C132.101 45.0305 129.722 50.6365 135.764 61.5309C138.42 66.3211 144.849 74.9314 147.003 76.8437L142.787 85.6835L140.914 83.3092Z" fill="#232E69"></path> </g> <mask id="mask18_3574_156" style="mask-type:luminance" maskUnits="userSpaceOnUse" x="-16" y="-5" width="564" height="163"> <path d="M547.376 -4.78418H-15.1084V157.806H547.376V-4.78418Z" fill="white"></path> </mask> <g mask="url(#mask18_3574_156)"> <path d="M44.9386 84.8225L43.4619 83.8165C44.2874 83.1281 45.9202 82.0455 47.5318 81.3731C48.3647 81.0235 49.3144 80.8525 50.0018 80.8525C51.6569 80.8525 53.0826 81.543 54.4753 82.2835C56.6755 83.4553 59.1486 84.8289 61.0481 84.8289C61.7684 84.8289 62.4632 84.661 63.278 84.661C65.1509 84.661 66.9516 85.5003 67.9842 85.5003C68.6099 85.5003 69.0391 84.9404 69.4503 84.3498C70.4829 82.8657 71.9128 81.7651 73.7315 81.0055C75.6884 80.1885 78.0447 79.8613 80.605 79.8613C82.6202 79.8613 84.5548 80.1492 85.563 80.3649C85.563 80.3649 84.0247 82.2166 83.639 82.6256C81.6057 82.6256 77.7249 82.5597 75.2369 83.5583C73.706 84.1755 73.1642 85.0679 73.1642 86.3321C73.1642 88.1657 75.2114 88.8775 77.4955 89.5691C78.8415 89.9781 80.3511 90.0769 81.6238 90.0769C83.1907 90.0769 86.1993 89.4862 89.1707 88.835C92.754 88.0457 96.0888 87.1076 97.0597 86.7475L98.359 89.0719C94.3688 90.4201 90.2883 91.6959 86.4978 92.4651C84.3551 92.8985 82.3154 93.1694 80.4966 93.1694C77.4562 93.1694 74.1533 91.8967 71.4443 90.6049C69.157 89.516 67.1131 88.443 65.2869 88.443C63.2355 88.443 61.3041 89.1484 59.4057 90.231C58.4751 90.7621 55.6705 92.6914 53.1718 93.673C51.2553 94.4272 49.6916 94.8458 47.7496 94.8458C46.019 94.8458 44.9853 94.6057 44.0908 93.9056L47.0983 92.0667C47.484 92.4545 48.1788 92.5235 48.6111 92.5235C49.0435 92.5235 49.5609 92.4693 50.739 91.9764C51.4115 91.6949 52.3974 91.0893 52.9721 90.7175C54.1577 89.9516 54.5582 89.5043 55.0235 89.1378C55.9361 88.4196 56.2707 87.4667 55.1074 86.4299C54.5656 85.9422 53.9951 85.4482 53.26 85.0042C52.2231 84.3774 51.4699 83.7697 49.5864 83.7697C47.365 83.7676 45.8012 84.3753 44.9386 84.8225Z" fill="#232E69"></path> </g> <mask id="mask19_3574_156" style="mask-type:luminance" maskUnits="userSpaceOnUse" x="-16" y="-5" width="564" height="163"> <path d="M547.376 -4.78418H-15.1084V157.806H547.376V-4.78418Z" fill="white"></path> </mask> <g mask="url(#mask19_3574_156)"> <path d="M86.86 86.008C86.86 86.008 85.07 85.5172 84.4453 85.4683C85.6638 83.8238 87.2425 82.4566 88.4791 81.6237C90.9235 79.9781 93.4806 79.0709 97.3497 78.8393C98.4046 78.7755 100.547 78.5705 101.744 78.6225C102.824 78.6714 104.649 78.7426 106.327 79.0539C107.516 79.2748 108.626 79.6063 109.546 79.7486C110.11 79.8379 112.062 79.8103 112.739 79.7019C115.478 79.2706 118.766 78.2167 120.497 77.2744L121.218 79.8984C117.518 81.7862 113.339 83.6007 109.514 83.6007C107.567 83.6007 105.495 83.4573 103.567 83.2735C100.169 82.9484 97.2233 82.4991 96.213 82.4991C93.4573 82.4991 89.4968 83.775 86.86 86.008Z" fill="#232E69"></path> </g> <mask id="mask20_3574_156" style="mask-type:luminance" maskUnits="userSpaceOnUse" x="-16" y="-5" width="564" height="163"> <path d="M547.376 -4.78418H-15.1084V157.806H547.376V-4.78418Z" fill="white"></path> </mask> <g mask="url(#mask20_3574_156)"> <path d="M84.1326 100.621L80.6523 99.0315C85.4754 96.5945 92.8471 94.15 95.8737 93.6719C98.8961 93.1917 102.355 92.8337 104.348 92.1623C105.261 94.4634 107.061 96.9227 109.655 96.9227C110.604 96.9227 112.161 96.2067 113.721 95.5215C115.478 94.7481 117.242 93.9025 118.154 93.4956C119.14 93.0589 122.349 91.6535 125.061 90.4498C126.101 89.9877 128.949 88.6353 129.113 88.5439L130.939 89.5256C130.393 91.9201 129.48 94.8649 128.455 96.9705C128.051 97.7939 127.651 98.478 127.218 98.9667C126.422 99.8612 125.138 101.044 123.473 102.227C121.646 103.523 119.418 104.849 117.057 106.202C115.217 107.257 113.369 108.33 111.492 109.191L110.521 107.43C113.413 105.795 116.356 103.728 118.934 101.816C120.156 100.912 121.342 99.9982 122.186 99.228C122.815 98.6565 123.208 98.1806 123.52 97.7184C124.288 96.5923 125.536 94.389 125.921 93.3362C124.841 93.8621 120.76 95.7807 118.934 96.7368C116.875 97.8172 113.533 99.517 111.66 100.399C110.187 101.096 108.874 101.474 107.928 101.474C105.836 101.474 104.884 99.9717 104.372 99.0623C103.051 96.7124 101.636 96.4957 97.9156 96.4489C93.5929 96.3937 87.6607 98.1763 84.1326 100.621Z" fill="#232E69"></path> </g> <mask id="mask21_3574_156" style="mask-type:luminance" maskUnits="userSpaceOnUse" x="-16" y="-5" width="564" height="163"> <path d="M547.376 -4.78418H-15.1084V157.806H547.376V-4.78418Z" fill="white"></path> </mask> <g mask="url(#mask21_3574_156)"> <path d="M104.435 89.7813C104.435 89.7813 103.926 87.7277 103.685 86.9862C103.685 86.9862 104.288 86.7865 105.078 86.7865C106.377 86.7865 109.577 87.1466 110.904 87.1466C115.906 87.1466 117.753 85.5786 119.219 84.2549C120.471 83.1256 121.762 82.2109 125.166 82.2109C128.167 82.2109 131.611 83.4146 132.593 83.8948L132.379 86.6186C130.914 85.8113 128.898 85.2599 127.12 85.2599C125.88 85.2599 124.763 85.3576 123.974 85.7634C123.087 86.2203 122.552 86.9108 121.719 87.5896C120.835 88.3099 119.627 89.0132 118.045 89.5975C116.459 90.1807 114.504 90.5717 111.575 90.5717C107.718 90.5727 105.631 89.9321 104.435 89.7813Z" fill="#232E69"></path> </g> <mask id="mask22_3574_156" style="mask-type:luminance" maskUnits="userSpaceOnUse" x="-16" y="-5" width="564" height="163"> <path d="M547.376 -4.78418H-15.1084V157.806H547.376V-4.78418Z" fill="white"></path> </mask> <g mask="url(#mask22_3574_156)"> <path d="M72.7529 110.373L75.055 109.42C77.1681 110.234 80.2234 111.162 82.3513 111.162C83.6282 111.162 84.6863 110.7 85.5522 110.316C86.2289 110.017 93.9139 106.254 97.7288 104.874C98.9399 104.433 100.169 104.19 100.769 104.19C101.682 104.19 101.733 104.599 101.995 105.017C102.716 106.167 108.382 114.247 108.96 114.871C113.771 113.392 118.7 111.235 121.54 108.507C124.504 105.663 126.959 102.362 129.338 99.8106C130.255 98.8248 131.389 97.9313 131.949 97.636C134.408 96.3304 142.057 96.2156 145.272 96.3612L143.363 99.0542C137.7 99.0542 134.529 99.6364 133.103 100.709C132.5 101.161 131.586 102.076 130.72 103.205C128.786 105.722 126.672 109.168 125.825 109.839C127.483 110.989 129.295 111.995 132.176 111.995C136.98 111.995 140.417 108.994 142.301 107.304L143.916 108.265C142.726 109.811 141.363 111.389 139.621 112.572C137.689 113.88 135.264 114.726 133.823 115.123C131.037 114.595 124.902 113.363 123.461 113.075C118.155 115.23 109.514 118.716 106.607 119.591C106.188 119.718 105.508 119.82 104.654 119.903C102.355 120.028 99.1651 120.012 96.2596 119.974C94.1976 119.946 92.2439 119.961 91.2655 119.783L88.7052 117.111C90.9638 117.542 91.8402 117.675 93.9532 117.675C98.9463 117.675 102.162 116.843 103.22 116.571C104.111 116.344 104.257 115.826 103.991 115.027C103.57 113.744 102.831 112.536 101.707 111.235C101.104 110.536 99.7431 109.329 99.1864 108.951C98.4991 108.486 97.8298 108.367 95.942 109.007C94.1955 109.6 88.7764 112.528 86.435 113.77C85.2855 114.379 84.3836 114.559 82.3141 114.074C80.114 113.559 74.8585 111.647 72.7529 110.373Z" fill="#232E69"></path> </g> <mask id="mask23_3574_156" style="mask-type:luminance" maskUnits="userSpaceOnUse" x="-16" y="-5" width="564" height="163"> <path d="M547.376 -4.78418H-15.1084V157.806H547.376V-4.78418Z" fill="white"></path> </mask> <g mask="url(#mask23_3574_156)"> <path d="M87.7808 50.3262C88.8662 50.3262 89.7461 49.4463 89.7461 48.3609C89.7461 47.2754 88.8662 46.3955 87.7808 46.3955C86.6953 46.3955 85.8154 47.2754 85.8154 48.3609C85.8154 49.4463 86.6953 50.3262 87.7808 50.3262Z" fill="#232E69"></path> </g> </g> <defs> <clipPath id="clip0_3574_156"> <rect width="529.47" height="153.047" fill="white"></rect> </clipPath> </defs> </svg> 