<?xml version="1.0" encoding="UTF-8"?> <svg xmlns="http://www.w3.org/2000/svg" width="20" height="20" viewBox="0 0 20 20" fill="none"> <g clip-path="url(#clip0_3557_2)"> <path fill-rule="evenodd" clip-rule="evenodd" d="M8 0C3.58172 0 0 3.58172 0 8V12C0 16.4183 3.58172 20 8 20H12C16.4183 20 20 16.4183 20 12V8C20 3.58172 16.4183 0 12 0H8ZM10 13C11.6569 13 13 11.6569 13 10C13 8.34315 11.6569 7 10 7C8.34315 7 7 8.34315 7 10C7 11.6569 8.34315 13 10 13Z" fill="#F31EE2"></path> </g> <defs> <clipPath id="clip0_3557_2"> <rect width="20" height="20" fill="white"></rect> </clipPath> </defs> </svg> 