<?xml version="1.0" encoding="UTF-8"?> <svg xmlns="http://www.w3.org/2000/svg" width="450" height="110" viewBox="0 0 450 110" fill="none"> <path fill-rule="evenodd" clip-rule="evenodd" d="M379.37 0.711914H403.31H403.466C403.466 0.714914 403.471 0.714905 403.471 0.714905C429.076 0.799905 450 21.7739 450 47.3979V62.6009C450 88.2789 428.99 109.287 403.31 109.287H379.37C353.691 109.287 332.682 88.2779 332.682 62.6009V60.7819V47.3979V0.711914H379.37Z" fill="#E67218"></path> <path fill-rule="evenodd" clip-rule="evenodd" d="M341.864 33.3243L387.813 23.9043L371.279 44.4383C362.713 55.0733 347.334 47.4693 345.034 36.8933C344.59 34.8513 342.735 33.3013 341.864 33.3243ZM392.589 22.6843C394.25 22.6843 395.605 24.0393 395.605 25.7003C395.605 27.3603 394.25 28.7163 392.589 28.7163C390.929 28.7163 389.575 27.3603 389.575 25.7003C389.574 24.0403 390.929 22.6843 392.589 22.6843ZM421.659 53.9913L388.609 53.3503C381.398 53.2133 374.856 59.7943 375.477 68.6223C376.095 77.4553 382.177 79.9583 389.403 80.5223C396.63 81.0873 404.497 74.6193 410.473 70.1173C412.539 68.5633 413.593 70.7103 411.978 72.0293C406.151 76.7813 399.135 83.2443 389.403 82.8633C379.671 82.4803 374.075 77.9893 372.559 69.0263C371.051 60.0623 378.472 53.5193 386.542 48.2663C394.61 43.0123 399.895 37.8613 406.571 32.6573C407.167 32.0753 407.918 31.0393 408.106 30.1793C409.145 25.5363 409.651 21.1973 412.812 18.3523C406.624 12.2853 394.969 9.19526 391.744 15.7493L346.484 25.3743C343.954 25.9113 341.13 28.5743 341.539 31.3573L391.223 20.9523C395.849 19.8563 400.1 25.5153 396.684 29.7943C390.879 33.9573 390.663 36.3153 379.972 41.8543C369.278 47.3923 359.13 58.5073 360.932 70.0153C362.732 81.5223 372.688 89.8063 387.842 93.0743L388.101 103.932C388.096 105.803 386.477 108.088 381.68 109.286H404.491C400.81 107.864 398.144 106.503 398.043 103.904L398.51 93.0063C405.26 91.1953 410.132 89.4453 416.197 82.8623C422.264 76.2783 426.569 71.0663 430.241 63.3523L416.978 63.6123L421.659 53.9913Z" fill="white"></path> <path fill-rule="evenodd" clip-rule="evenodd" d="M237.164 53.6974L236.873 60.9174C233.338 61.7724 229.252 60.9694 225.84 60.9694C213.912 60.9694 207.626 53.1044 207.066 42.3574C206.599 33.4264 215.938 24.5244 225.5 24.5244C235.063 24.5244 233.239 25.1034 237.39 25.6344L237.224 32.1304C229.732 31.4454 220.659 30.5704 220.739 43.0644C220.823 55.5614 230.002 53.8604 237.164 53.6974ZM183.994 61.1994L184.235 45.0034L184.131 36.3394C184.08 34.7864 184.015 33.1854 183.938 31.5504C183.861 29.9054 183.74 26.8644 183.586 24.4194C186.061 24.4634 188.036 24.4894 189.482 24.4894C191.182 24.4894 195.855 24.4644 198.069 24.4194L198.123 26.2824C198.152 26.2444 204.13 24.4234 205.927 24.8594L205.846 31.5264C205.331 31.3664 199.019 30.9784 199.019 33.2994L198.972 61.2004C194.844 61.1054 188.122 61.1144 183.994 61.1994ZM180.563 51.1854C180.349 52.5404 180.827 55.2164 180.521 58.2024C177.97 58.7234 172.629 60.5404 170.889 60.7154C169.142 60.8884 167.376 60.9694 165.584 60.9694C162.953 60.9694 160.518 60.7824 158.275 60.4134C156.045 60.0324 154.105 59.3704 152.447 58.4194C150.786 57.4694 149.388 56.2854 148.228 54.8694C147.065 53.4534 146.166 51.7744 145.497 49.8234C144.83 47.8784 144.444 45.8734 144.339 43.8174C144.192 40.9184 144.614 38.0794 145.595 35.3054C146.59 32.5354 147.93 30.3664 149.64 28.8024C151.34 27.2344 153.338 26.1334 155.631 25.4744C157.922 24.8144 160.287 24.4894 162.725 24.4894C165.253 24.4894 167.674 24.7894 169.994 25.3944C172.317 25.9854 174.321 27.0404 175.986 28.5354C177.662 30.0314 178.881 31.7124 179.657 33.5924C180.422 35.4714 180.867 37.4994 180.977 39.6804C181.041 40.9684 180.969 41.1724 180.766 42.7604L157.472 42.7954C157.467 43.1544 157.475 44.7144 157.49 45.0134C157.926 53.5474 166.69 54.3444 172.616 53.2154C174.467 52.8634 177.86 52.0204 180.563 51.1854ZM157.496 36.2424H167.268C167.27 35.8004 167.266 35.4094 167.253 35.0994C167.113 31.6734 166.858 28.7854 162.412 28.7904C157.966 28.7954 157.851 32.6564 157.496 36.2424ZM84.5947 60.0904L84.6817 43.7134L84.5717 30.9134L84.3737 25.4054C86.6327 25.4494 88.6157 25.4754 90.3357 25.4754C92.2887 25.4754 95.7037 25.4504 97.5497 25.4054L97.5397 29.9254C98.1387 29.0224 98.4647 28.0854 99.0587 27.8394C104.885 25.4344 107.486 24.5244 110.459 24.5244C113.43 24.5244 116.467 25.0444 118.841 29.3154C120.784 27.3104 125.569 25.3454 129.617 24.7034C133.666 24.0614 136.427 27.2294 137.267 28.6444C138.107 30.0614 138.085 32.0944 138.163 33.7304C138.237 35.3654 138.223 36.3414 138.188 38.4514C138.148 40.5594 138.137 44.1774 138.143 49.3034C138.148 54.4294 138.198 58.0244 138.272 60.0894C136.383 60.0404 132.687 60.0194 130.924 60.0194C128.773 60.0194 126.531 60.0404 124.17 60.0894C124.245 57.2114 124.28 53.6044 124.29 49.2684C124.301 44.9324 124.269 40.3964 124.191 38.7164C124.12 37.2564 123.91 36.1554 123.576 35.4354C123.233 34.7054 122.815 34.2154 122.321 33.9504C121.825 33.6854 121.296 33.5544 120.715 33.5544C120.11 33.5544 119.577 33.6804 119.14 33.9254C118.657 34.2004 117.9 34.5404 117.909 35.2024L118.352 60.0884C116.157 60.0394 112.474 60.0184 110.71 60.0184C108.918 60.0184 106.788 60.0394 104.357 60.0884C104.441 58.0684 104.503 54.6834 104.517 49.9284C104.535 45.1744 104.512 40.2964 104.437 38.6854C104.372 37.3284 104.198 36.3054 103.922 35.6254C103.652 34.9504 103.276 34.4054 102.819 34.0004C102.361 33.5954 101.931 33.3854 101.196 33.3854C100.401 33.3854 99.5457 33.6394 98.9757 34.1634C98.4107 34.6814 97.5657 35.3704 97.5597 36.4134L97.4597 60.0894C94.9847 60.0404 92.4587 60.0194 90.9287 60.0194C89.2287 60.0204 87.1097 60.0414 84.5947 60.0904ZM37.8127 50.1324L38.1077 59.2334C33.7577 59.9414 28.6557 60.5684 25.2277 60.2894C21.0547 59.9524 19.3017 59.6554 16.4017 58.7384C13.5007 57.8224 10.6357 55.9804 8.15271 53.8904C5.66671 51.7974 3.68171 49.6774 2.52671 46.8434C1.36871 44.0084 0.201711 41.9754 0.0247107 38.1714C-0.153289 34.3694 0.688711 30.5604 1.91971 27.2894C3.15071 24.0204 5.51271 21.7984 8.00171 19.6134C10.4897 17.4284 12.5797 15.6984 15.6307 14.7574C18.6757 13.8224 21.6757 13.0054 24.9797 13.0054C28.0097 13.0054 33.1367 13.7724 37.6447 14.6324L37.7697 22.7544C36.5067 22.4214 29.6077 22.6484 27.0577 22.6484C23.3327 22.6484 18.6707 26.8694 17.7767 30.3244C17.1237 32.8354 16.7837 35.5354 16.9107 38.2414C17.0367 40.9474 17.6667 43.0374 18.8167 44.8854C20.6867 47.8884 22.6227 50.6744 26.5527 50.6744C29.2387 50.6754 35.5847 50.7794 37.8127 50.1324ZM57.8657 24.5254C60.7267 24.5254 63.5027 24.9534 66.1957 25.8104C68.8887 26.6804 71.1887 27.9104 73.0937 29.5344C75.0017 31.1574 76.4507 33.0474 77.4267 35.2054C78.4047 37.3734 78.9657 39.6934 79.0997 42.1834C79.2267 44.6094 78.9597 46.9144 78.3067 49.0954C77.6447 51.2884 76.4517 53.3284 74.6987 55.2414C72.9557 57.1564 70.6797 58.5954 67.8817 59.5454C65.0817 60.4954 62.0967 60.9704 58.9027 60.9704C55.9717 60.9704 53.1367 60.5534 50.3867 59.7174C47.6457 58.8714 45.3217 57.6544 43.4177 56.0424C41.5247 54.4424 40.0617 52.5164 39.0317 50.2684C38.0037 48.0314 37.4157 45.6754 37.2857 43.2074C37.1567 40.7374 37.4777 38.3834 38.2467 36.1434C39.0117 33.8934 40.3117 31.8884 42.1447 30.0924C43.9777 28.3074 46.2907 26.9264 49.0757 25.9614C51.8627 25.0004 54.7907 24.5254 57.8657 24.5254ZM58.2627 31.2854C62.6187 31.2854 66.1687 36.3664 66.1687 42.5924C66.1687 48.8214 62.6187 53.9004 58.2627 53.9004C53.9067 53.9004 50.3557 48.8214 50.3557 42.5924C50.3557 36.3674 53.9057 31.2854 58.2627 31.2854ZM240.925 24.5954H254.122V60.9794H240.925V24.5954ZM278.222 52.6504C278.247 49.8844 278.262 46.7094 278.256 43.4344C274.761 43.8944 269.915 46.6244 269.109 48.4254C268.305 50.2254 268.629 52.0954 269.701 52.9854C270.775 53.8784 272.991 54.3454 274.306 54.1664C275.446 54.0114 276.606 53.4164 277.447 53.0514C277.672 52.9354 277.957 52.7884 278.222 52.6504ZM261.412 33.6914L261.617 26.7904C267.455 25.3654 272.365 24.5254 276.616 24.5254C279.026 24.5254 281.251 24.8254 283.297 25.4304C285.327 26.0214 286.949 26.9954 288.133 28.3254C289.328 29.6604 289.973 31.5764 290.093 34.0674C290.154 35.3424 290.134 38.1974 290.033 42.6234C289.933 47.0674 289.973 53.7464 290.154 60.9474H278.007C278.036 60.5264 278.007 58.9364 278.027 58.2644C275.491 59.7444 272.071 60.9704 269.104 60.9704C266.565 60.9704 264.433 60.5784 262.702 59.7994C258.011 57.6914 257.112 51.6254 258.108 46.6724C259.496 39.7274 270.586 37.9174 272.275 37.8674C273.965 37.8184 275.746 37.2674 276.117 37.0724C277.721 36.2124 278.106 34.9574 278.083 33.2014C278.042 30.7464 275.596 30.5224 274.946 30.5224C271.42 30.5224 266.495 31.5014 261.412 33.6914ZM297.041 10.9014H310.233V60.9794H297.041V10.9014ZM191.593 99.2664L191.302 106.483C187.772 107.341 183.681 106.54 180.267 106.54C168.342 106.54 162.056 98.6744 161.496 87.9264C161.026 78.9954 170.365 70.0924 179.93 70.0924C189.497 70.0924 187.667 70.6744 191.817 71.2014L191.652 77.6984C184.16 77.0124 175.086 76.1384 175.168 88.6334C175.254 101.13 184.431 99.4294 191.593 99.2664ZM99.2747 96.7534C99.0647 98.1084 99.5397 100.786 99.2347 103.771C96.6847 104.295 91.3407 106.109 89.6027 106.284C87.8547 106.457 86.0867 106.54 84.2967 106.54C81.6667 106.54 79.2297 106.355 76.9877 105.982C74.7567 105.599 72.8167 104.939 71.1597 103.988C69.4997 103.035 68.0987 101.852 66.9387 100.439C65.7787 99.0264 64.8777 97.3424 64.2107 95.3954C63.5437 93.4474 63.1577 91.4384 63.0527 89.3884C62.9077 86.4894 63.3277 83.6484 64.3077 80.8774C65.3037 78.1034 66.6437 75.9374 68.3537 74.3714C70.0547 72.8054 72.0517 71.7034 74.3447 71.0434C76.6347 70.3844 78.9997 70.0584 81.4357 70.0584C83.9657 70.0584 86.3867 70.3604 88.7067 70.9644C91.0277 71.5524 93.0327 72.6104 94.6977 74.1044C96.3727 75.6034 97.5927 77.2824 98.3677 79.1594C99.1327 81.0414 99.5787 83.0684 99.6887 85.2494C99.7537 86.5364 99.6807 86.7414 99.4787 88.3294L76.1847 88.3664C76.1797 88.7254 76.1867 90.2834 76.2017 90.5834C76.6347 99.1174 85.3987 99.9174 91.3267 98.7844C93.1807 98.4314 96.5737 97.5854 99.2747 96.7534ZM76.2097 81.8134H85.9817C85.9837 81.3694 85.9797 80.9794 85.9667 80.6704C85.8277 77.2424 85.5717 74.3544 81.1267 74.3604C76.6807 74.3644 76.5647 78.2274 76.2097 81.8134ZM4.54171 105.658L4.62671 89.2854L4.51671 76.4844L4.32171 70.9744C6.57671 71.0234 8.56171 71.0444 10.2827 71.0444C12.2327 71.0444 15.6487 71.0234 17.4937 70.9744L17.4857 75.4984C18.0837 74.5944 18.4077 73.6564 19.0047 73.4114C24.8307 71.0084 27.4327 70.0954 30.4037 70.0954C33.3747 70.0954 36.4117 70.6164 38.7877 74.8884C40.7287 72.8814 45.5147 70.9164 49.5657 70.2764C53.6117 69.6324 56.3717 72.8014 57.2117 74.2174C58.0517 75.6364 58.0327 77.6664 58.1077 79.3024C58.1847 80.9384 58.1677 81.9134 58.1317 84.0254C58.0947 86.1344 58.0817 89.7534 58.0877 94.8764C58.0927 100.002 58.1417 103.597 58.2177 105.661C56.3267 105.617 52.6317 105.592 50.8687 105.592C48.7187 105.592 46.4757 105.617 44.1177 105.661C44.1897 102.785 44.2247 99.1814 44.2337 94.8414C44.2447 90.5044 44.2147 85.9724 44.1337 84.2894C44.0667 82.8304 43.8537 81.7284 43.5187 81.0084C43.1787 80.2774 42.7587 79.7904 42.2637 79.5234C41.7687 79.2564 41.2387 79.1314 40.6607 79.1314C40.0527 79.1314 39.5207 79.2544 39.0827 79.5004C38.6027 79.7744 37.8427 80.1124 37.8517 80.7764L38.2947 105.66C36.1027 105.616 32.4167 105.591 30.6567 105.591C28.8607 105.591 26.7337 105.616 24.3027 105.66C24.3857 103.642 24.4447 100.255 24.4607 95.5024C24.4797 90.7454 24.4557 85.8684 24.3807 84.2584C24.3157 82.9004 24.1437 81.8804 23.8707 81.1984C23.5957 80.5224 23.2237 79.9804 22.7657 79.5724C22.3057 79.1674 21.8757 78.9594 21.1437 78.9594C20.3457 78.9594 19.4927 79.2134 18.9227 79.7344C18.3607 80.2554 17.5107 80.9414 17.5087 81.9854L17.4107 105.66C14.9297 105.616 12.4047 105.591 10.8747 105.591C9.17271 105.589 7.05671 105.613 4.54171 105.658ZM143.626 70.1674H156.823V106.548H143.626V70.1674ZM298.54 98.2184C298.571 95.4544 298.586 92.2774 298.581 89.0024C295.084 89.4624 290.239 92.1924 289.433 93.9914C288.624 95.7934 288.949 97.6634 290.023 98.5544C291.094 99.4464 293.315 99.9104 294.631 99.7324C295.765 99.5804 296.925 98.9844 297.766 98.6184C297.994 98.5024 298.275 98.3594 298.54 98.2184ZM281.738 79.2634L281.943 72.3614C287.778 70.9364 292.69 70.0934 296.936 70.0934C299.352 70.0934 301.578 70.3964 303.617 70.9994C305.647 71.5894 307.267 72.5644 308.453 73.8974C309.648 75.2304 310.298 77.1434 310.413 79.6374C310.473 80.9134 310.459 83.7654 310.358 88.1944C310.26 92.6354 310.294 99.3174 310.478 106.518H298.333C298.362 106.095 298.328 104.507 298.351 103.836C295.815 105.315 292.392 106.541 289.425 106.541C286.889 106.541 284.759 106.147 283.023 105.369C278.333 103.261 277.438 97.1964 278.429 92.2404C279.817 85.3004 290.907 83.4874 292.602 83.4384C294.292 83.3864 296.073 82.8374 296.436 82.6414C298.048 81.7804 298.433 80.5294 298.404 78.7734C298.363 76.3184 295.923 76.0914 295.267 76.0914C291.744 76.0914 286.814 77.0704 281.738 79.2634ZM217.254 98.2184C217.282 95.4544 217.297 92.2774 217.292 89.0024C213.798 89.4624 208.951 92.1924 208.144 93.9914C207.34 95.7934 207.664 97.6634 208.735 98.5544C209.809 99.4464 212.028 99.9104 213.341 99.7324C214.48 99.5804 215.641 98.9844 216.479 98.6184C216.707 98.5024 216.994 98.3594 217.254 98.2184ZM200.449 79.2634L200.654 72.3614C206.492 70.9364 211.402 70.0934 215.65 70.0934C218.063 70.0934 220.288 70.3964 222.333 70.9994C224.363 71.5894 225.985 72.5644 227.168 73.8974C228.363 75.2304 229.013 77.1434 229.128 79.6374C229.188 80.9134 229.173 83.7654 229.075 88.1944C228.974 92.6354 229.009 99.3174 229.194 106.518H217.045C217.076 106.095 217.04 104.507 217.064 103.836C214.529 105.315 211.108 106.541 208.14 106.541C205.602 106.541 203.475 106.147 201.739 105.369C197.05 103.261 196.149 97.1964 197.145 92.2404C198.535 85.3004 209.623 83.4874 211.313 83.4384C213.003 83.3864 214.784 82.8374 215.155 82.6414C216.759 81.7804 217.144 80.5294 217.116 78.7734C217.078 76.3184 214.633 76.0914 213.984 76.0914C210.457 76.0914 205.53 77.0704 200.449 79.2634ZM251.591 74.9424C253.747 73.0574 258.928 70.8904 262.825 70.2744C266.775 69.6494 269.63 72.7994 270.47 74.2154C271.31 75.6344 271.29 77.6644 271.365 79.3004C271.445 80.9364 271.429 81.9114 271.391 84.0234C271.354 86.1324 271.34 89.7514 271.347 94.8744C271.35 100 271.401 103.595 271.482 105.659C269.59 105.615 265.891 105.59 264.128 105.59C261.98 105.59 259.733 105.615 257.379 105.659C257.453 102.783 257.488 99.1794 257.499 94.8394C257.508 90.5024 257.899 85.1274 257.818 83.4474C257.749 81.9854 257.538 80.8854 257.197 80.1664C256.858 79.4354 256.437 78.9484 255.944 78.6814C255.449 78.4134 254.919 78.2864 254.343 78.2864C253.767 78.2864 252.124 79.5364 251.583 79.8704C251.572 87.8754 251.552 97.0974 251.513 105.706C249.038 105.66 246.511 105.636 244.981 105.636C243.282 105.636 240.602 105.66 238.087 105.706L238.176 89.3334L238.066 76.5304L237.867 71.0234C240.127 71.0694 242.666 71.0924 244.387 71.0924C246.342 71.0924 249.758 71.0694 251.603 71.0234C251.596 72.2664 251.596 73.5764 251.591 74.9424ZM104.796 70.1674H117.991L123.478 79.9934L130.104 70.1674H138.137L127.116 86.5114L138.303 106.548H125.106L119.897 97.2194L113.605 106.548H105.572L116.26 90.7004L104.796 70.1674Z" fill="#2C9631"></path> </svg> 