<?xml version="1.0" encoding="UTF-8"?> <svg xmlns="http://www.w3.org/2000/svg" width="81" height="71" viewBox="0 0 81 71" fill="none"> <path d="M14.1454 0.5H0.900024V70.3053H14.1454V0.5Z" fill="#222222"></path> <path d="M52.8775 0.5C52.1438 8.73813 50.3932 15.1098 47.5356 20.2973C44.678 25.4718 40.5332 29.7325 35.0754 33.0535C34.007 33.7228 33.4793 34.3536 33.4793 34.9457C33.4793 35.4091 34.007 35.9755 35.0754 36.6448C40.3272 39.7727 44.5364 43.9047 47.7287 49.0535C50.9209 54.2023 53.0706 61.2949 54.2033 70.3311H39.8252C39.5549 63.1613 38.2291 57.6006 35.8349 53.6488C33.4407 49.6971 29.6949 46.389 24.5718 43.7373C20.4527 41.6134 18.3932 38.9875 18.3932 35.8725C18.3932 32.6802 20.3884 29.5652 24.3658 26.5016C29.7464 22.3825 33.4278 18.5467 35.423 14.994C37.4181 11.4413 38.4479 6.84594 38.5123 0.525744H52.8775V0.5Z" fill="#222222"></path> <path d="M64.3466 9.15004C64.3466 4.58045 68.0409 0.873291 72.6233 0.873291C77.2058 0.873291 80.9 4.56758 80.9 9.15004C80.9 13.7325 77.1929 17.4268 72.6104 17.4268C68.028 17.4268 64.3466 13.7325 64.3466 9.15004Z" fill="#6E43B7"></path> </svg> 