<?xml version="1.0" encoding="UTF-8"?> <svg xmlns="http://www.w3.org/2000/svg" width="212" height="220" viewBox="0 0 212 220" fill="none"> <g clip-path="url(#clip0)"> <path d="M78.3066 39.9183L32.4689 66.3223C31.7446 66.7397 31.1382 67.3335 30.7064 68.0481C30.2746 68.7628 30.0316 69.575 30 70.4088V176.71C30 178.384 31.0355 180.319 32.3152 181.077C33.5948 181.834 35.806 181.731 37.262 180.892L82.9324 154.591C83.6968 154.091 84.3331 153.42 84.7901 152.63C85.2472 151.841 85.5123 150.955 85.5641 150.045V44.104C85.5641 42.4306 84.1624 41.285 82.8872 40.5498C81.612 39.8146 79.74 39.0839 78.3066 39.9183Z" fill="#FF6A6A"></path> <path opacity="0.4" d="M36.6335 181.193C35.2272 181.739 33.423 181.712 32.3152 181.076C31.04 180.345 30 178.383 30 176.71V70.4084C30.0263 69.6126 30.255 68.8366 30.6647 68.1532L34.9152 70.5573C34.1775 71.4143 33.7464 72.4917 33.6898 73.6198V178.839C33.6898 180.855 34.974 181.811 36.6335 181.193Z" fill="black"></path> <path opacity="0.3" d="M85.5599 43.8827C85.4604 42.3807 84.3209 41.7899 82.9373 42.5882L36.0098 69.6102C35.595 69.8651 35.2252 70.1866 34.9155 70.5619L30.665 68.1578C31.0458 67.4653 31.5946 66.8791 32.2612 66.4529L78.3069 39.9181C79.763 39.0791 81.6124 39.8098 82.8921 40.5495C84.1717 41.2892 85.4785 42.259 85.5599 43.8827Z" fill="black"></path> <path d="M82.9372 42.5882L36.0098 69.6146C35.3344 70.0545 34.7722 70.6466 34.3685 71.3431C33.9647 72.0397 33.7308 72.8211 33.6855 73.6244V178.844C33.6855 181.099 35.2953 182.028 37.2578 180.896L82.9282 154.591C83.6931 154.092 84.3297 153.42 84.7868 152.63C85.2439 151.841 85.5087 150.955 85.5598 150.045V44.1037C85.5689 42.4348 84.3842 41.7537 82.9372 42.5882Z" fill="#FF6A6A"></path> <path opacity="0.2" d="M82.9372 42.5882L36.0098 69.6146C35.3344 70.0545 34.7722 70.6466 34.3685 71.3431C33.9647 72.0397 33.7308 72.8211 33.6855 73.6244V178.844C33.6855 181.099 35.2953 182.028 37.2578 180.896L82.9282 154.591C83.6931 154.092 84.3297 153.42 84.7868 152.63C85.2439 151.841 85.5087 150.955 85.5598 150.045V44.1037C85.5689 42.4348 84.3842 41.7537 82.9372 42.5882Z" fill="black"></path> <path d="M83.1942 51.1444V146.558C83.1464 147.423 82.8951 148.265 82.4608 149.016C82.0264 149.767 81.421 150.405 80.6937 150.879L38.3875 175.235C37.0084 176.043 35.8779 175.384 35.8779 173.805V77.6252C35.9581 76.1934 36.5861 74.8469 37.6324 73.8635L37.8721 73.6515C38.0318 73.523 38.2011 73.4069 38.3785 73.3042L44.0443 70.0386L44.4965 69.7725L45.0572 69.4613L46.4138 68.6945C47.395 68.1578 48.4576 68.4464 48.4576 69.5966V73.1598C48.4576 74.328 49.3349 74.7701 50.4156 74.1476L68.1502 63.8593C68.7088 63.51 69.1771 63.0344 69.5172 62.471C69.8574 61.9076 70.0598 61.2722 70.1081 60.6163V56.5976C70.1142 56.1478 70.2267 55.7058 70.4365 55.3076C70.6463 54.9094 70.9475 54.5663 71.3154 54.3063L79.7803 49.4666L80.029 49.3222C81.7699 48.3209 83.1942 49.1373 83.1942 51.1444Z" fill="#37474F"></path> <path d="M79.7803 144.217V49.4666L71.3154 54.3062C70.9475 54.5663 70.6463 54.9094 70.4365 55.3076C70.2267 55.7057 70.1142 56.1477 70.1081 56.5975V60.6163C70.0598 61.2722 69.8574 61.9076 69.5172 62.471C69.1771 63.0343 68.7088 63.51 68.1502 63.8593L50.4563 74.1476C50.2483 74.3089 49.9977 74.4064 49.7351 74.428C49.4725 74.4496 49.2093 74.3945 48.9776 74.2694C48.6792 74.0709 45.8892 72.172 45.5275 71.9104C45.3701 71.7778 45.247 71.6094 45.1683 71.4195C45.0896 71.2296 45.0577 71.0236 45.0753 70.8189V69.4658L44.5146 69.777L44.0624 70.0431L38.3966 73.3087C38.2192 73.4114 38.0499 73.5275 37.8901 73.656L37.6505 73.868C36.5985 74.8473 35.964 76.1924 35.8779 77.6251V172.376L77.2707 148.538C77.9997 148.065 78.6068 147.427 79.0428 146.676C79.4788 145.926 79.7314 145.083 79.7803 144.217Z" fill="#455A64"></path> <path d="M88.8055 57.5313C88.2357 57.202 87.449 57.2471 86.5717 57.7478L77.8582 62.7093C77.4894 62.9688 77.1873 63.3117 76.9767 63.7099C76.7661 64.1081 76.6529 64.5504 76.6463 65.0006V69.0148C76.598 69.6707 76.3956 70.3061 76.0554 70.8695C75.7153 71.4329 75.247 71.9085 74.6884 72.2578L57.9757 82.0184V79.7271C57.9922 79.5269 57.9527 79.3262 57.8617 79.147C57.7707 78.9679 57.6318 78.8174 57.4602 78.7122L54.5301 77.0208C54.2849 76.9094 54.0156 76.8614 53.7469 76.8811C53.4783 76.9008 53.2189 76.9876 52.9927 77.1336L51.0619 78.2161L50.6097 78.4822L44.9212 81.7297C44.7438 81.8325 44.5745 81.9486 44.4148 82.077L44.1751 82.289C43.1288 83.2725 42.5008 84.6189 42.4207 86.0507V182.231C42.3884 182.539 42.4383 182.85 42.5654 183.133C42.6924 183.416 42.8921 183.66 43.1442 183.841C43.5963 184.107 45.6357 185.276 46.0879 185.537C46.5401 185.799 47.1641 185.758 47.8559 185.361L90.162 161.005C90.8894 160.531 91.4947 159.893 91.9291 159.142C92.3635 158.391 92.6148 157.549 92.6626 156.684V61.2704C92.6626 60.2646 92.3054 59.561 91.7311 59.2317L88.8055 57.5313Z" fill="#EBEBEB"></path> <path d="M57.3784 78.649C57.1403 78.5639 56.8859 78.5339 56.6345 78.5612C56.383 78.5886 56.1411 78.6726 55.9269 78.8069L53.9961 79.8894L53.5439 80.1555L47.8781 83.4211C47.7007 83.5238 47.5314 83.6399 47.3716 83.7684L47.132 83.9804C46.7832 84.3159 46.4793 84.6949 46.2276 85.108L43.293 83.4166C43.5444 83.0034 43.8484 82.6243 44.1973 82.289L44.437 82.077C44.5967 81.9485 44.766 81.8324 44.9434 81.7297L50.6093 78.4641L51.0615 78.198L52.9968 77.12C53.2214 76.9725 53.4799 76.8844 53.7481 76.8639C54.0162 76.8434 54.2851 76.8912 54.5297 77.0027L57.3784 78.649Z" fill="#F5F5F5"></path> <path d="M91.7398 59.2227C91.1701 58.889 90.3833 58.9341 89.506 59.4392L80.7925 64.4278C80.4169 64.6613 80.117 64.998 79.9288 65.3975L76.9941 63.7061C77.182 63.3078 77.4801 62.9713 77.8533 62.7364L86.5714 57.7749C87.4396 57.2742 88.2309 57.2291 88.8051 57.5584L91.7398 59.2227Z" fill="#F5F5F5"></path> <path opacity="0.1" d="M79.9292 65.393C79.7111 65.8002 79.5918 66.2529 79.5811 66.7145V70.7423C79.5311 71.6175 79.1925 72.4516 78.6179 73.1148L75.6787 71.4234C76.252 70.759 76.5919 69.9259 76.6464 69.0509V65.0366C76.6571 64.575 76.7764 64.1224 76.9946 63.7151L79.9292 65.393Z" fill="black"></path> <path d="M89.508 59.4392L80.7944 64.4278C80.4256 64.6873 80.1236 65.0302 79.913 65.4284C79.7023 65.8266 79.5891 66.2689 79.5826 66.7191V70.7424C79.5342 71.3982 79.3318 72.0336 78.9917 72.597C78.6515 73.1604 78.1832 73.636 77.6246 73.9853L59.9353 84.2736C58.8545 84.8961 57.9773 84.454 57.9773 83.2858V79.7226C57.9773 78.5725 56.9147 78.2838 55.9289 78.8205L53.9981 79.903L53.5459 80.1691L47.8801 83.4347C47.7027 83.5375 47.5334 83.6536 47.3736 83.782L47.134 83.994C46.0891 84.9733 45.4598 86.3145 45.375 87.7421V183.922C45.375 185.515 46.4964 186.178 47.8756 185.361L90.1817 161.005C90.9091 160.531 91.5144 159.893 91.9488 159.142C92.3832 158.391 92.6344 157.549 92.6823 156.684V61.2705C92.6732 59.2543 91.2489 58.4334 89.508 59.4392Z" fill="#FF6A6A"></path> <g opacity="0.7"> <path opacity="0.7" d="M89.508 59.4392L80.7944 64.4278C80.4256 64.6873 80.1236 65.0302 79.913 65.4284C79.7023 65.8266 79.5891 66.2689 79.5826 66.7191V70.7424C79.5342 71.3982 79.3318 72.0336 78.9917 72.597C78.6515 73.1604 78.1832 73.636 77.6246 73.9853L59.9353 84.2736C58.8545 84.8961 57.9773 84.454 57.9773 83.2858V79.7226C57.9773 78.5725 56.9147 78.2838 55.9289 78.8205L53.9981 79.903L53.5459 80.1691L47.8801 83.4347C47.7027 83.5375 47.5334 83.6536 47.3736 83.782L47.134 83.994C46.0891 84.9733 45.4598 86.3145 45.375 87.7421V183.922C45.375 185.515 46.4964 186.178 47.8756 185.361L90.1817 161.005C90.9091 160.531 91.5144 159.893 91.9488 159.142C92.3832 158.391 92.6344 157.549 92.6823 156.684V61.2705C92.6732 59.2543 91.2489 58.4334 89.508 59.4392Z" fill="white"></path> </g> <path d="M45.3643 128.837L61.5207 107.683L80.223 119.703L75.882 115.084L82.1764 105.567L92.7484 112.64V134.127L45.3643 161.411V128.837Z" fill="#FF6A6A"></path> <path d="M76.2173 97.1012C77.7366 96.2261 78.9711 96.9388 78.9711 98.6888C78.9195 99.6421 78.6432 100.57 78.1647 101.397C77.6863 102.223 77.0191 102.926 76.2173 103.447C74.6934 104.349 73.459 103.614 73.459 101.864C73.5111 100.91 73.788 99.9813 74.2673 99.1537C74.7465 98.3262 75.4146 97.623 76.2173 97.1012Z" fill="#FF6A6A"></path> <path d="M92.6732 156.675V129.098C86.5236 125.769 78.1265 126.36 68.8885 131.687C59.7815 136.933 51.5111 145.809 45.375 156.043V183.94C45.375 185.533 46.4964 186.196 47.8756 185.379L90.1817 161.023C90.911 160.545 91.5167 159.902 91.9497 159.147C92.3827 158.391 92.6306 157.544 92.6732 156.675Z" fill="#FAFAFA"></path> <path d="M91.7672 128.643V156.675C91.7184 157.382 91.5085 158.068 91.1535 158.682C90.7985 159.295 90.3078 159.82 89.7188 160.216L47.4126 184.572C47.2122 184.698 46.9841 184.774 46.7479 184.793C46.3319 184.793 46.2686 184.238 46.2686 183.913V154.551C45.9657 155.033 45.6672 155.525 45.3643 156.025V183.922C45.3643 185.05 45.9295 185.704 46.7479 185.704C47.1437 185.688 47.5285 185.57 47.8648 185.361L90.171 161.005C90.8983 160.531 91.5036 159.893 91.938 159.142C92.3724 158.391 92.6237 157.549 92.6715 156.684V129.098C92.4002 128.954 92.0973 128.801 91.7672 128.643Z" fill="#EBEBEB"></path> <path d="M60.6623 150.487L80.7482 138.922C81.2908 138.611 81.7249 138.832 81.7249 139.414C81.7012 139.742 81.6004 140.06 81.4307 140.342C81.261 140.624 81.0272 140.862 80.7482 141.037L60.6668 152.602C60.1242 152.913 59.6855 152.692 59.6855 152.106C59.71 151.779 59.8111 151.462 59.9807 151.18C60.1504 150.899 60.3838 150.661 60.6623 150.487Z" fill="#455A64"></path> <path d="M62.5017 154.717L78.9114 145.268C79.4495 144.957 79.8881 145.178 79.8881 145.76C79.8644 146.088 79.7636 146.406 79.594 146.688C79.4243 146.97 79.1905 147.208 78.9114 147.383L62.5017 156.833C61.9591 157.144 61.5205 156.923 61.5205 156.341C61.5444 156.013 61.6457 155.694 61.8162 155.412C61.9867 155.13 62.2216 154.892 62.5017 154.717Z" fill="#455A64"></path> <path d="M62.5017 144.14L78.9114 134.669C79.4495 134.357 79.8881 134.578 79.8881 135.16C79.8644 135.488 79.7636 135.806 79.594 136.088C79.4243 136.37 79.1905 136.609 78.9114 136.784L62.5017 146.256C61.9591 146.567 61.5205 146.346 61.5205 145.76C61.5451 145.432 61.6467 145.115 61.8172 144.833C61.9877 144.552 62.2222 144.315 62.5017 144.14Z" fill="#455A64"></path> <path d="M65.1982 165.38V166.156C65.1982 167.401 66.071 167.906 67.1562 167.283L76.0958 162.133C76.6661 161.762 77.1406 161.263 77.4808 160.675C77.8211 160.087 78.0174 159.428 78.0538 158.75V157.974C78.0538 156.729 77.1766 156.224 76.0958 156.846L67.1562 161.997C66.5852 162.367 66.1101 162.866 65.7697 163.454C65.4294 164.042 65.2336 164.702 65.1982 165.38Z" fill="#FF6A6A"></path> <path d="M99.0939 149.224C99.0638 149.223 99.0342 149.215 99.0081 149.2C98.982 149.185 98.9601 149.164 98.9447 149.138C98.9335 149.119 98.9262 149.097 98.9233 149.075C98.9204 149.053 98.9219 149.031 98.9278 149.01C98.9337 148.988 98.9439 148.968 98.9576 148.951C98.9714 148.933 98.9885 148.919 99.008 148.908L109.946 142.593V87.6789C109.947 87.6493 109.954 87.6203 109.968 87.5943C109.983 87.5684 110.003 87.5463 110.028 87.53L117.376 83.2992C117.395 83.288 117.416 83.2808 117.438 83.2779C117.46 83.275 117.483 83.2766 117.504 83.2824C117.526 83.2883 117.546 83.2984 117.563 83.3122C117.581 83.3259 117.595 83.343 117.606 83.3624C117.618 83.3811 117.626 83.4021 117.63 83.4241C117.633 83.4461 117.632 83.4686 117.627 83.4901C117.621 83.5117 117.612 83.5319 117.598 83.5495C117.584 83.5671 117.567 83.5817 117.547 83.5924L110.285 87.7781V142.683C110.284 142.713 110.276 142.743 110.261 142.768C110.246 142.794 110.225 142.816 110.199 142.832L99.1843 149.179C99.1585 149.201 99.1274 149.216 99.0939 149.224Z" fill="#455A64"></path> <path d="M117.921 84.2105C117.815 84.2108 117.711 84.1844 117.618 84.1338C117.506 84.0597 117.417 83.9569 117.359 83.8362C117.301 83.7156 117.276 83.5815 117.288 83.4482C117.302 83.131 117.391 82.8216 117.548 82.5456C117.706 82.2695 117.926 82.0347 118.192 81.8605C118.298 81.775 118.428 81.7234 118.564 81.7127C118.699 81.7019 118.835 81.7325 118.953 81.8005C119.071 81.8684 119.166 81.9704 119.225 82.093C119.283 82.2157 119.303 82.3532 119.282 82.4875C119.269 82.8048 119.18 83.1143 119.022 83.3904C118.865 83.6665 118.644 83.9013 118.378 84.0752C118.24 84.1602 118.083 84.2069 117.921 84.2105ZM118.373 82.1537C118.156 82.2969 117.976 82.4883 117.845 82.7129C117.715 82.9376 117.639 83.1892 117.623 83.4482C117.601 83.5221 117.604 83.6012 117.633 83.6729C117.661 83.7445 117.713 83.8044 117.78 83.843C117.847 83.8816 117.925 83.8966 118.001 83.8855C118.078 83.8744 118.148 83.838 118.201 83.782C118.418 83.6388 118.599 83.4474 118.729 83.2228C118.86 82.9982 118.936 82.7465 118.952 82.4875C118.96 82.4142 118.95 82.3401 118.922 82.2716C118.894 82.2032 118.85 82.1426 118.794 82.0951C118.724 82.0698 118.65 82.0619 118.576 82.0721C118.503 82.0823 118.433 82.1104 118.373 82.1537Z" fill="#455A64"></path> <path d="M97.8863 150.753C97.7817 150.755 97.6783 150.729 97.5879 150.676C97.4762 150.602 97.3865 150.499 97.3284 150.379C97.2703 150.258 97.2459 150.124 97.2578 149.991C97.2716 149.673 97.3608 149.364 97.518 149.088C97.6753 148.812 97.896 148.577 98.1622 148.403C98.2675 148.316 98.3968 148.264 98.5328 148.253C98.6688 148.242 98.8049 148.272 98.923 148.341C99.0411 148.409 99.1354 148.511 99.1934 148.634C99.2514 148.758 99.2702 148.896 99.2474 149.03C99.234 149.347 99.145 149.657 98.9877 149.933C98.8304 150.209 98.6094 150.444 98.343 150.617C98.2057 150.702 98.048 150.749 97.8863 150.753ZM98.6324 148.606C98.5299 148.611 98.4304 148.642 98.343 148.696C98.1267 148.839 97.9467 149.031 97.8172 149.256C97.6877 149.48 97.6123 149.732 97.5969 149.991C97.5892 150.064 97.5995 150.138 97.6271 150.206C97.6547 150.275 97.6987 150.335 97.7552 150.383C97.8248 150.408 97.8995 150.416 97.9728 150.406C98.0461 150.396 98.1158 150.368 98.1757 150.324C98.3921 150.181 98.5721 149.989 98.7016 149.765C98.831 149.54 98.9064 149.288 98.9218 149.03C98.9296 148.956 98.9193 148.882 98.8917 148.814C98.8641 148.746 98.8201 148.685 98.7636 148.637C98.7229 148.617 98.678 148.606 98.6324 148.606Z" fill="#455A64"></path> <path d="M145.961 48.7224C145.718 48.6097 145.449 48.5637 145.182 48.5891C144.915 48.6144 144.66 48.7103 144.442 48.8667L140.178 51.3475C139.927 51.5247 139.722 51.7585 139.579 52.0296C139.436 52.3008 139.36 52.6017 139.355 52.9081V55.6143C139.319 56.0627 139.178 56.4962 138.942 56.8795C138.706 57.2628 138.383 57.5851 137.998 57.8199L129.981 62.4927V60.9321C129.994 60.7961 129.968 60.6594 129.906 60.5374C129.845 60.4155 129.75 60.3131 129.633 60.242C129.357 60.0887 127.824 59.2137 127.639 59.0919C127.473 59.0153 127.29 58.9822 127.107 58.9956C126.924 59.009 126.748 59.0685 126.594 59.1686L125.279 59.9173L124.962 60.0977L122.814 61.3381C122.693 61.4063 122.578 61.4848 122.471 61.5726C122.412 61.6177 122.362 61.6673 122.308 61.7169C121.597 62.386 121.17 63.3011 121.114 64.2744V117.547C121.092 117.757 121.126 117.969 121.212 118.161C121.299 118.354 121.435 118.52 121.607 118.643L123.61 119.798C123.803 119.886 124.017 119.921 124.228 119.899C124.439 119.878 124.641 119.801 124.813 119.676L146.888 106.961C147.384 106.639 147.796 106.204 148.092 105.693C148.389 105.183 148.56 104.609 148.593 104.02V51.2573C148.621 50.9906 148.577 50.7213 148.465 50.4777C148.353 50.234 148.177 50.025 147.956 49.8726L145.961 48.7224Z" fill="#E0E0E0"></path> <path d="M129.579 60.2105C129.416 60.1533 129.243 60.1332 129.071 60.152C128.9 60.1707 128.735 60.2277 128.588 60.3188L127.277 61.054L126.961 61.2344L124.813 62.4748C124.693 62.5446 124.578 62.623 124.469 62.7093L124.306 62.8536C124.066 63.0813 123.856 63.339 123.682 63.6204L121.684 62.4702C121.857 62.19 122.065 61.9324 122.303 61.7035L122.466 61.5591C122.576 61.4723 122.692 61.3939 122.814 61.3246L124.957 60.0842L125.274 59.9038L126.594 59.1686C126.747 59.0686 126.922 59.009 127.104 58.9956C127.286 58.9822 127.469 59.0153 127.634 59.0919L129.579 60.2105Z" fill="#F0F0F0"></path> <path d="M147.96 49.8726C147.716 49.7586 147.447 49.7123 147.18 49.7385C146.912 49.7647 146.657 49.8625 146.44 50.0214L142.176 52.4751C141.919 52.6337 141.715 52.8643 141.588 53.1381L139.59 51.9834C139.719 51.7127 139.923 51.4843 140.178 51.3249L144.442 48.8667C144.659 48.7103 144.915 48.6144 145.182 48.5891C145.449 48.5637 145.718 48.6097 145.961 48.7224L147.96 49.8726Z" fill="#F0F0F0"></path> <path opacity="0.1" d="M141.588 53.1516C141.439 53.4295 141.359 53.7387 141.353 54.0537V56.7599C141.319 57.3556 141.089 57.9232 140.697 58.3747L138.694 57.211C139.086 56.7593 139.317 56.192 139.355 55.5963V52.89C139.361 52.5751 139.442 52.2662 139.59 51.9879L141.588 53.1516Z" fill="black"></path> <path d="M146.436 50.0169L142.176 52.4751C141.922 52.6532 141.714 52.8894 141.57 53.1641C141.426 53.4387 141.35 53.7438 141.348 54.0538V56.76C141.315 57.2058 141.178 57.6376 140.947 58.0207C140.716 58.4038 140.398 58.7275 140.019 58.9656L131.315 64.0308C130.577 64.4548 129.981 64.1526 129.981 63.3588V60.9322C129.981 60.1519 129.257 59.9534 128.588 60.3188L127.272 61.054L126.955 61.2344L124.812 62.4747C124.69 62.544 124.574 62.6224 124.464 62.7093L124.301 62.8536C123.589 63.5238 123.162 64.4407 123.107 65.4155V118.697C123.107 119.78 123.872 120.217 124.812 119.676L146.888 106.961C147.383 106.639 147.796 106.204 148.092 105.694C148.388 105.183 148.559 104.609 148.592 104.02V51.2573C148.592 49.8952 147.62 49.3359 146.436 50.0169Z" fill="#FAFAFA"></path> <path d="M147.394 50.1342C148.122 50.1342 148.181 50.9957 148.181 51.2573V104.029C148.149 104.546 147.997 105.049 147.737 105.497C147.478 105.946 147.117 106.328 146.684 106.614L124.604 119.32C124.438 119.427 124.246 119.489 124.048 119.5C123.573 119.5 123.519 118.936 123.519 118.697V65.4155C123.571 64.5569 123.95 63.7505 124.577 63.1603L124.631 63.1107L124.722 63.0295C124.815 62.9548 124.913 62.887 125.016 62.8265L127.159 61.5907L127.476 61.4103L128.787 60.6796C128.925 60.6007 129.08 60.5573 129.239 60.5533C129.474 60.5533 129.583 60.6751 129.583 60.9322V63.3588C129.564 63.5171 129.578 63.6777 129.625 63.83C129.673 63.9824 129.752 64.1231 129.857 64.2431C129.962 64.363 130.092 64.4596 130.237 64.5263C130.382 64.5931 130.54 64.6287 130.7 64.6307C130.995 64.6233 131.284 64.5377 131.536 64.3826L140.236 59.3039C140.679 59.0301 141.049 58.6547 141.317 58.2091C141.584 57.7634 141.741 57.2604 141.774 56.742V54.0538C141.778 53.8191 141.835 53.5885 141.943 53.3798C142.05 53.171 142.204 52.9896 142.393 52.8495L146.662 50.3733C146.887 50.2314 147.146 50.1491 147.412 50.1342H147.394ZM147.412 49.7283C147.073 49.741 146.743 49.8404 146.454 50.0169L142.194 52.4751C141.936 52.6512 141.725 52.8865 141.578 53.1613C141.431 53.4361 141.352 53.7422 141.348 54.0538V56.76C141.315 57.2058 141.178 57.6376 140.947 58.0207C140.716 58.4038 140.398 58.7274 140.019 58.9656L131.315 64.0308C131.125 64.1482 130.909 64.2136 130.686 64.2203C130.265 64.2203 129.981 63.909 129.981 63.3588V60.9322C129.991 60.829 129.979 60.7247 129.946 60.6266C129.912 60.5285 129.857 60.4388 129.786 60.3638C129.714 60.2887 129.626 60.2301 129.53 60.192C129.433 60.1538 129.329 60.1371 129.225 60.1428C129.002 60.1481 128.783 60.2085 128.588 60.3187L127.272 61.0539L126.955 61.2344L124.812 62.4747C124.69 62.544 124.574 62.6224 124.464 62.7093L124.301 62.8536C123.589 63.5238 123.162 64.4407 123.107 65.4155V118.697C123.107 119.464 123.492 119.91 124.048 119.91C124.319 119.9 124.582 119.819 124.812 119.676L146.888 106.961C147.383 106.639 147.796 106.204 148.092 105.694C148.388 105.183 148.559 104.609 148.592 104.02V51.2573C148.592 50.2876 148.104 49.7283 147.394 49.7283H147.412Z" fill="#E0E0E0"></path> <path d="M126.115 70.9408L146.106 59.4257V78.6175L126.115 90.1371V70.9408Z" fill="#FF6A6A"></path> <path opacity="0.2" d="M126.115 90.1371V82.4559L132.776 73.8184L141.11 78.6175L139.396 76.9036L142.606 72.0909L146.106 75.0182V78.6175L126.115 90.1371Z" fill="black"></path> <path opacity="0.2" d="M139.504 67.6166C140.409 67.1024 141.128 67.5174 141.128 68.5503C141.095 69.1118 140.931 69.6578 140.649 70.1449C140.367 70.6321 139.975 71.0467 139.504 71.3558C138.6 71.87 137.881 71.455 137.881 70.4221C137.911 69.8601 138.074 69.3133 138.356 68.8258C138.638 68.3384 139.032 67.9241 139.504 67.6166Z" fill="black"></path> <path d="M127.779 91.0933C128.684 90.5656 129.443 90.9941 129.443 92.0541C129.412 92.6304 129.245 93.1914 128.956 93.6914C128.667 94.1913 128.264 94.6163 127.779 94.9317C126.875 95.4594 126.115 95.0309 126.115 93.971C126.145 93.3943 126.311 92.8328 126.6 92.3326C126.89 91.8324 127.294 91.4077 127.779 91.0933Z" fill="#FF6A6A"></path> <path d="M131.646 88.8698L140.595 83.7234C140.888 83.552 141.124 83.6918 141.119 84.0301V84.206C141.103 84.3876 141.046 84.5632 140.952 84.7195C140.858 84.8758 140.73 85.0087 140.576 85.1081L131.646 90.2499C131.352 90.4213 131.112 90.2815 131.112 89.9432V89.7718C131.125 89.5905 131.18 89.4146 131.273 89.2581C131.365 89.1015 131.493 88.9686 131.646 88.8698Z" fill="#455A64"></path> <path d="M131.501 91.7609L145.193 83.8811C145.41 83.7594 145.582 83.8811 145.578 84.1067V84.2375C145.568 84.3726 145.527 84.5038 145.458 84.6205C145.389 84.7371 145.294 84.8361 145.18 84.9095L131.501 92.7892C131.284 92.9155 131.112 92.8118 131.112 92.5637V92.4374C131.12 92.3023 131.16 92.1709 131.227 92.0535C131.294 91.9361 131.388 91.836 131.501 91.7609Z" fill="#FF6A6A"></path> <path d="M126.531 114.945C126.515 114.949 126.498 114.949 126.482 114.945C126.466 114.936 126.452 114.924 126.443 114.909C126.433 114.894 126.428 114.877 126.427 114.859V112.946L125.939 113.226C125.919 113.236 125.897 113.24 125.875 113.236C125.853 113.233 125.833 113.223 125.818 113.207C125.802 113.192 125.792 113.172 125.788 113.15C125.785 113.128 125.789 113.106 125.799 113.086L127.689 109.866C127.704 109.844 127.726 109.828 127.752 109.821C127.778 109.814 127.805 109.817 127.829 109.83L129.719 110.872C129.734 110.881 129.747 110.893 129.757 110.908C129.766 110.923 129.772 110.94 129.773 110.957C129.773 110.976 129.768 110.994 129.759 111.01C129.749 111.026 129.735 111.039 129.719 111.048L129.131 111.386V113.416C129.131 113.434 129.125 113.452 129.116 113.468C129.106 113.483 129.093 113.497 129.077 113.506L126.581 114.945C126.565 114.949 126.548 114.949 126.531 114.945ZM126.531 112.653C126.548 112.649 126.565 112.649 126.581 112.653C126.597 112.661 126.61 112.674 126.62 112.689C126.63 112.704 126.635 112.721 126.635 112.739V114.651L128.928 113.33V111.336C128.927 111.319 128.932 111.302 128.941 111.286C128.949 111.271 128.962 111.259 128.978 111.251L129.461 110.971L127.815 110.069L126.174 112.87L126.482 112.694C126.493 112.676 126.511 112.664 126.531 112.658V112.653Z" fill="#FF6A6A"></path> <path d="M144.456 104.629H144.433L144.053 104.557C143.668 104.479 143.323 104.269 143.075 103.965C142.828 103.661 142.694 103.28 142.697 102.888C142.671 102.531 142.725 102.173 142.856 101.84C142.987 101.507 143.19 101.207 143.452 100.962C143.539 100.885 143.645 100.831 143.759 100.806C143.873 100.782 143.992 100.787 144.103 100.822C144.236 100.878 144.344 100.981 144.406 101.111C144.459 100.855 144.567 100.613 144.724 100.403C144.88 100.192 145.08 100.019 145.31 99.8932C145.397 99.8566 145.492 99.8432 145.585 99.8542C145.679 99.8653 145.768 99.9005 145.844 99.9563C145.978 100.094 146.077 100.263 146.132 100.448C146.187 100.632 146.197 100.827 146.16 101.016C145.996 102.118 145.565 103.163 144.903 104.061L144.537 104.57C144.53 104.587 144.519 104.601 144.505 104.611C144.49 104.622 144.473 104.628 144.456 104.629ZM143.922 100.989C143.8 100.997 143.684 101.044 143.592 101.125C143.357 101.347 143.174 101.62 143.057 101.921C142.939 102.223 142.891 102.547 142.914 102.87C142.908 103.215 143.022 103.551 143.236 103.821C143.45 104.092 143.752 104.28 144.089 104.354L144.41 104.417L144.75 103.966C145.388 103.098 145.807 102.089 145.97 101.025C146.004 100.867 145.999 100.703 145.958 100.546C145.916 100.389 145.838 100.245 145.731 100.123C145.683 100.089 145.626 100.068 145.568 100.062C145.509 100.057 145.45 100.067 145.396 100.092C145.021 100.227 144.659 100.818 144.555 101.445C144.557 101.457 144.557 101.469 144.555 101.481C144.561 101.501 144.561 101.523 144.555 101.544C144.548 101.564 144.536 101.581 144.519 101.593C144.502 101.605 144.481 101.612 144.46 101.612C144.436 101.611 144.412 101.602 144.393 101.587C144.374 101.571 144.361 101.55 144.356 101.526C144.355 101.422 144.326 101.32 144.274 101.23C144.222 101.14 144.147 101.065 144.058 101.012C144.014 100.996 143.968 100.988 143.922 100.989Z" fill="#FF6A6A"></path> <path d="M134.757 110.204C134.74 110.208 134.723 110.208 134.707 110.204C134.692 110.196 134.679 110.183 134.67 110.168C134.661 110.153 134.657 110.136 134.657 110.118V109.532C134.663 109.194 134.748 108.861 134.905 108.562C135.062 108.262 135.287 108.002 135.562 107.805L136.05 107.525C136.146 107.458 136.259 107.418 136.376 107.41C136.493 107.402 136.61 107.426 136.715 107.48C136.836 107.568 136.932 107.687 136.993 107.824C137.054 107.961 137.078 108.111 137.063 108.26V108.815C137.063 108.832 137.059 108.85 137.05 108.865C137.041 108.88 137.029 108.892 137.013 108.901L134.806 110.173L134.757 110.204ZM136.448 107.629C136.345 107.634 136.246 107.665 136.158 107.719L135.67 108.003C135.426 108.178 135.226 108.407 135.085 108.673C134.945 108.938 134.868 109.232 134.861 109.532V109.906L136.864 108.756V108.26C136.877 108.147 136.862 108.032 136.82 107.927C136.777 107.821 136.708 107.728 136.62 107.656C136.565 107.633 136.506 107.624 136.448 107.629Z" fill="#FF6A6A"></path> <path d="M135.57 107.241C135.486 107.242 135.404 107.222 135.33 107.182C135.225 107.105 135.141 107.001 135.088 106.882C135.035 106.762 135.014 106.631 135.027 106.501C135.031 106.21 135.104 105.925 135.24 105.668C135.376 105.41 135.571 105.189 135.81 105.022C135.894 104.963 135.993 104.928 136.096 104.921C136.198 104.914 136.301 104.935 136.393 104.981C136.499 105.058 136.583 105.161 136.637 105.281C136.691 105.4 136.713 105.532 136.7 105.662C136.697 105.955 136.624 106.242 136.487 106.501C136.35 106.76 136.154 106.982 135.914 107.15C135.809 107.21 135.691 107.241 135.57 107.241ZM136.153 105.112C136.068 105.118 135.986 105.144 135.914 105.188C135.705 105.339 135.535 105.536 135.416 105.764C135.298 105.992 135.234 106.244 135.231 106.501C135.219 106.595 135.231 106.69 135.267 106.778C135.302 106.866 135.36 106.943 135.434 107.002C135.495 107.029 135.561 107.04 135.627 107.033C135.693 107.027 135.756 107.004 135.81 106.966C136.018 106.815 136.188 106.618 136.307 106.39C136.425 106.162 136.489 105.91 136.492 105.653C136.504 105.559 136.491 105.463 136.456 105.374C136.42 105.286 136.363 105.208 136.289 105.148C136.247 105.125 136.201 105.113 136.153 105.112Z" fill="#FF6A6A"></path> <path d="M145.22 87.5075L127.006 98.0033C126.744 98.1695 126.526 98.3951 126.369 98.6616C126.212 98.9282 126.12 99.2281 126.102 99.5368V101.341C126.102 101.905 126.499 102.135 127.006 101.851L145.224 91.3639C145.486 91.1968 145.704 90.9703 145.861 90.703C146.018 90.4357 146.11 90.1352 146.129 89.8259V88.0217C146.111 87.4534 145.713 87.2234 145.22 87.5075Z" fill="#FF6A6A"></path> <path opacity="0.5" d="M145.22 87.5075L127.006 98.0033C126.744 98.1695 126.526 98.3951 126.369 98.6616C126.212 98.9282 126.12 99.2281 126.102 99.5368V101.341C126.102 101.905 126.499 102.135 127.006 101.851L145.224 91.3639C145.486 91.1968 145.704 90.9703 145.861 90.703C146.018 90.4357 146.11 90.1352 146.129 89.8259V88.0217C146.111 87.4534 145.713 87.2234 145.22 87.5075Z" fill="white"></path> <path d="M145.22 93.2674L127.006 103.763C126.744 103.929 126.525 104.154 126.368 104.421C126.211 104.688 126.119 104.988 126.102 105.297V107.101C126.102 107.669 126.499 107.899 127.006 107.615L145.224 97.1238C145.486 96.9579 145.705 96.7324 145.862 96.4657C146.019 96.1991 146.11 95.8991 146.129 95.5903V93.7861C146.111 93.2133 145.713 92.9833 145.22 93.2674Z" fill="#FF6A6A"></path> <path opacity="0.7" d="M145.22 93.2674L127.006 103.763C126.744 103.929 126.525 104.154 126.368 104.421C126.211 104.688 126.119 104.988 126.102 105.297V107.101C126.102 107.669 126.499 107.899 127.006 107.615L145.224 97.1238C145.486 96.9579 145.705 96.7324 145.862 96.4657C146.019 96.1991 146.11 95.8991 146.129 95.5903V93.7861C146.111 93.2133 145.713 92.9833 145.22 93.2674Z" fill="white"></path> <path d="M178.629 30.1399C178.384 30.027 178.114 29.9812 177.846 30.0074C177.578 30.0336 177.322 30.1307 177.105 30.2887L172.841 32.7424C172.59 32.9197 172.385 33.1534 172.242 33.4245C172.099 33.6957 172.022 33.9967 172.018 34.303V37.0093C171.985 37.4551 171.847 37.8869 171.616 38.27C171.385 38.653 171.067 38.9767 170.688 39.2149L162.648 43.9102V42.3541C162.659 42.2172 162.632 42.08 162.57 41.9575C162.507 41.835 162.413 41.7319 162.296 41.6595L160.302 40.5094C160.135 40.4352 159.952 40.4034 159.77 40.4168C159.587 40.4302 159.411 40.4883 159.257 40.586L157.941 41.3212L157.625 41.5017L155.481 42.742C155.36 42.8129 155.244 42.8912 155.133 42.9766L154.97 43.1209C154.259 43.7911 153.831 44.708 153.777 45.6828V98.9645C153.755 99.1742 153.79 99.3858 153.876 99.5782C153.963 99.7705 154.098 99.9368 154.269 100.061L156.264 101.215C156.457 101.303 156.67 101.338 156.882 101.317C157.093 101.295 157.295 101.218 157.466 101.093L179.546 88.3785C180.042 88.0561 180.454 87.6218 180.749 87.1108C181.044 86.5999 181.215 86.0267 181.247 85.4377V32.7018C181.275 32.435 181.232 32.1654 181.12 31.921C181.009 31.6767 180.834 31.4666 180.614 31.3126L178.629 30.1399Z" fill="#E0E0E0"></path> <path d="M162.243 41.6279C162.079 41.5654 161.904 41.5415 161.73 41.5579C161.555 41.5744 161.387 41.6307 161.239 41.7226L159.923 42.4623L159.606 42.6427L157.463 43.8786C157.341 43.9494 157.225 44.0293 157.115 44.1176L156.952 44.262C156.712 44.49 156.503 44.7477 156.328 45.0287L154.334 43.8786C154.505 43.5951 154.713 43.3357 154.953 43.1073L155.116 42.963C155.226 42.8777 155.341 42.7993 155.46 42.7284L157.621 41.5061L157.938 41.3212L159.254 40.5905C159.406 40.4889 159.582 40.4281 159.765 40.4139C159.948 40.3997 160.132 40.4325 160.298 40.5093L162.243 41.6279Z" fill="#F0F0F0"></path> <path d="M180.623 31.2899C180.38 31.1769 180.11 31.1312 179.843 31.1573C179.576 31.1835 179.321 31.2807 179.104 31.4388L174.844 33.8924C174.588 34.0522 174.384 34.2825 174.256 34.5555L172.258 33.4053C172.385 33.1336 172.588 32.9037 172.841 32.7423L177.11 30.2886C177.326 30.1305 177.582 30.0334 177.849 30.0072C178.116 29.981 178.386 30.0268 178.629 30.1398L180.623 31.2899Z" fill="#F0F0F0"></path> <path opacity="0.1" d="M174.257 34.5554C174.107 34.833 174.025 35.1422 174.018 35.4575V38.1638C173.983 38.7594 173.753 39.3271 173.362 39.7785L171.363 38.6283C171.753 38.1759 171.985 37.6091 172.023 37.0136V34.3074C172.029 33.9923 172.11 33.6831 172.259 33.4053L174.257 34.5554Z" fill="black"></path> <path d="M179.104 31.4387L174.84 33.8924C174.59 34.0697 174.385 34.3034 174.242 34.5745C174.099 34.8457 174.022 35.1467 174.017 35.453V38.1593C173.986 38.6065 173.848 39.0399 173.616 39.424C173.385 39.8081 173.065 40.1321 172.683 40.3694L163.979 45.4481C163.246 45.8721 162.65 45.5699 162.65 44.7761V42.354C162.65 41.5692 161.926 41.3707 161.257 41.7405L159.941 42.4712L159.624 42.6517L157.477 43.892C157.357 43.9629 157.242 44.0413 157.133 44.1266L156.97 44.2709C156.258 44.9411 155.831 45.858 155.776 46.8328V100.114C155.776 101.197 156.541 101.639 157.477 101.093L179.557 88.3783C180.052 88.0559 180.464 87.6216 180.759 87.1107C181.055 86.5997 181.225 86.0265 181.257 85.4375V32.7017C181.257 31.3124 180.289 30.7532 179.104 31.4387Z" fill="#FAFAFA"></path> <path d="M180.064 31.556C180.792 31.556 180.85 32.4129 180.85 32.6791V85.451C180.818 85.9684 180.666 86.4713 180.406 86.9204C180.146 87.3695 179.786 87.7527 179.354 88.04L157.274 100.755C157.106 100.858 156.915 100.919 156.717 100.931C156.238 100.931 156.188 100.372 156.188 100.128V46.8328C156.243 45.9757 156.619 45.1706 157.242 44.5776L157.301 44.528L157.391 44.4468C157.482 44.3709 157.581 44.3045 157.685 44.2483L159.828 43.0079L160.14 42.8275L161.456 42.0968C161.594 42.0175 161.749 41.974 161.908 41.9705C162.144 41.9705 162.252 42.0923 162.252 42.3539V44.776C162.233 44.9344 162.248 45.0949 162.295 45.2473C162.342 45.3996 162.421 45.5404 162.526 45.6603C162.632 45.7803 162.761 45.8768 162.906 45.9436C163.051 46.0104 163.209 46.0459 163.369 46.048C163.664 46.0411 163.951 45.9554 164.201 45.7999L172.906 40.7212C173.348 40.4471 173.718 40.0716 173.985 39.626C174.253 39.1804 174.41 38.6775 174.443 38.1592V35.453C174.447 35.2183 174.505 34.9878 174.612 34.779C174.72 34.5702 174.874 34.3888 175.062 34.2487L179.327 31.7995C179.552 31.6581 179.811 31.5773 180.077 31.565L180.064 31.556ZM180.077 31.1545C179.737 31.167 179.407 31.2681 179.119 31.4477L174.854 33.9014C174.604 34.0787 174.399 34.3124 174.256 34.5835C174.113 34.8547 174.036 35.1556 174.031 35.462V38.1683C173.997 38.6151 173.857 39.0475 173.622 39.4301C173.388 39.8126 173.067 40.1345 172.684 40.3693L163.979 45.4481C163.792 45.5659 163.577 45.6328 163.355 45.642C162.935 45.642 162.65 45.3263 162.65 44.776V42.3539C162.661 42.2504 162.65 42.1456 162.617 42.047C162.583 41.9483 162.529 41.858 162.457 41.7825C162.385 41.7069 162.297 41.6479 162.2 41.6095C162.103 41.5711 161.999 41.5542 161.895 41.5601C161.666 41.5566 161.44 41.6125 161.239 41.7225L159.923 42.4532L159.607 42.6336L157.459 43.8739C157.34 43.9448 157.225 44.0232 157.115 44.1085L156.953 44.2528C156.241 44.923 155.813 45.8399 155.759 46.8147V100.114C155.759 100.881 156.143 101.328 156.699 101.328C156.969 101.318 157.231 101.237 157.459 101.093L179.539 88.3783C180.034 88.0559 180.446 87.6216 180.742 87.1106C181.037 86.5997 181.207 86.0265 181.239 85.4375V32.7016C181.239 31.7319 180.751 31.1681 180.045 31.1681L180.077 31.1545Z" fill="#E0E0E0"></path> <path d="M158.783 52.3626L178.774 40.843V63.9138L158.783 75.4335V52.3626Z" fill="#FF6A6A"></path> <path opacity="0.2" d="M158.783 75.4334V67.7521L165.652 56.0341L173.778 62.9576L172.109 60.0754L174.668 56.0341L178.774 59.3853V63.9138L158.783 75.4334Z" fill="black"></path> <path opacity="0.2" d="M172.173 48.61C173.078 48.0959 173.792 48.5108 173.792 49.5437C173.762 50.1053 173.6 50.6521 173.319 51.1396C173.038 51.627 172.645 52.0414 172.173 52.3492C171.269 52.8679 170.55 52.4484 170.55 51.4155C170.58 50.8535 170.743 50.3065 171.025 49.819C171.307 49.3315 171.7 48.9173 172.173 48.61Z" fill="black"></path> <path d="M159.199 96.3664C159.181 96.3704 159.163 96.3704 159.145 96.3664C159.13 96.3581 159.117 96.3457 159.108 96.3305C159.099 96.3154 159.095 96.2982 159.095 96.2807V94.3683L158.607 94.6479C158.588 94.6639 158.564 94.6722 158.539 94.6712C158.514 94.6701 158.49 94.6598 158.472 94.6422C158.455 94.6246 158.445 94.6011 158.443 94.5763C158.442 94.5514 158.451 94.5271 158.467 94.5081L160.357 91.2922C160.363 91.2805 160.371 91.2703 160.382 91.2619C160.392 91.2536 160.404 91.2473 160.416 91.2436C160.429 91.2398 160.442 91.2385 160.455 91.2399C160.468 91.2413 160.481 91.2453 160.493 91.2516L162.383 92.2935C162.399 92.3019 162.413 92.3149 162.423 92.3308C162.432 92.3468 162.437 92.3651 162.437 92.3837C162.437 92.4017 162.432 92.4193 162.423 92.4351C162.415 92.4508 162.402 92.4642 162.387 92.4739L161.799 92.8122V94.8419C161.8 94.8593 161.795 94.8766 161.787 94.8917C161.778 94.9068 161.765 94.9192 161.75 94.9276L159.249 96.3664C159.233 96.371 159.216 96.371 159.199 96.3664ZM159.199 94.0751C159.216 94.0704 159.233 94.0704 159.249 94.0751C159.265 94.0841 159.278 94.0973 159.287 94.1132C159.295 94.1292 159.3 94.1472 159.299 94.1653V96.0777L161.596 94.7562V92.7265C161.596 92.7081 161.602 92.6901 161.611 92.6743C161.621 92.6586 161.634 92.6455 161.65 92.6363L162.129 92.3566L160.488 91.4545L158.842 94.251L159.15 94.0751H159.199Z" fill="#FF6A6A"></path> <path d="M168.528 90.99L168.144 90.9133C167.759 90.8358 167.412 90.6267 167.165 90.3222C166.917 90.0176 166.784 89.6365 166.787 89.2445C166.762 88.8883 166.816 88.5309 166.947 88.1984C167.078 87.866 167.281 87.5669 167.543 87.323C167.607 87.2534 167.688 87.2006 167.778 87.1692C167.868 87.1379 167.964 87.1289 168.058 87.1432C168.152 87.1574 168.241 87.1944 168.318 87.2509C168.394 87.3074 168.456 87.3817 168.497 87.4673C168.55 87.2119 168.659 86.9711 168.815 86.7616C168.971 86.5522 169.171 86.379 169.401 86.254C169.487 86.2179 169.581 86.2046 169.674 86.2157C169.767 86.2268 169.855 86.2618 169.93 86.3172C170.065 86.4549 170.165 86.6233 170.221 86.8078C170.277 86.9924 170.287 87.1877 170.251 87.3771C170.085 88.4791 169.652 89.5241 168.99 90.4217L168.614 90.9494C168.604 90.9628 168.591 90.9735 168.576 90.9806C168.561 90.9877 168.545 90.9909 168.528 90.99ZM168.022 87.3501C167.898 87.3571 167.781 87.4047 167.687 87.4854C167.453 87.7089 167.271 87.9813 167.155 88.2831C167.038 88.5848 166.99 88.9084 167.014 89.2309C167.008 89.5756 167.121 89.9118 167.336 90.1823C167.55 90.4528 167.852 90.641 168.189 90.7149L168.506 90.7735L168.845 90.2999C169.489 89.4347 169.91 88.4248 170.07 87.3591C170.104 87.2005 170.1 87.0362 170.058 86.8795C170.017 86.7228 169.939 86.5781 169.831 86.457C169.783 86.4221 169.727 86.4003 169.668 86.394C169.609 86.3876 169.55 86.3969 169.496 86.4209C169.261 86.5673 169.064 86.7654 168.918 87C168.772 87.2345 168.682 87.4994 168.655 87.7741C168.658 87.786 168.658 87.7982 168.655 87.8101C168.655 87.8318 168.647 87.8528 168.632 87.8688C168.627 87.8898 168.615 87.9085 168.598 87.9216C168.58 87.9347 168.559 87.9416 168.537 87.9409C168.513 87.9405 168.489 87.9317 168.47 87.9162C168.452 87.9006 168.438 87.8791 168.433 87.8552C168.431 87.7509 168.402 87.6489 168.349 87.559C168.296 87.469 168.221 87.394 168.13 87.3411C168.094 87.3357 168.057 87.3388 168.022 87.3501Z" fill="#FF6A6A"></path> <path d="M175.804 86.7998C175.787 86.8044 175.77 86.8044 175.754 86.7998C175.738 86.7914 175.726 86.779 175.717 86.7639C175.708 86.7488 175.704 86.7315 175.704 86.7141V86.1593C175.709 85.8216 175.794 85.4898 175.951 85.1905C176.108 84.8913 176.333 84.633 176.609 84.4363L177.097 84.1521C177.193 84.0852 177.306 84.0456 177.423 84.0376C177.54 84.0297 177.657 84.0537 177.762 84.107C177.883 84.1954 177.979 84.3139 178.04 84.4508C178.101 84.5878 178.125 84.7383 178.11 84.8873V85.4421C178.11 85.4596 178.106 85.4768 178.097 85.492C178.088 85.5071 178.075 85.5195 178.06 85.5278L175.849 86.7998C175.834 86.8036 175.818 86.8036 175.804 86.7998ZM177.205 84.3145L176.713 84.5987C176.467 84.7765 176.267 85.0089 176.127 85.2774C175.987 85.546 175.912 85.8432 175.908 86.1457V86.5201L177.911 85.37V84.8738C177.924 84.7607 177.909 84.646 177.866 84.5404C177.824 84.4347 177.755 84.3415 177.667 84.2694C177.594 84.2365 177.514 84.2233 177.434 84.2312C177.355 84.2391 177.279 84.2679 177.214 84.3145H177.205Z" fill="#FF6A6A"></path> <path d="M176.612 83.8409C176.528 83.8408 176.446 83.819 176.372 83.7778C176.266 83.7007 176.182 83.5973 176.128 83.4779C176.074 83.3585 176.052 83.2271 176.065 83.0967C176.068 82.8041 176.142 82.5166 176.278 82.2578C176.415 81.999 176.612 81.7763 176.852 81.6082C176.936 81.5495 177.035 81.5148 177.138 81.5076C177.241 81.5005 177.343 81.5212 177.435 81.5676C177.541 81.6449 177.624 81.7484 177.678 81.8679C177.731 81.9874 177.752 82.1187 177.738 82.2487C177.735 82.5409 177.663 82.8284 177.527 83.0872C177.391 83.346 177.195 83.5688 176.956 83.7372C176.852 83.8009 176.734 83.8367 176.612 83.8409ZM177.195 81.7075C177.11 81.7123 177.028 81.7387 176.956 81.7841C176.746 81.9339 176.576 82.1308 176.457 82.3589C176.338 82.587 176.275 82.8397 176.273 83.0967C176.261 83.1901 176.273 83.2849 176.308 83.3725C176.343 83.46 176.399 83.5373 176.472 83.5973C176.533 83.6257 176.6 83.6374 176.667 83.631C176.734 83.6247 176.797 83.6006 176.852 83.5613C177.06 83.4105 177.23 83.2134 177.349 82.9855C177.467 82.7577 177.531 82.5054 177.535 82.2487C177.546 82.1542 177.534 82.0583 177.498 81.97C177.462 81.8817 177.405 81.8038 177.331 81.7435C177.291 81.7218 177.246 81.7094 177.2 81.7075H177.195Z" fill="#FF6A6A"></path> <path d="M159.665 76.8407L172.887 69.2361C173.38 68.952 173.791 69.1504 173.791 69.6872C173.767 69.986 173.673 70.2749 173.516 70.5304C173.359 70.7859 173.143 71.0008 172.887 71.1576L159.665 78.7712C159.177 79.0553 158.761 78.8523 158.761 78.3201C158.783 78.0195 158.876 77.7285 159.033 77.4712C159.191 77.2139 159.407 76.9978 159.665 76.8407Z" fill="#455A64"></path> <path d="M159.665 80.6836L177.11 70.6344C177.599 70.3502 178.015 70.5532 178.015 71.0854C177.991 71.3844 177.897 71.6737 177.74 71.9293C177.583 72.1849 177.367 72.3997 177.11 72.5558L159.665 82.6051C159.177 82.8892 158.761 82.6863 158.761 82.154C158.784 81.855 158.878 81.5658 159.035 81.3102C159.193 81.0546 159.408 80.8398 159.665 80.6836Z" fill="#455A64"></path> <path d="M160.442 84.5355C161.347 84.0078 162.111 84.4362 162.111 85.4962C162.08 86.0731 161.912 86.6344 161.622 87.1345C161.332 87.6345 160.928 88.0592 160.442 88.3738C159.538 88.9016 158.778 88.4731 158.778 87.4131C158.809 86.8367 158.976 86.2756 159.265 85.7756C159.554 85.2755 159.957 84.8506 160.442 84.5355Z" fill="#FF6A6A"></path> <path d="M164.308 82.3164L173.257 77.17C173.551 77.0031 173.786 77.1384 173.781 77.4767V77.6526C173.765 77.8342 173.708 78.0098 173.614 78.1661C173.52 78.3225 173.392 78.4553 173.239 78.5547L164.308 83.6966C164.014 83.868 163.774 83.7282 163.774 83.3899V83.2185C163.787 83.0372 163.842 82.8613 163.935 82.7047C164.027 82.5482 164.155 82.4152 164.308 82.3164Z" fill="#455A64"></path> <path d="M164.168 85.203L177.855 77.3278C178.072 77.2015 178.244 77.3008 178.24 77.5533V77.6796C178.23 77.8148 178.19 77.946 178.121 78.0626C178.051 78.1793 177.956 78.2783 177.842 78.3517L164.163 86.2314C163.951 86.3577 163.774 86.2314 163.774 86.0059V85.8796C163.782 85.7439 163.822 85.612 163.89 85.4945C163.959 85.3769 164.054 85.2771 164.168 85.203Z" fill="#FF6A6A"></path> <path d="M145.962 118.814C145.719 118.699 145.449 118.652 145.182 118.677C144.914 118.703 144.659 118.8 144.442 118.959L140.178 121.417C139.928 121.593 139.723 121.826 139.58 122.096C139.437 122.367 139.36 122.667 139.355 122.973V125.679C139.32 126.128 139.178 126.561 138.942 126.944C138.707 127.328 138.383 127.65 137.999 127.885L129.959 132.58V131.02C129.971 130.883 129.944 130.746 129.883 130.623C129.821 130.501 129.727 130.398 129.611 130.325L127.617 129.179C127.45 129.103 127.267 129.07 127.084 129.083C126.902 129.096 126.725 129.156 126.572 129.256L125.256 129.991L124.94 130.172L122.792 131.407C122.671 131.477 122.556 131.557 122.448 131.646L122.285 131.791C121.584 132.46 121.165 133.372 121.114 134.339V187.634C121.092 187.845 121.125 188.058 121.212 188.251C121.299 188.444 121.435 188.611 121.607 188.735L123.61 189.885C123.803 189.975 124.016 190.012 124.228 189.991C124.439 189.97 124.642 189.893 124.813 189.768L146.893 177.053C147.387 176.729 147.798 176.295 148.093 175.784C148.389 175.273 148.56 174.701 148.593 174.112V121.34C148.621 121.073 148.577 120.803 148.465 120.559C148.353 120.314 148.177 120.104 147.956 119.951L145.962 118.814Z" fill="#E0E0E0"></path> <path d="M129.579 130.302C129.416 130.244 129.243 130.223 129.071 130.242C128.899 130.261 128.734 130.318 128.588 130.411L127.277 131.146L126.961 131.326L124.813 132.567C124.692 132.635 124.577 132.713 124.469 132.801L124.306 132.946C124.065 133.172 123.855 133.43 123.682 133.712L121.684 132.562C121.856 132.281 122.064 132.023 122.303 131.795C122.362 131.746 122.412 131.696 122.47 131.651C122.578 131.563 122.693 131.485 122.814 131.417L124.957 130.176L125.274 129.996L126.594 129.261C126.747 129.16 126.922 129.101 127.104 129.088C127.286 129.074 127.469 129.107 127.634 129.184L129.579 130.302Z" fill="#F0F0F0"></path> <path d="M147.961 119.965C147.718 119.85 147.449 119.802 147.181 119.828C146.914 119.853 146.658 119.95 146.441 120.109L142.177 122.567C141.923 122.726 141.719 122.955 141.589 123.226L139.591 122.075C139.72 121.805 139.924 121.576 140.179 121.417L144.443 118.959C144.66 118.803 144.916 118.707 145.182 118.681C145.449 118.655 145.718 118.699 145.962 118.81C146.319 119.004 147.599 119.757 147.961 119.965Z" fill="#F0F0F0"></path> <path opacity="0.1" d="M141.589 123.226C141.441 123.504 141.361 123.813 141.354 124.128V126.834C141.319 127.428 141.089 127.994 140.698 128.444L138.695 127.294C139.088 126.843 139.32 126.275 139.355 125.679V122.973C139.362 122.658 139.442 122.349 139.591 122.071L141.589 123.226Z" fill="black"></path> <path d="M146.436 120.109L142.176 122.567C141.925 122.743 141.719 122.975 141.576 123.246C141.433 123.517 141.356 123.817 141.353 124.123V126.829C141.32 127.276 141.182 127.708 140.95 128.091C140.718 128.474 140.399 128.798 140.019 129.035L131.315 134.118C130.577 134.538 129.981 134.24 129.981 133.446V131.02C129.981 130.239 129.257 130.041 128.588 130.406L127.272 131.141L126.955 131.322L124.812 132.558C124.691 132.628 124.576 132.708 124.468 132.797C124.41 132.842 124.36 132.891 124.301 132.941C123.589 133.609 123.162 134.525 123.107 135.498V188.789C123.107 189.872 123.872 190.309 124.812 189.768L146.892 177.053C147.386 176.729 147.797 176.295 148.092 175.784C148.388 175.273 148.559 174.701 148.592 174.112V121.34C148.592 119.983 147.62 119.428 146.436 120.109Z" fill="#FAFAFA"></path> <path d="M147.394 120.226C148.127 120.226 148.181 121.088 148.181 121.349V174.121C148.149 174.638 147.998 175.141 147.738 175.589C147.478 176.038 147.117 176.42 146.684 176.706L124.604 189.411C124.439 189.518 124.249 189.58 124.052 189.592C123.573 189.592 123.519 189.028 123.519 188.789V135.503C123.571 134.644 123.95 133.838 124.577 133.248L124.631 133.194L124.722 133.117C124.815 133.042 124.913 132.974 125.016 132.914L127.163 131.678L127.476 131.498L128.787 130.767C128.923 130.684 129.079 130.639 129.239 130.636C129.47 130.636 129.583 130.758 129.583 131.02V133.437C129.564 133.595 129.578 133.756 129.625 133.908C129.673 134.061 129.752 134.201 129.857 134.321C129.962 134.441 130.092 134.538 130.237 134.605C130.382 134.671 130.54 134.707 130.7 134.709C130.994 134.699 131.28 134.614 131.532 134.461L140.223 129.378C140.665 129.104 141.035 128.728 141.302 128.283C141.57 127.837 141.727 127.334 141.76 126.816V124.11C141.764 123.875 141.822 123.644 141.929 123.436C142.037 123.227 142.191 123.045 142.379 122.905L146.644 120.452C146.868 120.308 147.127 120.225 147.394 120.213V120.226ZM147.394 119.802C147.054 119.815 146.724 119.916 146.436 120.095L142.176 122.553C141.925 122.729 141.719 122.962 141.576 123.232C141.433 123.503 141.356 123.804 141.353 124.11V126.816C141.32 127.262 141.182 127.694 140.95 128.077C140.718 128.461 140.399 128.784 140.019 129.021L131.315 134.105C131.126 134.219 130.911 134.285 130.691 134.294C130.27 134.294 129.981 133.983 129.981 133.433V131.006C129.992 130.903 129.981 130.799 129.948 130.701C129.914 130.603 129.86 130.513 129.789 130.438C129.717 130.363 129.63 130.304 129.534 130.266C129.437 130.228 129.334 130.211 129.23 130.217C129.005 130.221 128.784 130.282 128.588 130.393L127.272 131.128L126.955 131.308L124.812 132.544C124.69 132.615 124.574 132.695 124.464 132.783L124.301 132.927C123.589 133.596 123.162 134.511 123.107 135.485V188.789C123.107 189.556 123.492 189.998 124.052 189.998C124.321 189.988 124.583 189.909 124.812 189.768L146.892 177.053C147.386 176.729 147.797 176.295 148.092 175.784C148.388 175.273 148.559 174.701 148.592 174.112V121.34C148.592 120.37 148.104 119.807 147.394 119.807V119.802Z" fill="#E0E0E0"></path> <path d="M126.531 185.041C126.514 185.046 126.497 185.046 126.481 185.041C126.465 185.032 126.452 185.019 126.442 185.003C126.433 184.987 126.427 184.969 126.427 184.951V183.038L125.938 183.322C125.921 183.335 125.899 183.342 125.877 183.342C125.855 183.342 125.834 183.335 125.816 183.322C125.802 183.305 125.794 183.284 125.794 183.262C125.794 183.239 125.802 183.218 125.816 183.201L127.706 179.98C127.72 179.957 127.743 179.941 127.769 179.934C127.795 179.927 127.823 179.931 127.846 179.944L129.737 180.986C129.753 180.994 129.767 181.006 129.776 181.021C129.786 181.036 129.791 181.054 129.791 181.072C129.79 181.09 129.785 181.108 129.775 181.124C129.766 181.14 129.753 181.153 129.737 181.162L129.149 181.5V183.503C129.148 183.521 129.143 183.539 129.133 183.555C129.124 183.571 129.11 183.584 129.094 183.593L126.594 185.032C126.575 185.042 126.552 185.046 126.531 185.041ZM126.531 182.745C126.547 182.74 126.564 182.74 126.58 182.745C126.596 182.754 126.61 182.767 126.619 182.783C126.629 182.799 126.634 182.817 126.635 182.835V184.748L128.927 183.426V181.396C128.927 181.379 128.931 181.362 128.94 181.347C128.949 181.331 128.962 181.319 128.977 181.311L129.461 181.031L127.815 180.129L126.173 182.93L126.481 182.75C126.497 182.743 126.514 182.742 126.531 182.745Z" fill="#FF6A6A"></path> <path d="M135.865 179.66H135.842L135.462 179.588C135.078 179.508 134.734 179.298 134.486 178.994C134.239 178.69 134.105 178.31 134.106 177.919C134.082 177.562 134.138 177.205 134.268 176.872C134.399 176.539 134.601 176.239 134.861 175.993C134.947 175.914 135.053 175.86 135.168 175.835C135.282 175.811 135.401 175.817 135.512 175.853C135.645 175.909 135.753 176.012 135.815 176.142C135.868 175.886 135.977 175.644 136.133 175.434C136.289 175.223 136.489 175.05 136.719 174.924C136.806 174.888 136.9 174.875 136.992 174.886C137.085 174.897 137.173 174.932 137.249 174.987C137.383 175.125 137.482 175.294 137.537 175.478C137.592 175.663 137.602 175.858 137.565 176.047C137.401 177.149 136.969 178.194 136.308 179.092L135.928 179.619C135.921 179.63 135.912 179.639 135.901 179.646C135.89 179.653 135.878 179.658 135.865 179.66ZM135.331 176.02C135.209 176.028 135.093 176.075 135.001 176.155C134.766 176.378 134.583 176.651 134.466 176.952C134.349 177.254 134.3 177.578 134.323 177.901C134.317 178.246 134.431 178.582 134.645 178.852C134.859 179.123 135.161 179.311 135.499 179.385L135.82 179.448L136.159 178.974C136.799 178.106 137.218 177.095 137.38 176.029C137.409 175.874 137.403 175.714 137.362 175.562C137.32 175.409 137.244 175.268 137.14 175.15C137.092 175.115 137.036 175.094 136.977 175.089C136.918 175.083 136.859 175.093 136.805 175.118C136.43 175.253 136.068 175.844 135.964 176.471C135.967 176.482 135.967 176.492 135.964 176.503C135.964 176.535 135.951 176.566 135.93 176.59C135.908 176.614 135.879 176.629 135.847 176.634C135.823 176.634 135.799 176.625 135.781 176.609C135.762 176.594 135.751 176.572 135.747 176.548C135.744 176.444 135.714 176.342 135.662 176.252C135.609 176.162 135.534 176.087 135.444 176.034C135.408 176.023 135.369 176.018 135.331 176.02Z" fill="#FF6A6A"></path> <path d="M143.14 175.474H143.086C143.07 175.465 143.058 175.452 143.049 175.436C143.04 175.42 143.036 175.402 143.036 175.384V174.834C143.041 174.495 143.126 174.163 143.283 173.863C143.44 173.563 143.665 173.304 143.941 173.106L144.433 172.822C144.53 172.756 144.643 172.718 144.76 172.71C144.876 172.702 144.993 172.725 145.098 172.777C145.217 172.869 145.311 172.988 145.372 173.125C145.433 173.262 145.458 173.412 145.446 173.562V174.112C145.446 174.13 145.44 174.148 145.431 174.164C145.421 174.18 145.408 174.193 145.392 174.202L143.185 175.474H143.14ZM144.827 172.899C144.724 172.902 144.624 172.933 144.537 172.989L144.049 173.269C143.802 173.446 143.6 173.679 143.459 173.948C143.318 174.218 143.243 174.516 143.24 174.82V175.195L145.243 174.04V173.548C145.257 173.435 145.242 173.32 145.199 173.215C145.156 173.109 145.087 173.016 144.999 172.944C144.947 172.913 144.887 172.897 144.827 172.899Z" fill="#FF6A6A"></path> <path d="M143.95 172.511C143.866 172.511 143.783 172.489 143.71 172.448C143.605 172.371 143.521 172.267 143.468 172.148C143.415 172.028 143.394 171.897 143.407 171.767C143.41 171.475 143.482 171.187 143.618 170.928C143.754 170.67 143.95 170.447 144.19 170.278C144.274 170.219 144.373 170.185 144.476 170.179C144.579 170.172 144.682 170.194 144.773 170.242C144.88 170.318 144.965 170.422 145.019 170.541C145.073 170.661 145.094 170.793 145.08 170.923C145.077 171.215 145.004 171.502 144.867 171.761C144.731 172.019 144.534 172.24 144.294 172.407C144.19 172.471 144.072 172.507 143.95 172.511ZM144.533 170.382C144.449 170.387 144.367 170.412 144.294 170.454C144.085 170.605 143.915 170.802 143.797 171.03C143.678 171.258 143.614 171.51 143.611 171.767C143.599 171.861 143.611 171.957 143.647 172.046C143.682 172.134 143.74 172.212 143.814 172.272C143.875 172.298 143.942 172.309 144.007 172.301C144.073 172.294 144.136 172.27 144.19 172.231C144.399 172.082 144.569 171.886 144.688 171.659C144.807 171.432 144.87 171.18 144.872 170.923C144.885 170.829 144.873 170.733 144.838 170.645C144.804 170.557 144.747 170.479 144.673 170.418C144.631 170.394 144.582 170.381 144.533 170.382Z" fill="#FF6A6A"></path> <path d="M131.686 146.968L139.758 142.318C140.056 142.147 140.3 142.268 140.3 142.593C140.288 142.776 140.232 142.952 140.137 143.109C140.043 143.266 139.913 143.398 139.758 143.495L131.686 148.146C131.388 148.317 131.144 148.195 131.144 147.87C131.157 147.688 131.213 147.511 131.307 147.355C131.401 147.198 131.531 147.066 131.686 146.968Z" fill="#FF6A6A"></path> <path d="M130.384 150.067L141.033 143.933C141.332 143.762 141.576 143.883 141.576 144.208C141.563 144.39 141.507 144.567 141.413 144.724C141.318 144.88 141.188 145.013 141.033 145.11L130.384 151.24C130.086 151.411 129.842 151.289 129.842 150.969C129.856 150.787 129.912 150.611 130.006 150.454C130.1 150.297 130.23 150.165 130.384 150.067Z" fill="#FF6A6A"></path> <path d="M126.644 156.576L135.593 151.429C135.891 151.262 136.127 151.398 136.122 151.74V151.93C136.107 152.111 136.051 152.287 135.958 152.443C135.865 152.6 135.737 152.733 135.584 152.832L126.649 157.978C126.355 158.145 126.115 158.01 126.115 157.672V157.496C126.125 157.312 126.179 157.133 126.27 156.973C126.362 156.813 126.49 156.677 126.644 156.576Z" fill="#455A64"></path> <path d="M126.554 159.958L145.663 148.953C145.912 148.813 146.116 148.926 146.116 149.21V151.064C146.107 151.218 146.061 151.369 145.983 151.502C145.904 151.635 145.795 151.748 145.663 151.831L126.559 162.836C126.314 162.98 126.106 162.863 126.106 162.583V160.725C126.115 160.571 126.16 160.421 126.238 160.288C126.316 160.155 126.424 160.042 126.554 159.958Z" fill="#E0E0E0"></path> <path d="M126.554 167.613L145.663 156.607C145.912 156.467 146.116 156.58 146.116 156.864V158.718C146.107 158.873 146.061 159.023 145.983 159.156C145.904 159.29 145.795 159.402 145.663 159.485L126.559 170.495C126.314 170.635 126.106 170.522 126.106 170.238V168.379C126.116 168.225 126.161 168.076 126.239 167.943C126.316 167.81 126.424 167.696 126.554 167.613Z" fill="#E0E0E0"></path> <path d="M126.644 164.23L135.593 159.088C135.891 158.916 136.127 159.056 136.122 159.395V159.566C136.11 159.751 136.055 159.931 135.962 160.091C135.869 160.252 135.739 160.388 135.584 160.491L126.649 165.633C126.355 165.804 126.115 165.664 126.115 165.326V165.15C126.125 164.966 126.179 164.787 126.27 164.627C126.362 164.468 126.49 164.331 126.644 164.23Z" fill="#455A64"></path> <path d="M126.649 173.336L133.911 169.151C134.205 168.979 134.444 169.115 134.444 169.457V172.064C134.434 172.25 134.381 172.43 134.288 172.59C134.196 172.751 134.066 172.887 133.911 172.989L126.649 177.188C126.355 177.355 126.115 177.22 126.115 176.882V174.257C126.125 174.072 126.179 173.893 126.272 173.733C126.364 173.573 126.494 173.437 126.649 173.336Z" fill="#FF6A6A"></path> <path d="M138.31 166.616L145.572 162.43C145.866 162.263 146.106 162.399 146.106 162.737V165.348C146.093 165.53 146.038 165.706 145.945 165.862C145.853 166.019 145.725 166.152 145.572 166.25L138.31 170.436C138.016 170.608 137.776 170.472 137.776 170.129V167.536C137.787 167.352 137.841 167.172 137.934 167.013C138.026 166.853 138.155 166.717 138.31 166.616Z" fill="#FF6A6A"></path> <path d="M179.36 102.669C179.117 102.556 178.848 102.509 178.581 102.534C178.314 102.56 178.058 102.656 177.841 102.814L173.577 105.272C173.326 105.449 173.12 105.682 172.977 105.953C172.834 106.225 172.758 106.526 172.754 106.832V109.539C172.718 109.983 172.579 110.413 172.346 110.793C172.114 111.174 171.795 111.495 171.416 111.731L163.376 116.426V114.888C163.387 114.752 163.361 114.616 163.299 114.494C163.238 114.372 163.144 114.27 163.028 114.198L161.015 113.039C160.849 112.962 160.666 112.929 160.483 112.942C160.3 112.956 160.124 113.015 159.971 113.115L158.659 113.851L158.343 114.031L156.195 115.271C156.074 115.34 155.959 115.418 155.851 115.506C155.793 115.551 155.743 115.601 155.689 115.65C154.975 116.317 154.547 117.234 154.495 118.208V171.494C154.473 171.704 154.507 171.916 154.593 172.108C154.68 172.301 154.816 172.467 154.988 172.59L156.991 173.745C157.184 173.832 157.397 173.867 157.609 173.846C157.82 173.825 158.022 173.748 158.194 173.623L180.287 160.894C180.783 160.572 181.195 160.137 181.491 159.627C181.787 159.116 181.959 158.543 181.992 157.954V105.182C182.02 104.915 181.976 104.646 181.864 104.402C181.752 104.158 181.576 103.949 181.354 103.797L179.36 102.669Z" fill="#E0E0E0"></path> <path d="M162.978 114.157C162.815 114.1 162.642 114.08 162.471 114.099C162.299 114.118 162.134 114.175 161.988 114.266L160.676 115.001L160.36 115.181L158.212 116.422C158.092 116.491 157.977 116.57 157.868 116.656C157.81 116.701 157.76 116.751 157.706 116.8C157.465 117.029 157.254 117.287 157.077 117.567L155.083 116.417C155.256 116.136 155.464 115.878 155.702 115.65L155.865 115.506C155.975 115.419 156.092 115.341 156.213 115.271L158.357 114.031L158.673 113.851L159.994 113.115C160.146 113.015 160.322 112.956 160.504 112.942C160.686 112.929 160.868 112.962 161.034 113.039L162.978 114.157Z" fill="#F0F0F0"></path> <path d="M181.363 103.819C181.12 103.704 180.849 103.657 180.581 103.683C180.313 103.708 180.057 103.805 179.839 103.964L175.58 106.422C175.324 106.58 175.12 106.809 174.992 107.08L172.993 105.93C173.122 105.661 173.324 105.433 173.576 105.272L177.845 102.814C178.063 102.657 178.318 102.561 178.585 102.536C178.852 102.51 179.121 102.557 179.364 102.669L181.363 103.819Z" fill="#F0F0F0"></path> <path opacity="0.1" d="M174.988 107.08C174.839 107.359 174.757 107.667 174.748 107.983V110.689C174.714 111.284 174.483 111.852 174.092 112.304L172.094 111.149C172.485 110.699 172.718 110.133 172.754 109.539V106.832C172.761 106.518 172.841 106.209 172.989 105.93L174.988 107.08Z" fill="black"></path> <path d="M179.835 103.964L175.571 106.422C175.32 106.599 175.115 106.833 174.972 107.104C174.829 107.375 174.752 107.676 174.748 107.982V110.689C174.715 111.134 174.577 111.566 174.346 111.949C174.116 112.332 173.798 112.656 173.418 112.894L164.714 117.978C163.977 118.402 163.38 118.099 163.38 117.306V114.888C163.38 114.108 162.657 113.909 161.987 114.274L160.671 115.01L160.355 115.19L158.212 116.43C158.09 116.5 157.973 116.578 157.863 116.665L157.701 116.809C156.989 117.48 156.562 118.396 156.507 119.371V172.644C156.507 173.726 157.271 174.164 158.212 173.623L180.287 160.894C180.782 160.572 181.195 160.137 181.491 159.626C181.787 159.116 181.958 158.543 181.992 157.953V105.181C181.992 103.842 181.02 103.283 179.835 103.964Z" fill="#FAFAFA"></path> <path d="M180.794 104.063C181.522 104.063 181.58 104.925 181.58 105.186V157.958C181.548 158.475 181.396 158.977 181.136 159.425C180.876 159.874 180.516 160.256 180.084 160.543L158.004 173.257C157.837 173.365 157.645 173.427 157.447 173.438C156.968 173.438 156.918 172.874 156.918 172.635V119.362C156.971 118.504 157.349 117.697 157.977 117.107L158.031 117.058L158.121 116.976C158.214 116.902 158.312 116.834 158.415 116.773L160.558 115.538L160.875 115.357L162.186 114.626C162.324 114.548 162.48 114.504 162.639 114.5C162.874 114.5 162.982 114.617 162.982 114.879V117.306C162.963 117.464 162.978 117.625 163.025 117.777C163.072 117.929 163.151 118.07 163.256 118.19C163.362 118.31 163.491 118.406 163.636 118.473C163.782 118.54 163.939 118.576 164.099 118.578C164.395 118.57 164.684 118.485 164.936 118.33L173.636 113.251C174.078 112.977 174.449 112.602 174.716 112.156C174.983 111.71 175.14 111.207 175.173 110.689V107.983C175.177 107.748 175.235 107.517 175.342 107.309C175.45 107.1 175.604 106.918 175.793 106.778L180.057 104.32C180.282 104.178 180.541 104.096 180.807 104.081L180.794 104.063ZM180.807 103.675C180.468 103.686 180.137 103.785 179.849 103.964L175.585 106.422C175.334 106.599 175.129 106.833 174.986 107.104C174.843 107.375 174.766 107.676 174.762 107.983V110.689C174.728 111.135 174.591 111.566 174.36 111.95C174.129 112.333 173.811 112.656 173.432 112.894L164.728 117.978C164.539 118.095 164.322 118.16 164.099 118.167C163.679 118.167 163.394 117.856 163.394 117.306V114.888C163.404 114.785 163.392 114.681 163.359 114.583C163.325 114.484 163.27 114.395 163.199 114.32C163.127 114.245 163.04 114.186 162.943 114.148C162.846 114.11 162.742 114.093 162.639 114.099C162.415 114.104 162.196 114.164 162.001 114.275L160.685 115.01L160.369 115.19L158.225 116.431C158.103 116.5 157.987 116.578 157.877 116.665L157.714 116.809C157.002 117.48 156.575 118.397 156.521 119.371V172.644C156.521 173.411 156.905 173.853 157.461 173.853C157.732 173.844 157.995 173.765 158.225 173.623L180.287 160.894C180.782 160.572 181.195 160.137 181.491 159.627C181.787 159.116 181.959 158.543 181.992 157.954V105.182C181.992 104.212 181.504 103.653 180.794 103.653L180.807 103.675Z" fill="#E0E0E0"></path> <path d="M159.93 168.896C159.914 168.901 159.897 168.901 159.88 168.896C159.864 168.887 159.851 168.874 159.842 168.858C159.832 168.842 159.827 168.824 159.826 168.806V166.893L159.338 167.177C159.32 167.191 159.297 167.199 159.275 167.199C159.252 167.199 159.229 167.191 159.211 167.177C159.198 167.16 159.191 167.138 159.191 167.117C159.191 167.095 159.198 167.073 159.211 167.056L161.101 163.835C161.116 163.813 161.139 163.797 161.164 163.79C161.19 163.784 161.218 163.787 161.241 163.799L163.132 164.841C163.147 164.849 163.16 164.862 163.169 164.877C163.177 164.892 163.182 164.909 163.181 164.927C163.183 164.945 163.18 164.963 163.171 164.98C163.162 164.996 163.148 165.009 163.132 165.017L162.544 165.355V167.385C162.544 167.403 162.54 167.421 162.531 167.437C162.522 167.452 162.509 167.466 162.494 167.475L159.993 168.914C159.971 168.916 159.948 168.91 159.93 168.896ZM159.93 166.605C159.946 166.6 159.964 166.6 159.98 166.605C159.996 166.613 160.009 166.625 160.019 166.64C160.028 166.655 160.034 166.672 160.034 166.69V168.603L162.327 167.281V165.251C162.326 165.234 162.331 165.217 162.339 165.202C162.348 165.186 162.361 165.174 162.376 165.166L162.86 164.886L161.214 163.984L159.568 166.785L159.88 166.609C159.896 166.603 159.913 166.601 159.93 166.605Z" fill="#FF6A6A"></path> <path d="M169.263 163.519H169.241L168.861 163.447C168.476 163.369 168.13 163.16 167.883 162.855C167.635 162.551 167.502 162.17 167.504 161.778C167.479 161.422 167.533 161.063 167.664 160.73C167.794 160.397 167.998 160.097 168.259 159.852C168.346 159.775 168.452 159.721 168.566 159.697C168.681 159.672 168.799 159.678 168.911 159.713C169.043 159.77 169.15 159.872 169.213 160.001C169.268 159.746 169.377 159.505 169.533 159.294C169.689 159.084 169.889 158.91 170.118 158.783C170.204 158.747 170.299 158.735 170.391 158.747C170.484 158.759 170.572 158.795 170.647 158.851C170.782 158.988 170.882 159.156 170.938 159.339C170.994 159.523 171.004 159.718 170.968 159.907C170.805 161.009 170.373 162.054 169.711 162.951L169.331 163.479C169.323 163.49 169.313 163.499 169.301 163.506C169.29 163.513 169.277 163.518 169.263 163.519ZM168.73 159.875C168.607 159.881 168.491 159.929 168.4 160.01C168.165 160.233 167.982 160.506 167.865 160.807C167.747 161.109 167.698 161.433 167.721 161.756C167.715 162.101 167.829 162.437 168.044 162.707C168.258 162.978 168.559 163.166 168.897 163.24L169.218 163.303L169.557 162.852C170.197 161.985 170.616 160.975 170.778 159.911C170.808 159.756 170.802 159.596 170.761 159.444C170.719 159.291 170.643 159.15 170.538 159.032C170.491 158.996 170.435 158.973 170.376 158.967C170.317 158.961 170.258 158.971 170.204 158.995C169.969 159.142 169.771 159.34 169.626 159.574C169.48 159.809 169.39 160.074 169.363 160.349C169.365 160.359 169.365 160.37 169.363 160.38C169.367 160.401 169.367 160.423 169.363 160.443C169.355 160.464 169.342 160.482 169.324 160.495C169.306 160.508 169.285 160.515 169.263 160.515C169.239 160.515 169.215 160.505 169.197 160.489C169.179 160.472 169.167 160.45 169.164 160.425C169.16 160.321 169.13 160.22 169.078 160.13C169.025 160.04 168.95 159.965 168.861 159.911C168.82 159.891 168.775 159.879 168.73 159.875Z" fill="#FF6A6A"></path> <path d="M176.534 159.329C176.518 159.333 176.501 159.333 176.484 159.329C176.469 159.32 176.456 159.307 176.447 159.291C176.439 159.275 176.434 159.257 176.435 159.239V158.689C176.44 158.35 176.524 158.018 176.681 157.718C176.838 157.418 177.064 157.159 177.339 156.961L177.827 156.682C177.923 156.614 178.036 156.574 178.153 156.566C178.271 156.558 178.388 156.582 178.492 156.636C178.613 156.725 178.709 156.843 178.771 156.98C178.832 157.117 178.856 157.268 178.84 157.417V157.967C178.841 157.985 178.836 158.003 178.827 158.019C178.819 158.035 178.806 158.048 178.79 158.057L176.584 159.329H176.534ZM178.225 156.754C178.123 156.759 178.023 156.79 177.936 156.844L177.447 157.124C177.2 157.301 176.998 157.534 176.857 157.803C176.717 158.073 176.642 158.371 176.638 158.675V159.05L178.641 157.895V157.403C178.655 157.29 178.64 157.175 178.597 157.07C178.554 156.964 178.485 156.871 178.397 156.799C178.345 156.768 178.286 156.753 178.225 156.754Z" fill="#FF6A6A"></path> <path d="M177.348 156.384C177.264 156.385 177.181 156.364 177.109 156.321C177.003 156.243 176.919 156.14 176.866 156.02C176.813 155.901 176.792 155.77 176.806 155.64C176.809 155.348 176.882 155.06 177.018 154.802C177.154 154.543 177.349 154.32 177.588 154.151C177.673 154.093 177.772 154.059 177.875 154.053C177.977 154.046 178.08 154.068 178.171 154.115C178.278 154.192 178.363 154.295 178.417 154.414C178.471 154.534 178.492 154.666 178.479 154.796C178.474 155.089 178.401 155.376 178.264 155.634C178.127 155.893 177.931 156.116 177.692 156.285C177.588 156.347 177.47 156.381 177.348 156.384ZM177.932 154.255C177.846 154.259 177.764 154.285 177.692 154.332C177.484 154.481 177.314 154.678 177.195 154.905C177.077 155.132 177.013 155.384 177.009 155.64C176.997 155.734 177.01 155.83 177.045 155.919C177.081 156.007 177.138 156.085 177.213 156.145C177.273 156.172 177.34 156.183 177.406 156.176C177.472 156.169 177.535 156.144 177.588 156.104C177.797 155.955 177.968 155.759 178.086 155.532C178.205 155.304 178.268 155.052 178.271 154.796C178.284 154.702 178.272 154.605 178.236 154.517C178.2 154.428 178.142 154.35 178.067 154.291C178.029 154.26 177.981 154.241 177.932 154.237V154.255Z" fill="#FF6A6A"></path> <path d="M165.085 130.801L173.156 126.164C173.455 125.988 173.699 126.11 173.699 126.435C173.686 126.617 173.63 126.794 173.536 126.951C173.442 127.107 173.311 127.24 173.156 127.337L165.085 131.974C164.782 132.145 164.542 132.023 164.542 131.698C164.555 131.517 164.612 131.341 164.706 131.185C164.8 131.029 164.93 130.897 165.085 130.801Z" fill="#FF6A6A"></path> <path d="M163.796 133.927L174.444 127.788C174.743 127.617 174.987 127.738 174.987 128.063C174.974 128.245 174.919 128.422 174.824 128.579C174.73 128.736 174.6 128.868 174.444 128.965L163.796 135.099C163.493 135.275 163.253 135.149 163.253 134.829C163.265 134.646 163.32 134.469 163.414 134.312C163.509 134.155 163.639 134.023 163.796 133.927Z" fill="#FF6A6A"></path> <path d="M160.042 140.431L168.991 135.289C169.285 135.117 169.52 135.257 169.516 135.595V135.767C169.5 135.948 169.443 136.124 169.349 136.281C169.255 136.437 169.126 136.57 168.973 136.669L160.042 141.815C159.748 141.982 159.509 141.847 159.509 141.509V141.333C159.522 141.151 159.577 140.976 159.67 140.819C159.762 140.663 159.89 140.53 160.042 140.431Z" fill="#455A64"></path> <path d="M159.953 143.813L179.062 132.808C179.306 132.668 179.514 132.781 179.514 133.065V134.919C179.505 135.073 179.459 135.223 179.381 135.357C179.302 135.49 179.193 135.603 179.062 135.686L159.957 146.691C159.713 146.835 159.505 146.718 159.505 146.438V144.58C159.513 144.426 159.558 144.276 159.636 144.143C159.714 144.01 159.822 143.897 159.953 143.813Z" fill="#E0E0E0"></path> <path d="M159.953 151.468L179.062 140.462C179.306 140.322 179.514 140.435 179.514 140.719V142.573C179.504 142.728 179.458 142.878 179.38 143.012C179.301 143.146 179.192 143.26 179.062 143.344L159.957 154.35C159.713 154.49 159.505 154.377 159.505 154.093V152.234C159.514 152.081 159.56 151.931 159.638 151.798C159.715 151.665 159.823 151.552 159.953 151.468Z" fill="#E0E0E0"></path> <path d="M160.042 148.089L168.991 142.943C169.285 142.771 169.52 142.911 169.516 143.25V143.425C169.5 143.607 169.443 143.783 169.349 143.939C169.255 144.095 169.126 144.228 168.973 144.328L160.042 149.469C159.748 149.641 159.509 149.501 159.509 149.163V148.991C159.521 148.81 159.575 148.634 159.668 148.477C159.761 148.32 159.889 148.188 160.042 148.089Z" fill="#455A64"></path> <path d="M160.047 157.191L167.309 153.006C167.603 152.834 167.843 152.974 167.843 153.312V155.933C167.829 156.114 167.774 156.29 167.682 156.446C167.589 156.603 167.462 156.736 167.309 156.835L160.047 161.021C159.753 161.188 159.514 161.052 159.514 160.714V158.102C159.525 157.919 159.579 157.742 159.672 157.584C159.765 157.425 159.893 157.291 160.047 157.191Z" fill="#FF6A6A"></path> <path d="M171.709 150.471L178.971 146.285C179.265 146.118 179.505 146.254 179.505 146.592V149.203C179.492 149.385 179.437 149.561 179.345 149.717C179.252 149.874 179.124 150.007 178.971 150.105L171.709 154.296C171.415 154.462 171.176 154.327 171.176 153.989V151.377C171.189 151.195 171.243 151.019 171.336 150.862C171.429 150.704 171.556 150.571 171.709 150.471Z" fill="#FF6A6A"></path> </g> <defs> <clipPath id="clip0"> <path d="M0 0H200C206.627 0 212 5.37258 212 12V208C212 214.627 206.627 220 200 220H0V0Z" fill="white"></path> </clipPath> </defs> </svg> 