<?xml version="1.0" encoding="UTF-8"?> <svg xmlns="http://www.w3.org/2000/svg" width="60" height="83" viewBox="0 0 60 83" fill="none"><path d="M32.1899 56.2799L35.8999 54.1299L36.3599 54.9499L32.6499 57.1099L32.1899 56.2799Z" fill="#FE443E"></path><path d="M2.52005 2.58989L6.23004 0.429894C7.40004 -0.250106 9.02005 -0.160106 10.8 0.869894L7.09006 3.02989C5.31006 1.99989 3.69005 1.90989 2.52005 2.58989Z" fill="#FE443E"></path><mask id="mask0_14_2954" style="mask-type:luminance" maskUnits="userSpaceOnUse" x="2" y="-1" width="9" height="5"><path d="M2.52005 2.58989L6.23004 0.429894C7.40004 -0.250106 9.02005 -0.160106 10.8 0.869894L7.09006 3.02989C5.31006 1.99989 3.69005 1.90989 2.52005 2.58989Z" fill="white"></path></mask><g mask="url(#mask0_14_2954)"><path d="M2.52005 2.58989L6.23004 0.429894C7.40004 -0.250106 9.02005 -0.160106 10.8 0.869894L7.09006 3.02989C5.31006 1.99989 3.69005 1.90989 2.52005 2.58989Z" fill="#FE443E"></path></g><path d="M47.24 65.5299L50.95 63.3699L50.42 80.3599L46.71 82.5199L47.24 65.5299Z" fill="#FE443E"></path><path d="M47.25 64.9798L47.24 65.5298L46.71 82.5198L32.65 57.1098L32.19 56.2798L47.25 64.9798Z" fill="#FF5852"></path><path d="M47.25 64.9798L50.96 62.8198L50.95 63.3698L47.24 65.5298L47.25 64.9798Z" fill="#FE443E"></path><path d="M32.19 56.2799L35.9 54.1299L50.96 62.8199L47.25 64.9799L32.19 56.2799Z" fill="#FE443E"></path><path d="M57.9101 65.1898L54.2 67.3498C55.35 66.6798 56.07 65.2598 56.08 63.2398L59.79 61.0798C59.79 63.0998 59.0701 64.5198 57.9101 65.1898Z" fill="#FE443E"></path><mask id="mask1_14_2954" style="mask-type:luminance" maskUnits="userSpaceOnUse" x="54" y="61" width="6" height="7"><path d="M57.9101 65.1898L54.2 67.3498C55.35 66.6798 56.07 65.2598 56.08 63.2398L59.79 61.0798C59.79 63.0998 59.0701 64.5198 57.9101 65.1898Z" fill="white"></path></mask><g mask="url(#mask1_14_2954)"><path d="M56.07 63.2398L59.78 61.0798C59.78 63.0998 59.06 64.5198 57.9 65.1898L54.19 67.3498C55.34 66.6798 56.06 65.2598 56.07 63.2398Z" fill="#FE443E"></path></g><path d="M56.1401 38.7498L59.8501 36.5898L59.7801 61.0798L56.0701 63.2398L56.1401 38.7498Z" fill="#FE443E"></path><path d="M7.07996 3.02987L10.7899 0.869873L53.45 25.4999L49.74 27.6599L7.07996 3.02987Z" fill="#FE443E"></path><path d="M49.7401 27.6598C53.2701 29.6998 56.1501 34.6898 56.1401 38.7498L56.0701 63.2398C56.0601 67.2998 53.1601 68.9498 49.6201 66.9098L47.2301 65.5298L47.2501 64.9798L32.1901 56.2798L32.6501 57.0998L6.98011 42.2798C3.45011 40.2398 0.570112 35.2498 0.580112 31.1898L0.65012 6.69983C0.66012 2.63983 3.56013 0.989829 7.10013 3.02983L49.7601 27.6598H49.7401Z" fill="#FF5852"></path><path d="M49.74 27.66L53.45 25.5C56.98 27.54 59.87 32.53 59.85 36.59L56.14 38.75C56.15 34.69 53.27 29.7 49.74 27.66Z" fill="#FE443E"></path><mask id="mask2_14_2954" style="mask-type:luminance" maskUnits="userSpaceOnUse" x="49" y="25" width="11" height="14"><path d="M49.74 27.66L53.45 25.5C56.98 27.54 59.87 32.53 59.85 36.59L56.14 38.75C56.15 34.69 53.27 29.7 49.74 27.66Z" fill="white"></path></mask><g mask="url(#mask2_14_2954)"><path d="M49.74 27.66L53.45 25.5C56.98 27.54 59.87 32.53 59.85 36.59L56.14 38.75C56.15 34.69 53.27 29.7 49.74 27.66Z" fill="#FE443E"></path></g><path d="M21.1699 31.8299C21.1699 34.7699 19.0999 35.9699 16.5499 34.4999C13.9999 33.0299 11.9299 29.4499 11.9299 26.4999C11.9299 23.5499 13.9999 22.3599 16.5499 23.8299C19.0999 25.2999 21.1699 28.8799 21.1699 31.8299Z" fill="white"></path><path d="M33.5198 38.9598C33.5198 41.8998 31.4498 43.0998 28.8998 41.6298C26.3498 40.1598 24.2798 36.5798 24.2798 33.6298C24.2798 30.6798 26.3498 29.4898 28.8998 30.9598C31.4498 32.4298 33.5198 36.0098 33.5198 38.9598Z" fill="white"></path><path d="M45.8799 46.0999C45.8799 49.0399 43.8099 50.24 41.2599 48.77C38.7099 47.3 36.6399 43.72 36.6399 40.77C36.6399 37.82 38.7099 36.6299 41.2599 38.0999C43.8099 39.5699 45.8799 43.1499 45.8799 46.0999Z" fill="white"></path></svg> 